<svg width="260" height="70" viewBox="0 0 260 70" fill="none" xmlns="http://www.w3.org/2000/svg">
<path d="M56.746 51.218V34.77C56.746 25.864 63.965 18.645 72.871 18.645C81.777 18.645 88.996 25.864 88.996 34.77V51.219V56.424H95.907V34.77C95.907 22.048 85.594 11.734 72.871 11.734C66.592 11.734 60.901 14.247 56.746 18.321V2.52H49.835V56.424H56.746V51.218V51.218Z" fill="#ffffff"/>
<path d="M24.036 57.805C36.758 57.805 47.072 47.492 47.072 34.769C47.072 22.046 36.758 11.734 24.036 11.734C17.757 11.734 12.066 14.247 7.911 18.321V13.116H1V68.862H7.911V51.218C12.066 55.292 17.757 57.805 24.036 57.805ZM24.036 18.645C32.942 18.645 40.161 25.864 40.161 34.77C40.161 43.676 32.942 50.895 24.036 50.895C15.13 50.895 7.911 43.675 7.911 34.77C7.911 25.865 15.13 18.645 24.036 18.645Z" fill="#ffffff"/>
<path d="M137.832 18.321C133.677 14.247 127.986 11.734 121.707 11.734C108.985 11.734 98.671 22.047 98.671 34.77C98.671 47.493 108.984 57.806 121.707 57.806C127.986 57.806 133.677 55.293 137.832 51.219V56.424H144.743V13.116H137.832V18.321ZM121.707 50.895C112.801 50.895 105.582 43.676 105.582 34.77C105.582 25.864 112.801 18.645 121.707 18.645C130.613 18.645 137.832 25.864 137.832 34.77C137.832 43.676 130.613 50.895 121.707 50.895Z" fill="#ffffff"/>
<path d="M209.704 13.116H202.793V56.423H209.704V13.116Z" fill="#ffffff"/>
<path d="M195.191 57.805C197.481 57.805 199.337 55.9488 199.337 53.659C199.337 51.3692 197.481 49.513 195.191 49.513C192.901 49.513 191.045 51.3692 191.045 53.659C191.045 55.9488 192.901 57.805 195.191 57.805Z" fill="#ffffff"/>
<path d="M171.004 11.734C164.725 11.734 159.034 14.247 154.879 18.321V2.52H147.968V56.44H154.879V51.218C159.034 55.292 164.725 57.805 171.004 57.805C183.726 57.805 194.04 47.492 194.04 34.769C194.04 22.046 183.726 11.734 171.004 11.734ZM171.004 50.895C162.098 50.895 154.879 43.676 154.879 34.77C154.879 25.864 162.098 18.645 171.004 18.645C179.91 18.645 187.129 25.864 187.129 34.77C187.129 43.676 179.909 50.895 171.004 50.895Z" fill="#ffffff"/>
<path d="M206.248 9.43C208.538 9.43 210.394 7.57377 210.394 5.284C210.394 2.99423 208.538 1.138 206.248 1.138C203.958 1.138 202.102 2.99423 202.102 5.284C202.102 7.57377 203.958 9.43 206.248 9.43Z" fill="#ffffff"/>
<path d="M235.964 11.734C223.242 11.734 212.928 22.047 212.928 34.77C212.928 47.493 223.241 57.806 235.964 57.806C248.687 57.805 259 47.492 259 34.77C259 22.048 248.687 11.734 235.964 11.734ZM235.964 50.895C227.058 50.895 219.839 43.676 219.839 34.77C219.839 25.864 227.058 18.645 235.964 18.645C244.87 18.645 252.089 25.864 252.089 34.77C252.089 43.676 244.87 50.895 235.964 50.895Z" fill="#ffffff"/>
<path d="M116.178 61.952H12.748V68.863H116.178V61.952Z" fill="#ffffff"/>
</svg>
