<svg width="96" height="96" viewBox="0 0 96 96" fill="none" xmlns="http://www.w3.org/2000/svg">
<path d="M32.0599 80.8247C31.2875 80.7616 30.515 80.7075 29.7425 80.6444C26.0958 80.3559 22.5209 79.7248 19.0358 78.5707C13.7454 76.8036 9.91 73.3415 7.2962 68.4548C5.40097 64.9206 4.26922 61.1339 3.62251 57.1849C3.21831 54.7867 3.09256 52.3614 3.00274 49.9361C2.93088 47.9706 4.2782 46.6633 6.23631 46.6633C25.7545 46.6994 45.2726 46.6903 64.7818 46.6723C66.9824 46.6723 69.1202 46.2486 71.1501 45.365C71.2849 45.3019 71.4196 45.2388 71.5543 45.1666C71.5903 45.1486 71.6262 45.1216 71.6441 45.1125C68.3747 39.153 69.731 33.7164 73.2879 28.4601C75.4077 29.5059 77.1053 30.9305 78.4885 32.7427C79.8628 34.5459 80.7341 36.5835 81.0844 38.8104C82.1443 38.7202 83.1682 38.603 84.1922 38.5579C86.4108 38.4678 88.5934 38.6932 90.6413 39.6038C91.4497 39.9644 92.1683 40.5324 92.9048 41.0373C93.0036 41.1004 93.0216 41.3799 92.9767 41.5242C92.0605 44.4544 90.1653 46.6092 87.5515 48.1419C85.1353 49.5574 82.4766 50.0533 79.7191 50.0082C79.2879 49.9992 79.1352 50.1525 78.9915 50.5131C77.3209 54.7326 75.3448 58.7897 72.7579 62.5314C67.0363 70.817 59.2578 76.1454 49.629 78.8412C45.6858 79.9502 41.6618 80.5542 37.566 80.7436C37.3145 80.7526 37.063 80.7977 36.8115 80.8247C35.2306 80.8247 33.6498 80.8247 32.0599 80.8247Z" fill="#0096DB"/>
<path d="M26.2942 34.7261C25.0278 34.7261 23.7523 34.7261 22.4858 34.7261C21.8571 34.7261 21.6056 34.4827 21.5966 33.8696C21.5876 31.6066 21.5876 29.3436 21.5966 27.0806C21.5966 26.4675 21.8391 26.2331 22.4409 26.224C24.9918 26.215 27.5517 26.215 30.1027 26.224C30.7045 26.224 30.938 26.4675 30.947 27.0806C30.956 29.3436 30.956 31.6066 30.947 33.8696C30.947 34.4917 30.6955 34.7261 30.0577 34.7261C28.8003 34.7261 27.5517 34.7261 26.2942 34.7261Z" fill="#0096DB"/>
<path d="M37.4024 26.2151C38.6599 26.2151 39.9084 26.2151 41.1659 26.2151C41.8486 26.2151 42.0731 26.4405 42.0731 27.1437C42.0731 29.3617 42.0731 31.5796 42.0731 33.7975C42.0731 34.4827 41.8306 34.7171 41.1569 34.7261C38.6509 34.7261 36.136 34.7261 33.6299 34.7261C32.9563 34.7261 32.7138 34.4827 32.7138 33.7975C32.7048 31.5796 32.7048 29.3617 32.7138 27.1437C32.7138 26.4495 32.9473 26.2241 33.6299 26.2241C34.8874 26.2151 36.1449 26.2151 37.4024 26.2151Z" fill="#0096DB"/>
<path d="M48.3844 34.7262C47.1269 34.7262 45.8784 34.7262 44.6209 34.7262C43.9652 34.7262 43.7227 34.4917 43.7227 33.8336C43.7227 31.5886 43.7227 29.3346 43.7227 27.0897C43.7227 26.4585 43.9562 26.2241 44.5939 26.2241C47.1179 26.2241 49.6419 26.2241 52.1658 26.2241C52.8305 26.2241 53.0641 26.4585 53.0641 27.1077C53.0641 29.3436 53.0641 31.5706 53.0641 33.8065C53.0641 34.4917 52.8305 34.7171 52.1479 34.7262C50.8904 34.7262 49.6419 34.7262 48.3844 34.7262Z" fill="#0096DB"/>
<path d="M26.2829 36.4391C27.5404 36.4391 28.7979 36.4391 30.0554 36.4391C30.7111 36.4391 30.9536 36.6736 30.9536 37.3317C30.9536 39.5677 30.9536 41.8036 30.9536 44.0396C30.9536 44.7068 30.7291 44.9322 30.0644 44.9322C27.5404 44.9322 25.0075 44.9322 22.4835 44.9322C21.8457 44.9322 21.6122 44.6978 21.6122 44.0666C21.6032 41.8127 21.6032 39.5677 21.6122 37.3137C21.6122 36.6826 21.8547 36.4391 22.4835 36.4391C23.741 36.4391 25.0075 36.4391 26.2829 36.4391Z" fill="#0096DB"/>
<path d="M37.4204 36.4391C38.6779 36.4391 39.9264 36.4391 41.1839 36.4391C41.8127 36.4391 42.0642 36.6736 42.0642 37.2957C42.0731 39.5587 42.0731 41.8217 42.0642 44.0847C42.0642 44.6888 41.8216 44.9322 41.2198 44.9322C38.6689 44.9412 36.109 44.9412 33.5581 44.9322C32.9563 44.9322 32.7138 44.6888 32.7138 44.0757C32.7048 41.8127 32.7048 39.5497 32.7138 37.2866C32.7138 36.6645 32.9742 36.4391 33.612 36.4391C34.8874 36.4391 36.1539 36.4391 37.4204 36.4391Z" fill="#0096DB"/>
<path d="M59.5013 36.4391C60.7588 36.4391 62.0073 36.4391 63.2648 36.4391C63.9115 36.4391 64.154 36.6736 64.154 37.3407C64.163 39.5767 64.163 41.8036 64.154 44.0396C64.154 44.7068 63.9205 44.9412 63.2648 44.9412C60.7408 44.9412 58.2168 44.9412 55.6928 44.9412C55.0371 44.9412 54.8036 44.7068 54.8036 44.0486C54.7946 41.8127 54.7946 39.5857 54.8036 37.3498C54.8036 36.6736 55.0461 36.4482 55.7378 36.4482C56.9953 36.4391 58.2438 36.4391 59.5013 36.4391Z" fill="#0096DB"/>
<path d="M15.3169 36.4391C16.5924 36.4391 17.8588 36.4391 19.1343 36.4391C19.7451 36.4391 19.9966 36.6736 19.9966 37.2776C20.0056 39.5587 20.0056 41.8397 19.9966 44.1208C19.9966 44.6978 19.7541 44.9412 19.1702 44.9412C16.6103 44.9502 14.0594 44.9502 11.4995 44.9412C10.8977 44.9412 10.6552 44.6978 10.6552 44.0847C10.6462 41.8217 10.6462 39.5497 10.6552 37.2867C10.6552 36.6916 10.9067 36.4482 11.5085 36.4482C12.775 36.4391 14.0414 36.4391 15.3169 36.4391Z" fill="#0096DB"/>
<path d="M48.4203 36.4391C49.6778 36.4391 50.9263 36.4391 52.1838 36.4391C52.8126 36.4391 53.0551 36.6736 53.0551 37.2957C53.0551 39.5587 53.0551 41.8217 53.0551 44.0847C53.0551 44.6797 52.8126 44.9322 52.2108 44.9322C49.6598 44.9412 47.0999 44.9412 44.549 44.9322C43.9472 44.9322 43.7227 44.6797 43.7227 44.0757C43.7227 41.8127 43.7227 39.5497 43.7227 37.2866C43.7227 36.6826 43.9652 36.4482 44.567 36.4391C45.8514 36.4391 47.1359 36.4391 48.4203 36.4391Z" fill="#0096DB"/>
<path d="M48.4023 16C49.6688 16 50.9443 16 52.2108 16C52.8126 16 53.0641 16.2434 53.0641 16.8385C53.0641 19.1195 53.0641 21.3915 53.0641 23.6726C53.0641 24.2406 52.8215 24.493 52.2377 24.493C49.6688 24.502 47.0999 24.502 44.531 24.493C43.9652 24.493 43.7227 24.2316 43.7227 23.6545C43.7227 21.3735 43.7227 19.1015 43.7227 16.8205C43.7227 16.2524 43.9742 16 44.549 16C45.8335 16 47.1179 16 48.4023 16Z" fill="#0096DB"/>
</svg>
