<svg width="96" height="96" viewBox="0 0 96 96" fill="none" xmlns="http://www.w3.org/2000/svg">
<path d="M32.0599 80.8246C31.2875 80.7615 30.515 80.7074 29.7425 80.6443C26.0958 80.3558 22.5209 79.7247 19.0358 78.5706C13.7454 76.8035 9.91 73.3414 7.2962 68.4547C5.40097 64.9205 4.26922 61.1338 3.62251 57.1848C3.21831 54.7865 3.09256 52.3612 3.00274 49.936C2.93088 47.9705 4.2782 46.6632 6.23631 46.6632C25.7545 46.6992 45.2726 46.6902 64.7818 46.6722C66.9824 46.6722 69.1202 46.2484 71.1501 45.3649C71.2849 45.3018 71.4196 45.2386 71.5543 45.1665C71.5903 45.1485 71.6262 45.1214 71.6442 45.1124C68.3747 39.1529 69.731 33.7163 73.2879 28.46C75.4077 29.5058 77.1053 30.9303 78.4885 32.7425C79.8628 34.5457 80.7341 36.5833 81.0844 38.8103C82.1443 38.7201 83.1682 38.6029 84.1922 38.5578C86.4108 38.4677 88.5934 38.6931 90.6413 39.6037C91.4497 39.9643 92.1683 40.5323 92.9048 41.0372C93.0036 41.1003 93.0216 41.3798 92.9767 41.5241C92.0605 44.4543 90.1653 46.6091 87.5515 48.1418C85.1353 49.5573 82.4766 50.0532 79.7191 50.0081C79.2879 49.9991 79.1352 50.1523 78.9915 50.513C77.3209 54.7324 75.3448 58.7896 72.7579 62.5312C67.0363 70.8169 59.2578 76.1453 49.629 78.8411C45.6858 79.9501 41.6618 80.5541 37.566 80.7435C37.3145 80.7525 37.063 80.7976 36.8115 80.8246C35.2306 80.8246 33.6498 80.8246 32.0599 80.8246Z" fill="#D0491E"/>
<path d="M26.2942 34.7261C25.0278 34.7261 23.7523 34.7261 22.4858 34.7261C21.8571 34.7261 21.6056 34.4827 21.5966 33.8696C21.5876 31.6066 21.5876 29.3436 21.5966 27.0806C21.5966 26.4675 21.8391 26.2331 22.4409 26.224C24.9918 26.215 27.5517 26.215 30.1027 26.224C30.7045 26.224 30.938 26.4675 30.947 27.0806C30.956 29.3436 30.956 31.6066 30.947 33.8696C30.947 34.4917 30.6955 34.7261 30.0577 34.7261C28.8003 34.7261 27.5517 34.7261 26.2942 34.7261Z" fill="#D0491E"/>
<path d="M37.4024 26.2148C38.6599 26.2148 39.9084 26.2148 41.1659 26.2148C41.8486 26.2148 42.0731 26.4402 42.0731 27.1435C42.0731 29.3614 42.0731 31.5793 42.0731 33.7973C42.0731 34.4825 41.8306 34.7169 41.1569 34.7259C38.6509 34.7259 36.136 34.7259 33.6299 34.7259C32.9563 34.7259 32.7138 34.4825 32.7138 33.7973C32.7048 31.5793 32.7048 29.3614 32.7138 27.1435C32.7138 26.4493 32.9473 26.2239 33.6299 26.2239C34.8874 26.2148 36.1449 26.2148 37.4024 26.2148Z" fill="#D0491E"/>
<path d="M48.3844 34.7262C47.1269 34.7262 45.8784 34.7262 44.6209 34.7262C43.9652 34.7262 43.7227 34.4917 43.7227 33.8336C43.7227 31.5886 43.7227 29.3346 43.7227 27.0897C43.7227 26.4585 43.9562 26.2241 44.5939 26.2241C47.1179 26.2241 49.6419 26.2241 52.1658 26.2241C52.8305 26.2241 53.0641 26.4585 53.0641 27.1077C53.0641 29.3436 53.0641 31.5706 53.0641 33.8065C53.0641 34.4917 52.8305 34.7171 52.1479 34.7262C50.8904 34.7262 49.6419 34.7262 48.3844 34.7262Z" fill="#D0491E"/>
<path d="M26.2829 36.439C27.5404 36.439 28.7979 36.439 30.0554 36.439C30.7111 36.439 30.9536 36.6734 30.9536 37.3315C30.9536 39.5675 30.9536 41.8035 30.9536 44.0394C30.9536 44.7066 30.7291 44.932 30.0644 44.932C27.5404 44.932 25.0075 44.932 22.4835 44.932C21.8457 44.932 21.6122 44.6976 21.6122 44.0665C21.6032 41.8125 21.6032 39.5675 21.6122 37.3135C21.6122 36.6824 21.8547 36.439 22.4835 36.439C23.741 36.439 25.0075 36.439 26.2829 36.439Z" fill="#D0491E"/>
<path d="M37.4204 36.439C38.6779 36.439 39.9264 36.439 41.1839 36.439C41.8127 36.439 42.0642 36.6734 42.0642 37.2955C42.0731 39.5585 42.0731 41.8215 42.0642 44.0845C42.0642 44.6886 41.8216 44.932 41.2198 44.932C38.6689 44.941 36.109 44.941 33.5581 44.932C32.9563 44.932 32.7138 44.6886 32.7138 44.0755C32.7048 41.8125 32.7048 39.5495 32.7138 37.2865C32.7138 36.6644 32.9742 36.439 33.612 36.439C34.8874 36.439 36.1539 36.439 37.4204 36.439Z" fill="#D0491E"/>
<path d="M59.5013 36.439C60.7588 36.439 62.0073 36.439 63.2648 36.439C63.9115 36.439 64.154 36.6734 64.154 37.3406C64.163 39.5765 64.163 41.8035 64.154 44.0394C64.154 44.7066 63.9205 44.941 63.2648 44.941C60.7408 44.941 58.2168 44.941 55.6928 44.941C55.0371 44.941 54.8036 44.7066 54.8036 44.0484C54.7946 41.8125 54.7946 39.5855 54.8036 37.3496C54.8036 36.6734 55.0461 36.448 55.7378 36.448C56.9953 36.439 58.2438 36.439 59.5013 36.439Z" fill="#D0491E"/>
<path d="M15.3169 36.439C16.5924 36.439 17.8588 36.439 19.1343 36.439C19.7451 36.439 19.9966 36.6734 19.9966 37.2775C20.0056 39.5585 20.0056 41.8395 19.9966 44.1206C19.9966 44.6976 19.7541 44.941 19.1702 44.941C16.6103 44.95 14.0594 44.95 11.4995 44.941C10.8977 44.941 10.6552 44.6976 10.6552 44.0845C10.6462 41.8215 10.6462 39.5495 10.6552 37.2865C10.6552 36.6914 10.9067 36.448 11.5085 36.448C12.775 36.439 14.0414 36.439 15.3169 36.439Z" fill="#D0491E"/>
<path d="M48.4203 36.439C49.6778 36.439 50.9263 36.439 52.1838 36.439C52.8126 36.439 53.0551 36.6734 53.0551 37.2955C53.0551 39.5585 53.0551 41.8215 53.0551 44.0845C53.0551 44.6796 52.8126 44.932 52.2108 44.932C49.6598 44.941 47.0999 44.941 44.549 44.932C43.9472 44.932 43.7227 44.6796 43.7227 44.0755C43.7227 41.8125 43.7227 39.5495 43.7227 37.2865C43.7227 36.6824 43.9652 36.448 44.567 36.439C45.8514 36.439 47.1359 36.439 48.4203 36.439Z" fill="#D0491E"/>
<path d="M48.4023 16C49.6688 16 50.9443 16 52.2108 16C52.8126 16 53.0641 16.2434 53.0641 16.8385C53.0641 19.1195 53.0641 21.3915 53.0641 23.6726C53.0641 24.2406 52.8215 24.493 52.2377 24.493C49.6688 24.502 47.0999 24.502 44.531 24.493C43.9652 24.493 43.7227 24.2316 43.7227 23.6545C43.7227 21.3735 43.7227 19.1015 43.7227 16.8205C43.7227 16.2524 43.9742 16 44.549 16C45.8335 16 47.1179 16 48.4023 16Z" fill="#D0491E"/>
</svg>
