<svg width="96" height="96" viewBox="0 0 96 96" fill="none" xmlns="http://www.w3.org/2000/svg">
<path d="M34 22L61.5 16" stroke="#D0491E" stroke-width="4" stroke-linecap="round"/>
<path d="M33.5 31L81.5 20.5" stroke="#D0491E" stroke-width="4" stroke-linecap="round"/>
<path d="M34 31L82 70" stroke="#D0491E" stroke-width="4" stroke-linecap="round"/>
<path d="M82 70L34 84" stroke="#D0491E" stroke-width="4" stroke-linecap="round"/>
<path d="M81.5 21.5L34 83.5" stroke="#D0491E" stroke-width="4" stroke-linecap="round"/>
<path d="M82 3V80.5" stroke="#D0491E" stroke-width="4" stroke-linecap="round"/>
<path d="M62 3V80.5" stroke="#D0491E" stroke-width="4" stroke-linecap="round"/>
<path d="M62 35H82" stroke="#D0491E" stroke-width="4" stroke-linecap="round"/>
<path d="M62 47H82" stroke="#D0491E" stroke-width="4" stroke-linecap="round"/>
<path d="M62 59H82" stroke="#D0491E" stroke-width="4" stroke-linecap="round"/>
<path d="M33.5 16V93.5" stroke="#D0491E" stroke-width="4" stroke-linecap="round"/>
<path d="M13.5 16V93.5" stroke="#D0491E" stroke-width="4" stroke-linecap="round"/>
<path d="M13.5 24H33.5" stroke="#D0491E" stroke-width="4" stroke-linecap="round"/>
<path d="M13.5 36H33.5" stroke="#D0491E" stroke-width="4" stroke-linecap="round"/>
<path d="M13.5 48H33.5" stroke="#D0491E" stroke-width="4" stroke-linecap="round"/>
<path d="M13.5 60H33.5" stroke="#D0491E" stroke-width="4" stroke-linecap="round"/>
<path d="M13.5 72H33.5" stroke="#D0491E" stroke-width="4" stroke-linecap="round"/>
<path d="M13.5 84H33.5" stroke="#D0491E" stroke-width="4" stroke-linecap="round"/>
</svg>
