<svg xmlns="http://www.w3.org/2000/svg" xmlns:xlink="http://www.w3.org/1999/xlink" width="840" height="429.07"><rect width="840" height="429.07" rx="5" ry="5" class="a"/><svg y="0%" x="0%"><circle cx="20" cy="20" r="6" fill="#ff5f58"/><circle cx="40" cy="20" r="6" fill="#ffbd2e"/><circle cx="60" cy="20" r="6" fill="#18c132"/></svg><svg height="369.07" viewBox="0 0 80 36.907" width="800" x="15" xmlns="http://www.w3.org/2000/svg" xmlns:xlink="http://www.w3.org/1999/xlink" y="50"><style>@keyframes r{0%{transform:translateX(0)}.35%{transform:translateX(-80px)}.89%{transform:translateX(-240px)}.91%{transform:translateX(-400px)}1%{transform:translateX(-560px)}5.65%{transform:translateX(-640px)}5.66%{transform:translateX(-720px)}6.33%{transform:translateX(-800px)}6.34%{transform:translateX(-880px)}7.18%{transform:translateX(-1040px)}7.21%{transform:translateX(-1120px)}10.07%{transform:translateX(-1280px)}11.15%{transform:translateX(-1360px)}12.33%{transform:translateX(-1440px)}12.34%{transform:translateX(-1520px)}14.8%{transform:translateX(-1600px)}16.72%{transform:translateX(-1760px)}17.54%{transform:translateX(-1840px)}18%{transform:translateX(-1920px)}18.23%{transform:translateX(-2000px)}18.24%{transform:translateX(-2080px)}18.74%{transform:translateX(-2240px)}19.21%{transform:translateX(-2480px)}19.6%{transform:translateX(-2640px)}20.06%{transform:translateX(-2720px)}20.53%{transform:translateX(-2800px)}21.1%{transform:translateX(-2880px)}21.46%{transform:translateX(-3040px)}22.28%{transform:translateX(-3120px)}22.87%{transform:translateX(-3200px)}28.75%{transform:translateX(-3280px)}34.07%{transform:translateX(-3360px)}38.2%{transform:translateX(-3440px)}38.76%{transform:translateX(-3520px)}39.15%{transform:translateX(-3600px)}39.62%{transform:translateX(-3680px)}40.01%{transform:translateX(-3760px)}40.61%{transform:translateX(-3840px)}41.01%{transform:translateX(-3920px)}41.62%{transform:translateX(-4000px)}42.38%{transform:translateX(-4080px)}43.11%{transform:translateX(-4160px)}45.94%{transform:translateX(-4320px)}45.95%{transform:translateX(-4400px)}51.05%{transform:translateX(-4480px)}52.06%{transform:translateX(-4640px)}57.52%{transform:translateX(-4720px)}58.92%{transform:translateX(-4800px)}59.52%{transform:translateX(-4880px)}60.2%{transform:translateX(-4960px)}61.09%{transform:translateX(-5040px)}61.58%{transform:translateX(-5120px)}63.56%{transform:translateX(-5200px)}63.69%{transform:translateX(-5440px)}82.09%{transform:translateX(-5520px)}82.43%{transform:translateX(-5680px)}82.8%{transform:translateX(-5840px)}82.81%{transform:translateX(-5920px)}to{transform:translateX(-6160px)}}.a{fill:#282d35}.f,.g,.h,.i,.j{fill:#b9c0cb;white-space:pre}.g,.h,.i,.j{fill:#66c2cd;font-weight:700}.h,.i,.j{fill:#d290e4}.i,.j{fill:#e88388}.j{fill:#a8cc8c}.k,.l,.m,.n,.t,.u{fill:#005fd7;white-space:pre}.l,.m,.n,.t,.u{fill:#555}.m,.n,.t,.u{fill:#00afff}.n,.t,.u{fill:#66c2cd}.t,.u{fill:red}.u{fill:#00afff;text-decoration:underline}</style><g font-family="Monaco,Consolas,Menlo,'Bitstream Vera Sans Mono','Powerline Symbols',monospace" font-size="1.67"><defs><symbol id="1"><text y="1.67" class="f">Welcome</text><text x="8.016" y="1.67" class="f">to</text><text x="11.022" y="1.67" class="f">fish,</text><text x="17.034" y="1.67" class="f">the</text><text x="21.042" y="1.67" class="f">friendly</text><text x="30.06" y="1.67" class="f">interactive</text><text x="42.084" y="1.67" class="f">shell</text></symbol><symbol id="2"><text y="1.67" class="f">Type</text><text x="5.01" y="1.67" class="f">`help`</text><text x="12.024" y="1.67" class="f">for</text><text x="16.032" y="1.67" class="f">instructions</text><text x="29.058" y="1.67" class="f">on</text><text x="32.064" y="1.67" class="f">how</text><text x="36.072" y="1.67" class="f">to</text><text x="39.078" y="1.67" class="f">use</text><text x="43.086" y="1.67" class="f">fish</text></symbol><symbol id="3"><text y="1.67" class="g">hello-world</text><text x="12.024" y="1.67" class="f">on</text><text x="15.03" y="1.67" class="h"></text><text x="17.034" y="1.67" class="h">main</text><text x="22.044" y="1.67" class="i">[?]</text><text x="26.052" y="1.67" class="f">via</text><text x="30.06" y="1.67" class="j"></text><text x="32.064" y="1.67" class="j">v14.18.1</text></symbol><symbol id="4"><text y="1.67" class="j">❯</text></symbol><symbol id="5"><text y="1.67" class="j">❯</text><text x="2.004" y="1.67" class="k">.</text></symbol><symbol id="6"><text y="1.67" class="j">❯</text><text x="2.004" y="1.67" class="k">./</text></symbol><symbol id="7"><text y="1.67" class="j">❯</text><text x="2.004" y="1.67" class="k">../phab</text><text x="10.02" y="1.67" class="l">docker</text><text x="17.034" y="1.67" class="l">run</text><text x="21.042" y="1.67" class="l">--config</text><text x="30.06" y="1.67" class="l">dockerized</text></symbol><symbol id="8"><text y="1.67" class="j">❯</text><text x="2.004" y="1.67" class="k">../phab</text><text x="10.02" y="1.67" class="m">shell</text></symbol><symbol id="9"><text y="1.67" class="j">❯</text><text x="2.004" y="1.67" class="k">../phab</text><text x="10.02" y="1.67" class="m">shell</text><text x="16.032" y="1.67" class="m">-</text></symbol><symbol id="10"><text y="1.67" class="j">❯</text><text x="2.004" y="1.67" class="k">../phab</text><text x="10.02" y="1.67" class="m">shell</text><text x="16.032" y="1.67" class="m">-c</text></symbol><symbol id="11"><text y="1.67" class="j">❯</text><text x="2.004" y="1.67" class="k">../phab</text><text x="10.02" y="1.67" class="m">shell</text><text x="16.032" y="1.67" class="m">-cdockerized</text></symbol><symbol id="12"><text y="1.67" class="n">Starting</text><text x="9.018" y="1.67" class="n">shell</text><text x="15.03" y="1.67" class="n">on</text><text x="18.036" y="1.67" class="n">`dockerized`</text></symbol><symbol id="13"><text y="1.67" class="f">root@580a1398649a:/app#</text></symbol><symbol id="14"><text y="1.67" class="f">root@580a1398649a:/app#</text><text x="24.048" y="1.67" class="f">ls</text></symbol><symbol id="15"><text y="1.67" class="f">root@580a1398649a:/app#</text><text x="24.048" y="1.67" class="f">ls</text><text x="27.054" y="1.67" class="f">-la</text></symbol><symbol id="16"><text y="1.67" class="f">total</text><text x="6.012" y="1.67" class="f">428</text></symbol><symbol id="17"><text y="1.67" class="f">drwxr-xr-x</text><text x="11.022" y="1.67" class="f">1</text><text x="13.026" y="1.67" class="f">root</text><text x="18.036" y="1.67" class="f">root</text><text x="25.05" y="1.67" class="f">4096</text><text x="30.06" y="1.67" class="f">Jan</text><text x="34.068" y="1.67" class="f">13</text><text x="37.074" y="1.67" class="f">21:37</text><text x="43.086" y="1.67" class="f">.</text></symbol><symbol id="18"><text y="1.67" class="f">drwxr-xr-x</text><text x="11.022" y="1.67" class="f">1</text><text x="13.026" y="1.67" class="f">root</text><text x="18.036" y="1.67" class="f">root</text><text x="25.05" y="1.67" class="f">4096</text><text x="30.06" y="1.67" class="f">Jan</text><text x="34.068" y="1.67" class="f">13</text><text x="37.074" y="1.67" class="f">21:38</text><text x="43.086" y="1.67" class="f">..</text></symbol><symbol id="19"><text y="1.67" class="f">-rw-r--r--</text><text x="11.022" y="1.67" class="f">1</text><text x="13.026" y="1.67" class="f">root</text><text x="18.036" y="1.67" class="f">root</text><text x="26.052" y="1.67" class="f">832</text><text x="30.06" y="1.67" class="f">Jan</text><text x="34.068" y="1.67" class="f">13</text><text x="37.074" y="1.67" class="f">21:36</text><text x="43.086" y="1.67" class="f">.fabfile.yaml</text></symbol><symbol id="20"><text y="1.67" class="f">drwxr-xr-x</text><text x="11.022" y="1.67" class="f">1</text><text x="13.026" y="1.67" class="f">root</text><text x="18.036" y="1.67" class="f">root</text><text x="25.05" y="1.67" class="f">4096</text><text x="30.06" y="1.67" class="f">Jan</text><text x="34.068" y="1.67" class="f">13</text><text x="37.074" y="1.67" class="f">20:59</text><text x="43.086" y="1.67" class="f">.git</text></symbol><symbol id="21"><text y="1.67" class="f">-rw-r--r--</text><text x="11.022" y="1.67" class="f">1</text><text x="13.026" y="1.67" class="f">root</text><text x="18.036" y="1.67" class="f">root</text><text x="26.052" y="1.67" class="f">231</text><text x="30.06" y="1.67" class="f">Jan</text><text x="34.068" y="1.67" class="f">13</text><text x="37.074" y="1.67" class="f">20:58</text><text x="43.086" y="1.67" class="f">.gitignore</text></symbol><symbol id="22"><text y="1.67" class="f">-rw-r--r--</text><text x="11.022" y="1.67" class="f">1</text><text x="13.026" y="1.67" class="f">root</text><text x="18.036" y="1.67" class="f">root</text><text x="27.054" y="1.67" class="f">70</text><text x="30.06" y="1.67" class="f">Jan</text><text x="34.068" y="1.67" class="f">13</text><text x="37.074" y="1.67" class="f">21:31</text><text x="43.086" y="1.67" class="f">Dockerfile</text></symbol><symbol id="23"><text y="1.67" class="f">-rw-r--r--</text><text x="11.022" y="1.67" class="f">1</text><text x="13.026" y="1.67" class="f">root</text><text x="18.036" y="1.67" class="f">root</text><text x="26.052" y="1.67" class="f">315</text><text x="30.06" y="1.67" class="f">Jan</text><text x="34.068" y="1.67" class="f">13</text><text x="37.074" y="1.67" class="f">20:59</text><text x="43.086" y="1.67" class="f">README.md</text></symbol><symbol id="24"><text y="1.67" class="f">-rw-r--r--</text><text x="11.022" y="1.67" class="f">1</text><text x="13.026" y="1.67" class="f">root</text><text x="18.036" y="1.67" class="f">root</text><text x="27.054" y="1.67" class="f">73</text><text x="30.06" y="1.67" class="f">Jan</text><text x="34.068" y="1.67" class="f">13</text><text x="37.074" y="1.67" class="f">20:58</text><text x="43.086" y="1.67" class="f">babel.config.js</text></symbol><symbol id="25"><text y="1.67" class="f">drwxr-xr-x</text><text x="11.022" y="1.67" class="f">5</text><text x="13.026" y="1.67" class="f">root</text><text x="18.036" y="1.67" class="f">root</text><text x="25.05" y="1.67" class="f">4096</text><text x="30.06" y="1.67" class="f">Jan</text><text x="34.068" y="1.67" class="f">13</text><text x="37.074" y="1.67" class="f">21:07</text><text x="43.086" y="1.67" class="f">dist</text></symbol><symbol id="26"><text y="1.67" class="f">drwxr-xr-x</text><text x="11.022" y="1.67" class="f">1</text><text x="13.026" y="1.67" class="f">root</text><text x="18.036" y="1.67" class="f">root</text><text x="25.05" y="1.67" class="f">4096</text><text x="30.06" y="1.67" class="f">Jan</text><text x="34.068" y="1.67" class="f">13</text><text x="37.074" y="1.67" class="f">21:38</text><text x="43.086" y="1.67" class="f">node_modules</text></symbol><symbol id="27"><text y="1.67" class="f">-rw-r--r--</text><text x="11.022" y="1.67" class="f">1</text><text x="13.026" y="1.67" class="f">root</text><text x="18.036" y="1.67" class="f">root</text><text x="26.052" y="1.67" class="f">856</text><text x="30.06" y="1.67" class="f">Jan</text><text x="34.068" y="1.67" class="f">13</text><text x="37.074" y="1.67" class="f">20:58</text><text x="43.086" y="1.67" class="f">package.json</text></symbol><symbol id="28"><text y="1.67" class="f">drwxr-xr-x</text><text x="11.022" y="1.67" class="f">2</text><text x="13.026" y="1.67" class="f">root</text><text x="18.036" y="1.67" class="f">root</text><text x="25.05" y="1.67" class="f">4096</text><text x="30.06" y="1.67" class="f">Jan</text><text x="34.068" y="1.67" class="f">13</text><text x="37.074" y="1.67" class="f">20:58</text><text x="43.086" y="1.67" class="f">public</text></symbol><symbol id="29"><text y="1.67" class="f">drwxr-xr-x</text><text x="11.022" y="1.67" class="f">4</text><text x="13.026" y="1.67" class="f">root</text><text x="18.036" y="1.67" class="f">root</text><text x="25.05" y="1.67" class="f">4096</text><text x="30.06" y="1.67" class="f">Jan</text><text x="34.068" y="1.67" class="f">13</text><text x="37.074" y="1.67" class="f">20:58</text><text x="43.086" y="1.67" class="f">src</text></symbol><symbol id="30"><text y="1.67" class="f">-rw-r--r--</text><text x="11.022" y="1.67" class="f">1</text><text x="13.026" y="1.67" class="f">root</text><text x="18.036" y="1.67" class="f">root</text><text x="23.046" y="1.67" class="f">377546</text><text x="30.06" y="1.67" class="f">Jan</text><text x="34.068" y="1.67" class="f">13</text><text x="37.074" y="1.67" class="f">20:59</text><text x="43.086" y="1.67" class="f">yarn.lock</text></symbol><symbol id="31"><text y="1.67" class="f">root@580a1398649a:/app#</text><text x="24.048" y="1.67" class="f">exit</text></symbol><symbol id="32"><text y="1.67" class="g">hello-world</text><text x="12.024" y="1.67" class="f">on</text><text x="15.03" y="1.67" class="h"></text><text x="17.034" y="1.67" class="h">main</text><text x="22.044" y="1.67" class="i">[?]</text><text x="26.052" y="1.67" class="f">via</text><text x="30.06" y="1.67" class="j"></text><text x="32.064" y="1.67" class="j">v14.18.1</text><text x="41.082" y="1.67" class="f">took</text><text x="46.092" y="1.67" style="white-space:pre" fill="#dbab79" font-weight="700">8s</text></symbol><symbol id="a"><path fill="transparent" d="M0 0h80v17H0z"/></symbol><symbol id="b"><path fill="#6f7683" d="M0 0h1.102v2.171H0z"/></symbol></defs><path class="a" d="M0 0h80v36.907H0z"/><g style="animation-duration:22.42072s;animation-iteration-count:infinite;animation-name:r;animation-timing-function:steps(1,end)"><svg width="6240"><svg><use xlink:href="#a"/><use xlink:href="#b" x="-.004"/></svg><svg x="80"><use xlink:href="#a"/><use xlink:href="#b" x="-.004"/></svg><svg x="160"><use xlink:href="#a"/><use xlink:href="#b" x="-.004" y="4.317"/><use xlink:href="#1"/><use xlink:href="#2" y="2.171"/></svg><svg x="240"><use xlink:href="#a"/><use xlink:href="#b" x="-.004" y="4.317"/><use xlink:href="#1"/><use xlink:href="#2" y="2.171"/></svg><svg x="320"><use xlink:href="#a"/><use xlink:href="#b" x="-.004" y="4.317"/><use xlink:href="#1"/><use xlink:href="#2" y="2.171"/></svg><svg x="400"><use xlink:href="#a"/><use xlink:href="#b" x="-.004" y="4.317"/><use xlink:href="#1"/><use xlink:href="#2" y="2.171"/></svg><svg x="480"><use xlink:href="#a"/><use xlink:href="#b" x="-.004" y="4.317"/><use xlink:href="#1"/><use xlink:href="#2" y="2.171"/></svg><svg x="560"><use xlink:href="#a"/><use xlink:href="#b" x="1.996" y="8.659"/><use xlink:href="#1"/><use xlink:href="#2" y="2.171"/><use xlink:href="#3" y="6.513"/><use xlink:href="#4" y="8.684"/></svg><svg x="640"><use xlink:href="#a"/><use xlink:href="#b" x="2.996" y="8.659"/><use xlink:href="#1"/><use xlink:href="#2" y="2.171"/><use xlink:href="#3" y="6.513"/><use xlink:href="#5" y="8.684"/></svg><svg x="720"><use xlink:href="#a"/><use xlink:href="#b" x="2.996" y="8.659"/><use xlink:href="#1"/><use xlink:href="#2" y="2.171"/><use xlink:href="#3" y="6.513"/><text y="10.354" class="j">❯</text><text x="2.004" y="10.354" class="k">.</text><text x="3.006" y="10.354" class="l">./phab</text><text x="10.02" y="10.354" class="l">docker</text><text x="17.034" y="10.354" class="l">run</text><text x="21.042" y="10.354" class="l">--config</text><text x="30.06" y="10.354" class="l">dockerized</text></svg><svg x="800"><use xlink:href="#a"/><use xlink:href="#b" x="3.996" y="8.659"/><use xlink:href="#1"/><use xlink:href="#2" y="2.171"/><use xlink:href="#3" y="6.513"/><use xlink:href="#6" y="8.684"/></svg><svg x="880"><use xlink:href="#a"/><use xlink:href="#b" x="3.996" y="8.659"/><use xlink:href="#1"/><use xlink:href="#2" y="2.171"/><use xlink:href="#3" y="6.513"/><text y="10.354" class="j">❯</text><text x="2.004" y="10.354" class="k">./</text><text x="4.008" y="10.354" class="l">dist/</text></svg><svg x="960"><use xlink:href="#a"/><use xlink:href="#b" x="4.996" y="8.659"/><use xlink:href="#1"/><use xlink:href="#2" y="2.171"/><use xlink:href="#3" y="6.513"/><text y="10.354" class="j">❯</text><text x="2.004" y="10.354" class="k">./p</text></svg><svg x="1040"><use xlink:href="#a"/><use xlink:href="#b" x="4.996" y="8.659"/><use xlink:href="#1"/><use xlink:href="#2" y="2.171"/><use xlink:href="#3" y="6.513"/><text y="10.354" class="j">❯</text><text x="2.004" y="10.354" class="t">./p</text></svg><svg x="1120"><use xlink:href="#a"/><use xlink:href="#b" x="4.996" y="8.659"/><use xlink:href="#1"/><use xlink:href="#2" y="2.171"/><use xlink:href="#3" y="6.513"/><text y="10.354" class="j">❯</text><text x="2.004" y="10.354" class="t">./p</text><text x="5.01" y="10.354" class="l">ublic/</text></svg><svg x="1200"><use xlink:href="#a"/><use xlink:href="#b" x="3.996" y="8.659"/><use xlink:href="#1"/><use xlink:href="#2" y="2.171"/><use xlink:href="#3" y="6.513"/><text y="10.354" class="j">❯</text><text x="2.004" y="10.354" class="t">./</text></svg><svg x="1280"><use xlink:href="#a"/><use xlink:href="#b" x="3.996" y="8.659"/><use xlink:href="#1"/><use xlink:href="#2" y="2.171"/><use xlink:href="#3" y="6.513"/><use xlink:href="#6" y="8.684"/></svg><svg x="1360"><use xlink:href="#a"/><use xlink:href="#b" x="2.996" y="8.659"/><use xlink:href="#1"/><use xlink:href="#2" y="2.171"/><use xlink:href="#3" y="6.513"/><use xlink:href="#5" y="8.684"/></svg><svg x="1440"><use xlink:href="#a"/><use xlink:href="#b" x="3.996" y="8.659"/><use xlink:href="#1"/><use xlink:href="#2" y="2.171"/><use xlink:href="#3" y="6.513"/><text y="10.354" class="j">❯</text><text x="2.004" y="10.354" class="k">..</text></svg><svg x="1520"><use xlink:href="#a"/><use xlink:href="#b" x="3.996" y="8.659"/><use xlink:href="#1"/><use xlink:href="#2" y="2.171"/><use xlink:href="#3" y="6.513"/><text y="10.354" class="j">❯</text><text x="2.004" y="10.354" class="k">..</text><text x="4.008" y="10.354" class="l">/phab</text><text x="10.02" y="10.354" class="l">docker</text><text x="17.034" y="10.354" class="l">run</text><text x="21.042" y="10.354" class="l">--config</text><text x="30.06" y="10.354" class="l">dockerized</text></svg><svg x="1600"><use xlink:href="#a"/><use xlink:href="#b" x="4.996" y="8.659"/><use xlink:href="#1"/><use xlink:href="#2" y="2.171"/><use xlink:href="#3" y="6.513"/><text y="10.354" class="j">❯</text><text x="2.004" y="10.354" class="k">../</text><text x="5.01" y="10.354" class="l">phab</text><text x="10.02" y="10.354" class="l">docker</text><text x="17.034" y="10.354" class="l">run</text><text x="21.042" y="10.354" class="l">--config</text><text x="30.06" y="10.354" class="l">dockerized</text></svg><svg x="1680"><use xlink:href="#a"/><use xlink:href="#b" x="5.996" y="8.659"/><use xlink:href="#1"/><use xlink:href="#2" y="2.171"/><use xlink:href="#3" y="6.513"/><text y="10.354" class="j">❯</text><text x="2.004" y="10.354" class="k">../p</text><text x="6.012" y="10.354" class="l">hab</text><text x="10.02" y="10.354" class="l">docker</text><text x="17.034" y="10.354" class="l">run</text><text x="21.042" y="10.354" class="l">--config</text><text x="30.06" y="10.354" class="l">dockerized</text></svg><svg x="1760"><use xlink:href="#a"/><use xlink:href="#b" x="5.996" y="8.659"/><use xlink:href="#1"/><use xlink:href="#2" y="2.171"/><use xlink:href="#3" y="6.513"/><text y="10.354" class="j">❯</text><text x="2.004" y="10.354" class="t">../p</text><text x="6.012" y="10.354" class="l">hab</text><text x="10.02" y="10.354" class="l">docker</text><text x="17.034" y="10.354" class="l">run</text><text x="21.042" y="10.354" class="l">--config</text><text x="30.06" y="10.354" class="l">dockerized</text></svg><svg x="1840"><use xlink:href="#a"/><use xlink:href="#b" x="6.996" y="8.659"/><use xlink:href="#1"/><use xlink:href="#2" y="2.171"/><use xlink:href="#3" y="6.513"/><text y="10.354" class="j">❯</text><text x="2.004" y="10.354" class="t">../ph</text><text x="7.014" y="10.354" class="l">ab</text><text x="10.02" y="10.354" class="l">docker</text><text x="17.034" y="10.354" class="l">run</text><text x="21.042" y="10.354" class="l">--config</text><text x="30.06" y="10.354" class="l">dockerized</text></svg><svg x="1920"><use xlink:href="#a"/><use xlink:href="#b" x="7.996" y="8.659"/><use xlink:href="#1"/><use xlink:href="#2" y="2.171"/><use xlink:href="#3" y="6.513"/><text y="10.354" class="j">❯</text><text x="2.004" y="10.354" class="t">../pha</text><text x="8.016" y="10.354" class="l">b</text><text x="10.02" y="10.354" class="l">docker</text><text x="17.034" y="10.354" class="l">run</text><text x="21.042" y="10.354" class="l">--config</text><text x="30.06" y="10.354" class="l">dockerized</text></svg><svg x="2000"><use xlink:href="#a"/><use xlink:href="#b" x="8.996" y="8.659"/><use xlink:href="#1"/><use xlink:href="#2" y="2.171"/><use xlink:href="#3" y="6.513"/><text y="10.354" class="j">❯</text><text x="2.004" y="10.354" class="t">../phab</text><text x="10.02" y="10.354" class="l">docker</text><text x="17.034" y="10.354" class="l">run</text><text x="21.042" y="10.354" class="l">--config</text><text x="30.06" y="10.354" class="l">dockerized</text></svg><svg x="2080"><use xlink:href="#a"/><use xlink:href="#b" x="8.996" y="8.659"/><use xlink:href="#1"/><use xlink:href="#2" y="2.171"/><use xlink:href="#3" y="6.513"/><use xlink:href="#7" y="8.684"/></svg><svg x="2160"><use xlink:href="#a"/><use xlink:href="#b" x="9.996" y="8.659"/><use xlink:href="#1"/><use xlink:href="#2" y="2.171"/><use xlink:href="#3" y="6.513"/><use xlink:href="#7" y="8.684"/></svg><svg x="2240"><use xlink:href="#a"/><use xlink:href="#b" x="9.996" y="8.659"/><use xlink:href="#1"/><use xlink:href="#2" y="2.171"/><use xlink:href="#3" y="6.513"/><use xlink:href="#7" y="8.684"/></svg><svg x="2320"><use xlink:href="#a"/><use xlink:href="#b" x="10.996" y="8.659"/><use xlink:href="#1"/><use xlink:href="#2" y="2.171"/><use xlink:href="#3" y="6.513"/><text y="10.354" class="j">❯</text><text x="2.004" y="10.354" class="k">../phab</text><text x="10.02" y="10.354" class="f">s</text></svg><svg x="2400"><use xlink:href="#a"/><use xlink:href="#b" x="10.996" y="8.659"/><use xlink:href="#1"/><use xlink:href="#2" y="2.171"/><use xlink:href="#3" y="6.513"/><text y="10.354" class="j">❯</text><text x="2.004" y="10.354" class="k">../phab</text><text x="10.02" y="10.354" class="f">s</text><text x="11.022" y="10.354" class="l">cript</text><text x="17.034" y="10.354" class="l">serve</text><text x="23.046" y="10.354" class="l">--config</text><text x="32.064" y="10.354" class="l">local</text></svg><svg x="2480"><use xlink:href="#a"/><use xlink:href="#b" x="10.996" y="8.659"/><use xlink:href="#1"/><use xlink:href="#2" y="2.171"/><use xlink:href="#3" y="6.513"/><text y="10.354" class="j">❯</text><text x="2.004" y="10.354" class="k">../phab</text><text x="10.02" y="10.354" class="u">s</text><text x="11.022" y="10.354" class="l">cript</text><text x="17.034" y="10.354" class="l">serve</text><text x="23.046" y="10.354" class="l">--config</text><text x="32.064" y="10.354" class="l">local</text></svg><svg x="2560"><use xlink:href="#a"/><use xlink:href="#b" x="11.996" y="8.659"/><use xlink:href="#1"/><use xlink:href="#2" y="2.171"/><use xlink:href="#3" y="6.513"/><text y="10.354" class="j">❯</text><text x="2.004" y="10.354" class="k">../phab</text><text x="10.02" y="10.354" class="u">sh</text></svg><svg x="2640"><use xlink:href="#a"/><use xlink:href="#b" x="11.996" y="8.659"/><use xlink:href="#1"/><use xlink:href="#2" y="2.171"/><use xlink:href="#3" y="6.513"/><text y="10.354" class="j">❯</text><text x="2.004" y="10.354" class="k">../phab</text><text x="10.02" y="10.354" class="m">sh</text></svg><svg x="2720"><use xlink:href="#a"/><use xlink:href="#b" x="12.996" y="8.659"/><use xlink:href="#1"/><use xlink:href="#2" y="2.171"/><use xlink:href="#3" y="6.513"/><text y="10.354" class="j">❯</text><text x="2.004" y="10.354" class="k">../phab</text><text x="10.02" y="10.354" class="m">she</text></svg><svg x="2800"><use xlink:href="#a"/><use xlink:href="#b" x="13.996" y="8.659"/><use xlink:href="#1"/><use xlink:href="#2" y="2.171"/><use xlink:href="#3" y="6.513"/><text y="10.354" class="j">❯</text><text x="2.004" y="10.354" class="k">../phab</text><text x="10.02" y="10.354" class="m">shel</text></svg><svg x="2880"><use xlink:href="#a"/><use xlink:href="#b" x="14.996" y="8.659"/><use xlink:href="#1"/><use xlink:href="#2" y="2.171"/><use xlink:href="#3" y="6.513"/><use xlink:href="#8" y="8.684"/></svg><svg x="2960"><use xlink:href="#a"/><use xlink:href="#b" x="15.996" y="8.659"/><use xlink:href="#1"/><use xlink:href="#2" y="2.171"/><use xlink:href="#3" y="6.513"/><use xlink:href="#8" y="8.684"/></svg><svg x="3040"><use xlink:href="#a"/><use xlink:href="#b" x="15.996" y="8.659"/><use xlink:href="#1"/><use xlink:href="#2" y="2.171"/><use xlink:href="#3" y="6.513"/><use xlink:href="#8" y="8.684"/></svg><svg x="3120"><use xlink:href="#a"/><use xlink:href="#b" x="16.996" y="8.659"/><use xlink:href="#1"/><use xlink:href="#2" y="2.171"/><use xlink:href="#3" y="6.513"/><use xlink:href="#9" y="8.684"/></svg><svg x="3200"><use xlink:href="#a"/><use xlink:href="#b" x="17.996" y="8.659"/><use xlink:href="#1"/><use xlink:href="#2" y="2.171"/><use xlink:href="#3" y="6.513"/><use xlink:href="#10" y="8.684"/></svg><svg x="3280"><use xlink:href="#a"/><use xlink:href="#b" x="16.996" y="8.659"/><use xlink:href="#1"/><use xlink:href="#2" y="2.171"/><use xlink:href="#3" y="6.513"/><use xlink:href="#9" y="8.684"/></svg><svg x="3360"><use xlink:href="#a"/><use xlink:href="#b" x="17.996" y="8.659"/><use xlink:href="#1"/><use xlink:href="#2" y="2.171"/><use xlink:href="#3" y="6.513"/><use xlink:href="#10" y="8.684"/></svg><svg x="3440"><use xlink:href="#a"/><use xlink:href="#b" x="18.996" y="8.659"/><use xlink:href="#1"/><use xlink:href="#2" y="2.171"/><use xlink:href="#3" y="6.513"/><text y="10.354" class="j">❯</text><text x="2.004" y="10.354" class="k">../phab</text><text x="10.02" y="10.354" class="m">shell</text><text x="16.032" y="10.354" class="m">-cd</text></svg><svg x="3520"><use xlink:href="#a"/><use xlink:href="#b" x="19.996" y="8.659"/><use xlink:href="#1"/><use xlink:href="#2" y="2.171"/><use xlink:href="#3" y="6.513"/><text y="10.354" class="j">❯</text><text x="2.004" y="10.354" class="k">../phab</text><text x="10.02" y="10.354" class="m">shell</text><text x="16.032" y="10.354" class="m">-cdo</text></svg><svg x="3600"><use xlink:href="#a"/><use xlink:href="#b" x="20.996" y="8.659"/><use xlink:href="#1"/><use xlink:href="#2" y="2.171"/><use xlink:href="#3" y="6.513"/><text y="10.354" class="j">❯</text><text x="2.004" y="10.354" class="k">../phab</text><text x="10.02" y="10.354" class="m">shell</text><text x="16.032" y="10.354" class="m">-cdoc</text></svg><svg x="3680"><use xlink:href="#a"/><use xlink:href="#b" x="21.996" y="8.659"/><use xlink:href="#1"/><use xlink:href="#2" y="2.171"/><use xlink:href="#3" y="6.513"/><text y="10.354" class="j">❯</text><text x="2.004" y="10.354" class="k">../phab</text><text x="10.02" y="10.354" class="m">shell</text><text x="16.032" y="10.354" class="m">-cdock</text></svg><svg x="3760"><use xlink:href="#a"/><use xlink:href="#b" x="22.996" y="8.659"/><use xlink:href="#1"/><use xlink:href="#2" y="2.171"/><use xlink:href="#3" y="6.513"/><text y="10.354" class="j">❯</text><text x="2.004" y="10.354" class="k">../phab</text><text x="10.02" y="10.354" class="m">shell</text><text x="16.032" y="10.354" class="m">-cdocke</text></svg><svg x="3840"><use xlink:href="#a"/><use xlink:href="#b" x="23.996" y="8.659"/><use xlink:href="#1"/><use xlink:href="#2" y="2.171"/><use xlink:href="#3" y="6.513"/><text y="10.354" class="j">❯</text><text x="2.004" y="10.354" class="k">../phab</text><text x="10.02" y="10.354" class="m">shell</text><text x="16.032" y="10.354" class="m">-cdocker</text></svg><svg x="3920"><use xlink:href="#a"/><use xlink:href="#b" x="24.996" y="8.659"/><use xlink:href="#1"/><use xlink:href="#2" y="2.171"/><use xlink:href="#3" y="6.513"/><text y="10.354" class="j">❯</text><text x="2.004" y="10.354" class="k">../phab</text><text x="10.02" y="10.354" class="m">shell</text><text x="16.032" y="10.354" class="m">-cdockeri</text></svg><svg x="4000"><use xlink:href="#a"/><use xlink:href="#b" x="25.996" y="8.659"/><use xlink:href="#1"/><use xlink:href="#2" y="2.171"/><use xlink:href="#3" y="6.513"/><text y="10.354" class="j">❯</text><text x="2.004" y="10.354" class="k">../phab</text><text x="10.02" y="10.354" class="m">shell</text><text x="16.032" y="10.354" class="m">-cdockeriz</text></svg><svg x="4080"><use xlink:href="#a"/><use xlink:href="#b" x="26.996" y="8.659"/><use xlink:href="#1"/><use xlink:href="#2" y="2.171"/><use xlink:href="#3" y="6.513"/><text y="10.354" class="j">❯</text><text x="2.004" y="10.354" class="k">../phab</text><text x="10.02" y="10.354" class="m">shell</text><text x="16.032" y="10.354" class="m">-cdockerize</text></svg><svg x="4160"><use xlink:href="#a"/><use xlink:href="#b" x="27.996" y="8.659"/><use xlink:href="#1"/><use xlink:href="#2" y="2.171"/><use xlink:href="#3" y="6.513"/><use xlink:href="#11" y="8.684"/></svg><svg x="4240"><use xlink:href="#a"/><use xlink:href="#b" x="-.004" y="10.83"/><use xlink:href="#1"/><use xlink:href="#2" y="2.171"/><use xlink:href="#3" y="6.513"/><use xlink:href="#11" y="8.684"/></svg><svg x="4320"><use xlink:href="#a"/><use xlink:href="#b" x="-.004" y="10.83"/><use xlink:href="#1"/><use xlink:href="#2" y="2.171"/><use xlink:href="#3" y="6.513"/><use xlink:href="#11" y="8.684"/></svg><svg x="4400"><use xlink:href="#a"/><use xlink:href="#b" x="-.004" y="10.83"/><use xlink:href="#1"/><use xlink:href="#2" y="2.171"/><use xlink:href="#3" y="6.513"/><use xlink:href="#11" y="8.684"/></svg><svg x="4480"><use xlink:href="#a"/><use xlink:href="#b" x="-.004" y="13.001"/><use xlink:href="#1"/><use xlink:href="#2" y="2.171"/><use xlink:href="#3" y="6.513"/><use xlink:href="#11" y="8.684"/><use xlink:href="#12" y="10.855"/></svg><svg x="4560"><use xlink:href="#a"/><use xlink:href="#b" x="23.996" y="13.001"/><use xlink:href="#1"/><use xlink:href="#2" y="2.171"/><use xlink:href="#3" y="6.513"/><use xlink:href="#11" y="8.684"/><use xlink:href="#12" y="10.855"/><use xlink:href="#13" y="13.026"/></svg><svg x="4640"><use xlink:href="#a"/><use xlink:href="#b" x="23.996" y="13.001"/><use xlink:href="#1"/><use xlink:href="#2" y="2.171"/><use xlink:href="#3" y="6.513"/><use xlink:href="#11" y="8.684"/><use xlink:href="#12" y="10.855"/><use xlink:href="#13" y="13.026"/></svg><svg x="4720"><use xlink:href="#a"/><use xlink:href="#b" x="24.996" y="13.001"/><use xlink:href="#1"/><use xlink:href="#2" y="2.171"/><use xlink:href="#3" y="6.513"/><use xlink:href="#11" y="8.684"/><use xlink:href="#12" y="10.855"/><text y="14.696" class="f">root@580a1398649a:/app#</text><text x="24.048" y="14.696" class="f">l</text></svg><svg x="4800"><use xlink:href="#a"/><use xlink:href="#b" x="25.996" y="13.001"/><use xlink:href="#1"/><use xlink:href="#2" y="2.171"/><use xlink:href="#3" y="6.513"/><use xlink:href="#11" y="8.684"/><use xlink:href="#12" y="10.855"/><use xlink:href="#14" y="13.026"/></svg><svg x="4880"><use xlink:href="#a"/><use xlink:href="#b" x="26.996" y="13.001"/><use xlink:href="#1"/><use xlink:href="#2" y="2.171"/><use xlink:href="#3" y="6.513"/><use xlink:href="#11" y="8.684"/><use xlink:href="#12" y="10.855"/><use xlink:href="#14" y="13.026"/></svg><svg x="4960"><use xlink:href="#a"/><use xlink:href="#b" x="27.996" y="13.001"/><use xlink:href="#1"/><use xlink:href="#2" y="2.171"/><use xlink:href="#3" y="6.513"/><use xlink:href="#11" y="8.684"/><use xlink:href="#12" y="10.855"/><text y="14.696" class="f">root@580a1398649a:/app#</text><text x="24.048" y="14.696" class="f">ls</text><text x="27.054" y="14.696" class="f">-</text></svg><svg x="5040"><use xlink:href="#a"/><use xlink:href="#b" x="28.996" y="13.001"/><use xlink:href="#1"/><use xlink:href="#2" y="2.171"/><use xlink:href="#3" y="6.513"/><use xlink:href="#11" y="8.684"/><use xlink:href="#12" y="10.855"/><text y="14.696" class="f">root@580a1398649a:/app#</text><text x="24.048" y="14.696" class="f">ls</text><text x="27.054" y="14.696" class="f">-l</text></svg><svg x="5120"><use xlink:href="#a"/><use xlink:href="#b" x="29.996" y="13.001"/><use xlink:href="#1"/><use xlink:href="#2" y="2.171"/><use xlink:href="#3" y="6.513"/><use xlink:href="#11" y="8.684"/><use xlink:href="#12" y="10.855"/><use xlink:href="#15" y="13.026"/></svg><svg x="5200"><use xlink:href="#a"/><use xlink:href="#b" x="-.004" y="15.172"/><use xlink:href="#1"/><use xlink:href="#2" y="2.171"/><use xlink:href="#3" y="6.513"/><use xlink:href="#11" y="8.684"/><use xlink:href="#12" y="10.855"/><use xlink:href="#15" y="13.026"/></svg><svg x="5280"><use xlink:href="#a"/><use xlink:href="#b" x="-.004" y="17.343"/><use xlink:href="#1"/><use xlink:href="#2" y="2.171"/><use xlink:href="#3" y="6.513"/><use xlink:href="#11" y="8.684"/><use xlink:href="#12" y="10.855"/><use xlink:href="#15" y="13.026"/><use xlink:href="#16" y="15.197"/></svg><svg x="5360"><use xlink:href="#a"/><use xlink:href="#b" x="-.004" y="34.711"/><use xlink:href="#15"/><use xlink:href="#16" y="2.171"/><use xlink:href="#17" y="4.342"/><use xlink:href="#18" y="6.513"/><use xlink:href="#19" y="8.684"/><use xlink:href="#20" y="10.855"/><use xlink:href="#21" y="13.026"/><use xlink:href="#22" y="15.197"/><use xlink:href="#23" y="17.368"/><use xlink:href="#24" y="19.539"/><use xlink:href="#25" y="21.71"/><use xlink:href="#26" y="23.881"/><use xlink:href="#27" y="26.052"/><use xlink:href="#28" y="28.223"/><use xlink:href="#29" y="30.394"/><use xlink:href="#30" y="32.565"/></svg><svg x="5440"><use xlink:href="#a"/><use xlink:href="#b" x="23.996" y="34.711"/><use xlink:href="#15"/><use xlink:href="#16" y="2.171"/><use xlink:href="#17" y="4.342"/><use xlink:href="#18" y="6.513"/><use xlink:href="#19" y="8.684"/><use xlink:href="#20" y="10.855"/><use xlink:href="#21" y="13.026"/><use xlink:href="#22" y="15.197"/><use xlink:href="#23" y="17.368"/><use xlink:href="#24" y="19.539"/><use xlink:href="#25" y="21.71"/><use xlink:href="#26" y="23.881"/><use xlink:href="#27" y="26.052"/><use xlink:href="#28" y="28.223"/><use xlink:href="#29" y="30.394"/><use xlink:href="#30" y="32.565"/><use xlink:href="#13" y="34.736"/></svg><svg x="5520"><use xlink:href="#a"/><use xlink:href="#b" x="-.004" y="34.711"/><use xlink:href="#16"/><use xlink:href="#17" y="2.171"/><use xlink:href="#18" y="4.342"/><use xlink:href="#19" y="6.513"/><use xlink:href="#20" y="8.684"/><use xlink:href="#21" y="10.855"/><use xlink:href="#22" y="13.026"/><use xlink:href="#23" y="15.197"/><use xlink:href="#24" y="17.368"/><use xlink:href="#25" y="19.539"/><use xlink:href="#26" y="21.71"/><use xlink:href="#27" y="23.881"/><use xlink:href="#28" y="26.052"/><use xlink:href="#29" y="28.223"/><use xlink:href="#30" y="30.394"/><use xlink:href="#31" y="32.565"/></svg><svg x="5600"><use xlink:href="#a"/><use xlink:href="#b" x="-.004" y="34.711"/><use xlink:href="#16"/><use xlink:href="#17" y="2.171"/><use xlink:href="#18" y="4.342"/><use xlink:href="#19" y="6.513"/><use xlink:href="#20" y="8.684"/><use xlink:href="#21" y="10.855"/><use xlink:href="#22" y="13.026"/><use xlink:href="#23" y="15.197"/><use xlink:href="#24" y="17.368"/><use xlink:href="#25" y="19.539"/><use xlink:href="#26" y="21.71"/><use xlink:href="#27" y="23.881"/><use xlink:href="#28" y="26.052"/><use xlink:href="#29" y="28.223"/><use xlink:href="#30" y="30.394"/><use xlink:href="#31" y="32.565"/></svg><svg x="5680"><use xlink:href="#a"/><use xlink:href="#b" x="-.004" y="34.711"/><use xlink:href="#16"/><use xlink:href="#17" y="2.171"/><use xlink:href="#18" y="4.342"/><use xlink:href="#19" y="6.513"/><use xlink:href="#20" y="8.684"/><use xlink:href="#21" y="10.855"/><use xlink:href="#22" y="13.026"/><use xlink:href="#23" y="15.197"/><use xlink:href="#24" y="17.368"/><use xlink:href="#25" y="19.539"/><use xlink:href="#26" y="21.71"/><use xlink:href="#27" y="23.881"/><use xlink:href="#28" y="26.052"/><use xlink:href="#29" y="28.223"/><use xlink:href="#30" y="30.394"/><use xlink:href="#31" y="32.565"/></svg><svg x="5760"><use xlink:href="#a"/><use xlink:href="#b" x="-.004" y="34.711"/><use xlink:href="#16"/><use xlink:href="#17" y="2.171"/><use xlink:href="#18" y="4.342"/><use xlink:href="#19" y="6.513"/><use xlink:href="#20" y="8.684"/><use xlink:href="#21" y="10.855"/><use xlink:href="#22" y="13.026"/><use xlink:href="#23" y="15.197"/><use xlink:href="#24" y="17.368"/><use xlink:href="#25" y="19.539"/><use xlink:href="#26" y="21.71"/><use xlink:href="#27" y="23.881"/><use xlink:href="#28" y="26.052"/><use xlink:href="#29" y="28.223"/><use xlink:href="#30" y="30.394"/><use xlink:href="#31" y="32.565"/></svg><svg x="5840"><use xlink:href="#a"/><use xlink:href="#b" x="-.004" y="34.711"/><use xlink:href="#16"/><use xlink:href="#17" y="2.171"/><use xlink:href="#18" y="4.342"/><use xlink:href="#19" y="6.513"/><use xlink:href="#20" y="8.684"/><use xlink:href="#21" y="10.855"/><use xlink:href="#22" y="13.026"/><use xlink:href="#23" y="15.197"/><use xlink:href="#24" y="17.368"/><use xlink:href="#25" y="19.539"/><use xlink:href="#26" y="21.71"/><use xlink:href="#27" y="23.881"/><use xlink:href="#28" y="26.052"/><use xlink:href="#29" y="28.223"/><use xlink:href="#30" y="30.394"/><use xlink:href="#31" y="32.565"/></svg><svg x="5920"><use xlink:href="#a"/><use xlink:href="#b" x="1.996" y="34.711"/><use xlink:href="#18"/><use xlink:href="#19" y="2.171"/><use xlink:href="#20" y="4.342"/><use xlink:href="#21" y="6.513"/><use xlink:href="#22" y="8.684"/><use xlink:href="#23" y="10.855"/><use xlink:href="#24" y="13.026"/><use xlink:href="#25" y="15.197"/><use xlink:href="#26" y="17.368"/><use xlink:href="#27" y="19.539"/><use xlink:href="#28" y="21.71"/><use xlink:href="#29" y="23.881"/><use xlink:href="#30" y="26.052"/><use xlink:href="#31" y="28.223"/><use xlink:href="#32" y="32.565"/><use xlink:href="#4" y="34.736"/></svg><svg x="6000"><use xlink:href="#a"/><use xlink:href="#b" x="-.004" y="34.711"/><use xlink:href="#19"/><use xlink:href="#20" y="2.171"/><use xlink:href="#21" y="4.342"/><use xlink:href="#22" y="6.513"/><use xlink:href="#23" y="8.684"/><use xlink:href="#24" y="10.855"/><use xlink:href="#25" y="13.026"/><use xlink:href="#26" y="15.197"/><use xlink:href="#27" y="17.368"/><use xlink:href="#28" y="19.539"/><use xlink:href="#29" y="21.71"/><use xlink:href="#30" y="23.881"/><use xlink:href="#31" y="26.052"/><use xlink:href="#32" y="30.394"/><use xlink:href="#4" y="32.565"/></svg><svg x="6080"><use xlink:href="#a"/><use xlink:href="#b" x="-.004" y="34.711"/><use xlink:href="#19"/><use xlink:href="#20" y="2.171"/><use xlink:href="#21" y="4.342"/><use xlink:href="#22" y="6.513"/><use xlink:href="#23" y="8.684"/><use xlink:href="#24" y="10.855"/><use xlink:href="#25" y="13.026"/><use xlink:href="#26" y="15.197"/><use xlink:href="#27" y="17.368"/><use xlink:href="#28" y="19.539"/><use xlink:href="#29" y="21.71"/><use xlink:href="#30" y="23.881"/><use xlink:href="#31" y="26.052"/><use xlink:href="#32" y="30.394"/><use xlink:href="#4" y="32.565"/></svg><svg x="6160"><use xlink:href="#a"/><use xlink:href="#b" x="-.004" y="34.711"/><use xlink:href="#19"/><use xlink:href="#20" y="2.171"/><use xlink:href="#21" y="4.342"/><use xlink:href="#22" y="6.513"/><use xlink:href="#23" y="8.684"/><use xlink:href="#24" y="10.855"/><use xlink:href="#25" y="13.026"/><use xlink:href="#26" y="15.197"/><use xlink:href="#27" y="17.368"/><use xlink:href="#28" y="19.539"/><use xlink:href="#29" y="21.71"/><use xlink:href="#30" y="23.881"/><use xlink:href="#31" y="26.052"/><use xlink:href="#32" y="30.394"/><use xlink:href="#4" y="32.565"/></svg></svg></g></g></svg></svg>