<svg xmlns="http://www.w3.org/2000/svg" xmlns:xlink="http://www.w3.org/1999/xlink" width="990" height="667.88"><rect width="990" height="667.88" rx="5" ry="5" class="a"/><svg y="0%" x="0%"><circle cx="20" cy="20" r="6" fill="#ff5f58"/><circle cx="40" cy="20" r="6" fill="#ffbd2e"/><circle cx="60" cy="20" r="6" fill="#18c132"/></svg><svg height="607.88" viewBox="0 0 95 60.788" width="950" x="15" xmlns="http://www.w3.org/2000/svg" xmlns:xlink="http://www.w3.org/1999/xlink" y="50"><style>@keyframes o{0%{transform:translateX(0)}1%{transform:translateX(-95px)}3.2%{transform:translateX(-190px)}3.3%{transform:translateX(-475px)}3.4%{transform:translateX(-760px)}17.6%{transform:translateX(-1045px)}20.4%{transform:translateX(-1140px)}21.5%{transform:translateX(-1235px)}22.4%{transform:translateX(-1425px)}23.9%{transform:translateX(-1615px)}28.3%{transform:translateX(-1805px)}29.9%{transform:translateX(-1900px)}31.7%{transform:translateX(-1995px)}33.6%{transform:translateX(-2090px)}34.8%{transform:translateX(-2185px)}37.4%{transform:translateX(-2280px)}38.8%{transform:translateX(-2375px)}39.9%{transform:translateX(-2565px)}42.7%{transform:translateX(-2755px)}45.3%{transform:translateX(-2850px)}48.1%{transform:translateX(-2945px)}49%{transform:translateX(-3040px)}51.2%{transform:translateX(-3135px)}52.6%{transform:translateX(-3230px)}53.8%{transform:translateX(-3420px)}55.6%{transform:translateX(-3610px)}57.5%{transform:translateX(-3705px)}58.3%{transform:translateX(-3800px)}59.7%{transform:translateX(-3895px)}64.7%{transform:translateX(-4370px)}78.3%{transform:translateX(-4465px)}78.5%{transform:translateX(-4845px)}to{transform:translateX(-5035px)}}.a{fill:#282d35}.f,.g,.i{fill:#b9c0cb;white-space:pre}.g,.i{fill:#a8cc8c}.i{font-weight:700}.j,.k,.l,.q{fill:#005fd7;white-space:pre}.k,.l,.q{fill:#555}.l,.q{fill:#00afff}.q{fill:red}</style><g font-family="Monaco,Consolas,Menlo,'Bitstream Vera Sans Mono','Powerline Symbols',monospace" font-size="1.67"><defs><symbol id="1"><text y="1.67" class="f">Welcome</text><text x="8.016" y="1.67" class="f">to</text><text x="11.022" y="1.67" class="f">fish,</text><text x="17.034" y="1.67" class="f">the</text><text x="21.042" y="1.67" class="f">friendly</text><text x="30.06" y="1.67" class="f">interactive</text><text x="42.084" y="1.67" class="f">shell</text></symbol><symbol id="2"><text y="1.67" class="f">Type</text><text x="5.01" y="1.67" class="f">`help`</text><text x="12.024" y="1.67" class="f">for</text><text x="16.032" y="1.67" class="f">instructions</text><text x="29.058" y="1.67" class="f">on</text><text x="32.064" y="1.67" class="f">how</text><text x="36.072" y="1.67" class="f">to</text><text x="39.078" y="1.67" class="f">use</text><text x="43.086" y="1.67" class="f">fish</text></symbol><symbol id="3"><text y="1.67" class="g">⛵</text><text x="2.004" y="1.67" class="g">factorial-dev</text><text x="16.032" y="1.67" class="f">in</text><text x="19.038" y="1.67" style="white-space:pre" fill="#66c2cd" font-weight="700">~/Desktop/secrets-in-phab</text></symbol><symbol id="4"><text y="1.67" class="i">❯</text></symbol><symbol id="5"><text y="1.67" class="i">❯</text><text x="2.004" y="1.67" class="j">phab</text><text x="7.014" y="1.67" class="k">-clocal</text><text x="15.03" y="1.67" class="k">script</text><text x="22.044" y="1.67" class="k">demo</text></symbol><symbol id="6"><text y="1.67" class="i">❯</text><text x="2.004" y="1.67" class="j">phab</text><text x="7.014" y="1.67" class="l">-clocal</text><text x="15.03" y="1.67" class="k">script</text><text x="22.044" y="1.67" class="k">demo</text></symbol><symbol id="7"><text y="1.67" class="i">❯</text><text x="2.004" y="1.67" class="j">phab</text><text x="7.014" y="1.67" class="l">-clocal</text><text x="15.03" y="1.67" class="l">script</text><text x="22.044" y="1.67" class="k">demo</text></symbol><symbol id="8"><text y="1.67" class="i">❯</text><text x="2.004" y="1.67" class="j">phab</text><text x="7.014" y="1.67" class="l">-clocal</text><text x="15.03" y="1.67" class="l">script</text><text x="22.044" y="1.67" class="l">demo</text></symbol><symbol id="9"><text y="1.67" class="f">host.fooSecret</text><text x="15.03" y="1.67" class="f">is</text><text x="18.036" y="1.67" class="f">bar</text></symbol><symbol id="a"><path fill="transparent" d="M0 0h95v28H0z"/></symbol><symbol id="b"><path fill="#6f7683" d="M0 0h1.102v2.171H0z"/></symbol></defs><path class="a" d="M0 0h95v60.788H0z"/><g style="animation-duration:7.425765s;animation-iteration-count:infinite;animation-name:o;animation-timing-function:steps(1,end)"><svg width="5130"><svg><use xlink:href="#a"/><use xlink:href="#b" x="-.004"/></svg><svg x="95"><use xlink:href="#a"/><use xlink:href="#b" x="-.004"/></svg><svg x="190"><use xlink:href="#a"/><use xlink:href="#b" x="-.004" y="4.317"/><use xlink:href="#1"/><use xlink:href="#2" y="2.171"/></svg><svg x="285"><use xlink:href="#a"/><use xlink:href="#b" x="-.004" y="4.317"/><use xlink:href="#1"/><use xlink:href="#2" y="2.171"/></svg><svg x="380"><use xlink:href="#a"/><use xlink:href="#b" x="-.004" y="4.317"/><use xlink:href="#1"/><use xlink:href="#2" y="2.171"/></svg><svg x="475"><use xlink:href="#a"/><use xlink:href="#b" x="-.004" y="4.317"/><use xlink:href="#1"/><use xlink:href="#2" y="2.171"/></svg><svg x="570"><use xlink:href="#a"/><use xlink:href="#b" x="-.004" y="4.317"/><use xlink:href="#1"/><use xlink:href="#2" y="2.171"/></svg><svg x="665"><use xlink:href="#a"/><use xlink:href="#b" x="-.004" y="4.317"/><use xlink:href="#1"/><use xlink:href="#2" y="2.171"/></svg><svg x="760"><use xlink:href="#a"/><use xlink:href="#b" x="1.996" y="8.659"/><use xlink:href="#1"/><use xlink:href="#2" y="2.171"/><use xlink:href="#3" y="6.513"/><use xlink:href="#4" y="8.684"/></svg><svg x="855"><use xlink:href="#a"/><use xlink:href="#b" x="2.996" y="8.659"/><use xlink:href="#1"/><use xlink:href="#2" y="2.171"/><use xlink:href="#3" y="6.513"/><text y="10.354" class="i">❯</text><text x="2.004" y="10.354" class="f">p</text></svg><svg x="950"><use xlink:href="#a"/><use xlink:href="#b" x="2.996" y="8.659"/><use xlink:href="#1"/><use xlink:href="#2" y="2.171"/><use xlink:href="#3" y="6.513"/><text y="10.354" class="i">❯</text><text x="2.004" y="10.354" class="q">p</text></svg><svg x="1045"><use xlink:href="#a"/><use xlink:href="#b" x="2.996" y="8.659"/><use xlink:href="#1"/><use xlink:href="#2" y="2.171"/><use xlink:href="#3" y="6.513"/><text y="10.354" class="i">❯</text><text x="2.004" y="10.354" class="q">p</text><text x="3.006" y="10.354" class="k">hab</text><text x="7.014" y="10.354" class="k">-clocal</text><text x="15.03" y="10.354" class="k">script</text><text x="22.044" y="10.354" class="k">demo</text></svg><svg x="1140"><use xlink:href="#a"/><use xlink:href="#b" x="3.996" y="8.659"/><use xlink:href="#1"/><use xlink:href="#2" y="2.171"/><use xlink:href="#3" y="6.513"/><text y="10.354" class="i">❯</text><text x="2.004" y="10.354" class="q">ph</text><text x="4.008" y="10.354" class="k">ab</text><text x="7.014" y="10.354" class="k">-clocal</text><text x="15.03" y="10.354" class="k">script</text><text x="22.044" y="10.354" class="k">demo</text></svg><svg x="1235"><use xlink:href="#a"/><use xlink:href="#b" x="4.996" y="8.659"/><use xlink:href="#1"/><use xlink:href="#2" y="2.171"/><use xlink:href="#3" y="6.513"/><text y="10.354" class="i">❯</text><text x="2.004" y="10.354" class="q">pha</text><text x="5.01" y="10.354" class="k">b</text><text x="7.014" y="10.354" class="k">-clocal</text><text x="15.03" y="10.354" class="k">script</text><text x="22.044" y="10.354" class="k">demo</text></svg><svg x="1330"><use xlink:href="#a"/><use xlink:href="#b" x="5.996" y="8.659"/><use xlink:href="#1"/><use xlink:href="#2" y="2.171"/><use xlink:href="#3" y="6.513"/><text y="10.354" class="i">❯</text><text x="2.004" y="10.354" class="q">phab</text><text x="7.014" y="10.354" class="k">-clocal</text><text x="15.03" y="10.354" class="k">script</text><text x="22.044" y="10.354" class="k">demo</text></svg><svg x="1425"><use xlink:href="#a"/><use xlink:href="#b" x="5.996" y="8.659"/><use xlink:href="#1"/><use xlink:href="#2" y="2.171"/><use xlink:href="#3" y="6.513"/><use xlink:href="#5" y="8.684"/></svg><svg x="1520"><use xlink:href="#a"/><use xlink:href="#b" x="6.996" y="8.659"/><use xlink:href="#1"/><use xlink:href="#2" y="2.171"/><use xlink:href="#3" y="6.513"/><use xlink:href="#5" y="8.684"/></svg><svg x="1615"><use xlink:href="#a"/><use xlink:href="#b" x="6.996" y="8.659"/><use xlink:href="#1"/><use xlink:href="#2" y="2.171"/><use xlink:href="#3" y="6.513"/><use xlink:href="#5" y="8.684"/></svg><svg x="1710"><use xlink:href="#a"/><use xlink:href="#b" x="7.996" y="8.659"/><use xlink:href="#1"/><use xlink:href="#2" y="2.171"/><use xlink:href="#3" y="6.513"/><text y="10.354" class="i">❯</text><text x="2.004" y="10.354" class="j">phab</text><text x="7.014" y="10.354" class="f">-</text><text x="8.016" y="10.354" class="k">clocal</text><text x="15.03" y="10.354" class="k">script</text><text x="22.044" y="10.354" class="k">demo</text></svg><svg x="1805"><use xlink:href="#a"/><use xlink:href="#b" x="7.996" y="8.659"/><use xlink:href="#1"/><use xlink:href="#2" y="2.171"/><use xlink:href="#3" y="6.513"/><text y="10.354" class="i">❯</text><text x="2.004" y="10.354" class="j">phab</text><text x="7.014" y="10.354" class="l">-</text><text x="8.016" y="10.354" class="k">clocal</text><text x="15.03" y="10.354" class="k">script</text><text x="22.044" y="10.354" class="k">demo</text></svg><svg x="1900"><use xlink:href="#a"/><use xlink:href="#b" x="8.996" y="8.659"/><use xlink:href="#1"/><use xlink:href="#2" y="2.171"/><use xlink:href="#3" y="6.513"/><text y="10.354" class="i">❯</text><text x="2.004" y="10.354" class="j">phab</text><text x="7.014" y="10.354" class="l">-c</text><text x="9.018" y="10.354" class="k">local</text><text x="15.03" y="10.354" class="k">script</text><text x="22.044" y="10.354" class="k">demo</text></svg><svg x="1995"><use xlink:href="#a"/><use xlink:href="#b" x="9.996" y="8.659"/><use xlink:href="#1"/><use xlink:href="#2" y="2.171"/><use xlink:href="#3" y="6.513"/><text y="10.354" class="i">❯</text><text x="2.004" y="10.354" class="j">phab</text><text x="7.014" y="10.354" class="l">-cl</text><text x="10.02" y="10.354" class="k">ocal</text><text x="15.03" y="10.354" class="k">script</text><text x="22.044" y="10.354" class="k">demo</text></svg><svg x="2090"><use xlink:href="#a"/><use xlink:href="#b" x="10.996" y="8.659"/><use xlink:href="#1"/><use xlink:href="#2" y="2.171"/><use xlink:href="#3" y="6.513"/><text y="10.354" class="i">❯</text><text x="2.004" y="10.354" class="j">phab</text><text x="7.014" y="10.354" class="l">-clo</text><text x="11.022" y="10.354" class="k">cal</text><text x="15.03" y="10.354" class="k">script</text><text x="22.044" y="10.354" class="k">demo</text></svg><svg x="2185"><use xlink:href="#a"/><use xlink:href="#b" x="11.996" y="8.659"/><use xlink:href="#1"/><use xlink:href="#2" y="2.171"/><use xlink:href="#3" y="6.513"/><text y="10.354" class="i">❯</text><text x="2.004" y="10.354" class="j">phab</text><text x="7.014" y="10.354" class="l">-cloc</text><text x="12.024" y="10.354" class="k">al</text><text x="15.03" y="10.354" class="k">script</text><text x="22.044" y="10.354" class="k">demo</text></svg><svg x="2280"><use xlink:href="#a"/><use xlink:href="#b" x="12.996" y="8.659"/><use xlink:href="#1"/><use xlink:href="#2" y="2.171"/><use xlink:href="#3" y="6.513"/><text y="10.354" class="i">❯</text><text x="2.004" y="10.354" class="j">phab</text><text x="7.014" y="10.354" class="l">-cloca</text><text x="13.026" y="10.354" class="k">l</text><text x="15.03" y="10.354" class="k">script</text><text x="22.044" y="10.354" class="k">demo</text></svg><svg x="2375"><use xlink:href="#a"/><use xlink:href="#b" x="13.996" y="8.659"/><use xlink:href="#1"/><use xlink:href="#2" y="2.171"/><use xlink:href="#3" y="6.513"/><use xlink:href="#6" y="8.684"/></svg><svg x="2470"><use xlink:href="#a"/><use xlink:href="#b" x="14.996" y="8.659"/><use xlink:href="#1"/><use xlink:href="#2" y="2.171"/><use xlink:href="#3" y="6.513"/><use xlink:href="#6" y="8.684"/></svg><svg x="2565"><use xlink:href="#a"/><use xlink:href="#b" x="14.996" y="8.659"/><use xlink:href="#1"/><use xlink:href="#2" y="2.171"/><use xlink:href="#3" y="6.513"/><use xlink:href="#6" y="8.684"/></svg><svg x="2660"><use xlink:href="#a"/><use xlink:href="#b" x="15.996" y="8.659"/><use xlink:href="#1"/><use xlink:href="#2" y="2.171"/><use xlink:href="#3" y="6.513"/><text y="10.354" class="i">❯</text><text x="2.004" y="10.354" class="j">phab</text><text x="7.014" y="10.354" class="l">-clocal</text><text x="15.03" y="10.354" class="f">s</text><text x="16.032" y="10.354" class="k">cript</text><text x="22.044" y="10.354" class="k">demo</text></svg><svg x="2755"><use xlink:href="#a"/><use xlink:href="#b" x="15.996" y="8.659"/><use xlink:href="#1"/><use xlink:href="#2" y="2.171"/><use xlink:href="#3" y="6.513"/><text y="10.354" class="i">❯</text><text x="2.004" y="10.354" class="j">phab</text><text x="7.014" y="10.354" class="l">-clocal</text><text x="15.03" y="10.354" class="l">s</text><text x="16.032" y="10.354" class="k">cript</text><text x="22.044" y="10.354" class="k">demo</text></svg><svg x="2850"><use xlink:href="#a"/><use xlink:href="#b" x="16.996" y="8.659"/><use xlink:href="#1"/><use xlink:href="#2" y="2.171"/><use xlink:href="#3" y="6.513"/><text y="10.354" class="i">❯</text><text x="2.004" y="10.354" class="j">phab</text><text x="7.014" y="10.354" class="l">-clocal</text><text x="15.03" y="10.354" class="l">sc</text><text x="17.034" y="10.354" class="k">ript</text><text x="22.044" y="10.354" class="k">demo</text></svg><svg x="2945"><use xlink:href="#a"/><use xlink:href="#b" x="17.996" y="8.659"/><use xlink:href="#1"/><use xlink:href="#2" y="2.171"/><use xlink:href="#3" y="6.513"/><text y="10.354" class="i">❯</text><text x="2.004" y="10.354" class="j">phab</text><text x="7.014" y="10.354" class="l">-clocal</text><text x="15.03" y="10.354" class="l">scr</text><text x="18.036" y="10.354" class="k">ipt</text><text x="22.044" y="10.354" class="k">demo</text></svg><svg x="3040"><use xlink:href="#a"/><use xlink:href="#b" x="18.996" y="8.659"/><use xlink:href="#1"/><use xlink:href="#2" y="2.171"/><use xlink:href="#3" y="6.513"/><text y="10.354" class="i">❯</text><text x="2.004" y="10.354" class="j">phab</text><text x="7.014" y="10.354" class="l">-clocal</text><text x="15.03" y="10.354" class="l">scri</text><text x="19.038" y="10.354" class="k">pt</text><text x="22.044" y="10.354" class="k">demo</text></svg><svg x="3135"><use xlink:href="#a"/><use xlink:href="#b" x="19.996" y="8.659"/><use xlink:href="#1"/><use xlink:href="#2" y="2.171"/><use xlink:href="#3" y="6.513"/><text y="10.354" class="i">❯</text><text x="2.004" y="10.354" class="j">phab</text><text x="7.014" y="10.354" class="l">-clocal</text><text x="15.03" y="10.354" class="l">scrip</text><text x="20.04" y="10.354" class="k">t</text><text x="22.044" y="10.354" class="k">demo</text></svg><svg x="3230"><use xlink:href="#a"/><use xlink:href="#b" x="20.996" y="8.659"/><use xlink:href="#1"/><use xlink:href="#2" y="2.171"/><use xlink:href="#3" y="6.513"/><use xlink:href="#7" y="8.684"/></svg><svg x="3325"><use xlink:href="#a"/><use xlink:href="#b" x="21.996" y="8.659"/><use xlink:href="#1"/><use xlink:href="#2" y="2.171"/><use xlink:href="#3" y="6.513"/><use xlink:href="#7" y="8.684"/></svg><svg x="3420"><use xlink:href="#a"/><use xlink:href="#b" x="21.996" y="8.659"/><use xlink:href="#1"/><use xlink:href="#2" y="2.171"/><use xlink:href="#3" y="6.513"/><use xlink:href="#7" y="8.684"/></svg><svg x="3515"><use xlink:href="#a"/><use xlink:href="#b" x="22.996" y="8.659"/><use xlink:href="#1"/><use xlink:href="#2" y="2.171"/><use xlink:href="#3" y="6.513"/><text y="10.354" class="i">❯</text><text x="2.004" y="10.354" class="j">phab</text><text x="7.014" y="10.354" class="l">-clocal</text><text x="15.03" y="10.354" class="l">script</text><text x="22.044" y="10.354" class="f">d</text><text x="23.046" y="10.354" class="k">emo</text></svg><svg x="3610"><use xlink:href="#a"/><use xlink:href="#b" x="22.996" y="8.659"/><use xlink:href="#1"/><use xlink:href="#2" y="2.171"/><use xlink:href="#3" y="6.513"/><text y="10.354" class="i">❯</text><text x="2.004" y="10.354" class="j">phab</text><text x="7.014" y="10.354" class="l">-clocal</text><text x="15.03" y="10.354" class="l">script</text><text x="22.044" y="10.354" class="l">d</text><text x="23.046" y="10.354" class="k">emo</text></svg><svg x="3705"><use xlink:href="#a"/><use xlink:href="#b" x="23.996" y="8.659"/><use xlink:href="#1"/><use xlink:href="#2" y="2.171"/><use xlink:href="#3" y="6.513"/><text y="10.354" class="i">❯</text><text x="2.004" y="10.354" class="j">phab</text><text x="7.014" y="10.354" class="l">-clocal</text><text x="15.03" y="10.354" class="l">script</text><text x="22.044" y="10.354" class="l">de</text><text x="24.048" y="10.354" class="k">mo</text></svg><svg x="3800"><use xlink:href="#a"/><use xlink:href="#b" x="24.996" y="8.659"/><use xlink:href="#1"/><use xlink:href="#2" y="2.171"/><use xlink:href="#3" y="6.513"/><text y="10.354" class="i">❯</text><text x="2.004" y="10.354" class="j">phab</text><text x="7.014" y="10.354" class="l">-clocal</text><text x="15.03" y="10.354" class="l">script</text><text x="22.044" y="10.354" class="l">dem</text><text x="25.05" y="10.354" class="k">o</text></svg><svg x="3895"><use xlink:href="#a"/><use xlink:href="#b" x="25.996" y="8.659"/><use xlink:href="#1"/><use xlink:href="#2" y="2.171"/><use xlink:href="#3" y="6.513"/><use xlink:href="#8" y="8.684"/></svg><svg x="3990"><use xlink:href="#a"/><use xlink:href="#b" x="-.004" y="10.83"/><use xlink:href="#1"/><use xlink:href="#2" y="2.171"/><use xlink:href="#3" y="6.513"/><use xlink:href="#8" y="8.684"/></svg><svg x="4085"><use xlink:href="#a"/><use xlink:href="#b" x="-.004" y="10.83"/><use xlink:href="#1"/><use xlink:href="#2" y="2.171"/><use xlink:href="#3" y="6.513"/><use xlink:href="#8" y="8.684"/></svg><svg x="4180"><use xlink:href="#a"/><use xlink:href="#b" x="-.004" y="10.83"/><use xlink:href="#1"/><use xlink:href="#2" y="2.171"/><use xlink:href="#3" y="6.513"/><use xlink:href="#8" y="8.684"/></svg><svg x="4275"><use xlink:href="#a"/><use xlink:href="#b" x="-.004" y="10.83"/><use xlink:href="#1"/><use xlink:href="#2" y="2.171"/><use xlink:href="#3" y="6.513"/><use xlink:href="#8" y="8.684"/></svg><svg x="4370"><use xlink:href="#a"/><use xlink:href="#b" x="-.004" y="10.83"/><use xlink:href="#1"/><use xlink:href="#2" y="2.171"/><use xlink:href="#3" y="6.513"/><use xlink:href="#8" y="8.684"/></svg><svg x="4465"><use xlink:href="#a"/><use xlink:href="#b" x="-.004" y="13.001"/><use xlink:href="#1"/><use xlink:href="#2" y="2.171"/><use xlink:href="#3" y="6.513"/><use xlink:href="#8" y="8.684"/><use xlink:href="#9" y="10.855"/></svg><svg x="4560"><use xlink:href="#a"/><use xlink:href="#b" x="-.004" y="13.001"/><use xlink:href="#1"/><use xlink:href="#2" y="2.171"/><use xlink:href="#3" y="6.513"/><use xlink:href="#8" y="8.684"/><use xlink:href="#9" y="10.855"/></svg><svg x="4655"><use xlink:href="#a"/><use xlink:href="#b" x="-.004" y="13.001"/><use xlink:href="#1"/><use xlink:href="#2" y="2.171"/><use xlink:href="#3" y="6.513"/><use xlink:href="#8" y="8.684"/><use xlink:href="#9" y="10.855"/></svg><svg x="4750"><use xlink:href="#a"/><use xlink:href="#b" x="-.004" y="13.001"/><use xlink:href="#1"/><use xlink:href="#2" y="2.171"/><use xlink:href="#3" y="6.513"/><use xlink:href="#8" y="8.684"/><use xlink:href="#9" y="10.855"/></svg><svg x="4845"><use xlink:href="#a"/><use xlink:href="#b" x="1.996" y="17.343"/><use xlink:href="#1"/><use xlink:href="#2" y="2.171"/><use xlink:href="#3" y="6.513"/><use xlink:href="#8" y="8.684"/><use xlink:href="#9" y="10.855"/><use xlink:href="#3" y="15.197"/><use xlink:href="#4" y="17.368"/></svg><svg x="4940"><use xlink:href="#a"/><use xlink:href="#b" x="-.004" y="19.514"/><use xlink:href="#1"/><use xlink:href="#2" y="2.171"/><use xlink:href="#3" y="6.513"/><use xlink:href="#8" y="8.684"/><use xlink:href="#9" y="10.855"/><use xlink:href="#3" y="15.197"/><use xlink:href="#4" y="17.368"/></svg><svg x="5035"><use xlink:href="#a"/><use xlink:href="#b" x="-.004" y="19.514"/><use xlink:href="#1"/><use xlink:href="#2" y="2.171"/><use xlink:href="#3" y="6.513"/><use xlink:href="#8" y="8.684"/><use xlink:href="#9" y="10.855"/><use xlink:href="#3" y="15.197"/><use xlink:href="#4" y="17.368"/></svg></svg></g></g></svg></svg>