<svg width="192" height="50" fill="none" xmlns="http://www.w3.org/2000/svg"><g clip-path="url(#a)"><path d="M17.139 7.823a17.2 17.2 0 0 0-11.999 4.86v-3.84H0V50h5.14V36.969a17.146 17.146 0 0 0 11.999 4.86c9.47 0 17.139-7.62 17.139-17.003S26.61 7.823 17.139 7.823Zm0 28.906c-6.628 0-11.999-5.328-11.999-11.903 0-6.576 5.37-11.903 11.999-11.903 6.628 0 11.998 5.327 11.998 11.903 0 6.575-5.37 11.903-11.998 11.903Z" fill="#fff"/><path d="M155.316 8.844h-5.14V40.82h5.14V8.844Zm-10.802 32.984c1.703 0 3.084-1.37 3.084-3.06s-1.381-3.059-3.084-3.059-3.084 1.37-3.084 3.06 1.381 3.06 3.084 3.06Z" fill="#FF6F40"/><path d="M53.487 7.823c-4.67 0-8.903 1.86-11.999 4.86V1.02h-5.14v39.8h5.14V24.826c0-6.576 5.37-11.903 11.999-11.903 6.628 0 11.998 5.327 11.998 11.903v15.983h5.14V24.825c0-9.384-7.668-17.003-17.138-17.003Zm48.342 1.02v3.84a17.147 17.147 0 0 0-11.999-4.86c-9.47 0-17.139 7.62-17.139 17.003s7.68 17.002 17.14 17.002a17.2 17.2 0 0 0 11.998-4.86v3.84h5.14V8.844h-5.14ZM89.83 36.73c-6.628 0-11.998-5.328-11.998-11.903 0-6.576 5.37-11.903 11.998-11.903 6.629 0 11.999 5.327 11.999 11.903 0 6.575-5.37 11.903-11.999 11.903Zm36.688-28.907a17.2 17.2 0 0 0-11.999 4.86V1.02h-5.14v39.812h5.14v-3.851a17.149 17.149 0 0 0 11.999 4.86c9.47 0 17.139-7.62 17.139-17.003 0-9.384-7.669-17.015-17.139-17.015Zm0 28.906c-6.628 0-11.999-5.328-11.999-11.903 0-6.576 5.371-11.903 11.999-11.903s11.998 5.327 11.998 11.903c0 6.575-5.37 11.903-11.998 11.903Z" fill="#fff"/><path d="M152.741 6.12c1.703 0 3.084-1.37 3.084-3.06S154.444 0 152.741 0c-1.704 0-3.085 1.37-3.085 3.06s1.381 3.06 3.085 3.06Z" fill="#FF6F40"/><path d="M174.862 7.823c-9.471 0-17.139 7.62-17.139 17.003s7.68 17.002 17.139 17.002c9.47 0 17.139-7.619 17.139-17.002S184.32 7.823 174.862 7.823Zm0 28.906c-6.629 0-11.999-5.328-11.999-11.903 0-6.576 5.37-11.903 11.999-11.903 6.628 0 11.998 5.327 11.998 11.903 0 6.575-5.37 11.903-11.998 11.903Z" fill="#0096DB"/><path d="M8.738 44.901v5.1h76.975v-5.1H8.738Z" fill="#00C58E"/></g><defs><clipPath id="a"><path fill="#fff" d="M0 0h192v50H0z"/></clipPath></defs></svg>
