<svg xmlns="http://www.w3.org/2000/svg" xmlns:xlink="http://www.w3.org/1999/xlink" width="840" height="429.07"><rect width="840" height="429.07" rx="5" ry="5" class="a"/><svg y="0%" x="0%"><circle cx="20" cy="20" r="6" fill="#ff5f58"/><circle cx="40" cy="20" r="6" fill="#ffbd2e"/><circle cx="60" cy="20" r="6" fill="#18c132"/></svg><svg height="369.07" viewBox="0 0 80 36.907" width="800" x="15" xmlns="http://www.w3.org/2000/svg" xmlns:xlink="http://www.w3.org/1999/xlink" y="50"><style>@keyframes s{0%{transform:translateX(0)}.5%{transform:translateX(-80px)}1.6%{transform:translateX(-400px)}1.7%{transform:translateX(-560px)}17.7%{transform:translateX(-800px)}18.4%{transform:translateX(-880px)}21.6%{transform:translateX(-960px)}24.4%{transform:translateX(-1120px)}25.6%{transform:translateX(-1200px)}26.4%{transform:translateX(-1280px)}26.7%{transform:translateX(-1440px)}27.6%{transform:translateX(-1600px)}28.8%{transform:translateX(-1760px)}29.6%{transform:translateX(-1840px)}30.6%{transform:translateX(-2000px)}31.6%{transform:translateX(-2080px)}32.6%{transform:translateX(-2160px)}33.8%{transform:translateX(-2320px)}34.9%{transform:translateX(-2480px)}35.7%{transform:translateX(-2560px)}36.3%{transform:translateX(-2640px)}36.8%{transform:translateX(-2720px)}37.6%{transform:translateX(-2800px)}37.8%{transform:translateX(-2880px)}38.6%{transform:translateX(-2960px)}38.8%{transform:translateX(-3040px)}39.6%{transform:translateX(-3200px)}41%{transform:translateX(-3360px)}41.9%{transform:translateX(-3440px)}42.3%{transform:translateX(-3520px)}43.3%{transform:translateX(-3600px)}44.1%{transform:translateX(-3680px)}51.5%{transform:translateX(-4000px)}62.6%{transform:translateX(-4080px)}62.9%{transform:translateX(-4160px)}66.5%{transform:translateX(-4240px)}79.5%{transform:translateX(-4320px)}86.1%{transform:translateX(-4960px)}86.3%{transform:translateX(-5200px)}to{transform:translateX(-5440px)}}.a{fill:#282d35}.f,.g{fill:#b9c0cb;white-space:pre}.g{fill:#66c2cd}.g,.h,.i{font-weight:700}.h{fill:#d290e4;white-space:pre}.i{fill:#e88388}.i,.j,.k,.l,.m{white-space:pre}.j{fill:#a8cc8c;font-weight:700}.k,.l,.m{fill:#005fd7}.l,.m{fill:#555}.m{fill:#00afff}.n{fill:#a8cc8c}.o,.u,.v{white-space:pre}.u,.v{fill:red}.v{fill:#00afff;text-decoration:underline}</style><g font-family="Monaco,Consolas,Menlo,'Bitstream Vera Sans Mono','Powerline Symbols',monospace" font-size="1.67"><defs><symbol id="1"><text y="1.67" class="f">Welcome</text><text x="8.016" y="1.67" class="f">to</text><text x="11.022" y="1.67" class="f">fish,</text><text x="17.034" y="1.67" class="f">the</text><text x="21.042" y="1.67" class="f">friendly</text><text x="30.06" y="1.67" class="f">interactive</text><text x="42.084" y="1.67" class="f">shell</text></symbol><symbol id="2"><text y="1.67" class="f">Type</text><text x="5.01" y="1.67" class="f">`help`</text><text x="12.024" y="1.67" class="f">for</text><text x="16.032" y="1.67" class="f">instructions</text><text x="29.058" y="1.67" class="f">on</text><text x="32.064" y="1.67" class="f">how</text><text x="36.072" y="1.67" class="f">to</text><text x="39.078" y="1.67" class="f">use</text><text x="43.086" y="1.67" class="f">fish</text></symbol><symbol id="3"><text y="1.67" class="g">hello-world</text><text x="12.024" y="1.67" class="f">on</text><text x="15.03" y="1.67" class="h"></text><text x="17.034" y="1.67" class="h">main</text><text x="22.044" y="1.67" class="i">[?]</text><text x="26.052" y="1.67" class="f">via</text><text x="30.06" y="1.67" class="j"></text><text x="32.064" y="1.67" class="j">v14.18.1</text></symbol><symbol id="4"><text y="1.67" class="j">❯</text></symbol><symbol id="5"><text y="1.67" class="j">❯</text><text x="2.004" y="1.67" class="k">../phab</text><text x="10.02" y="1.67" class="l">reset</text><text x="16.032" y="1.67" class="l">--config</text><text x="25.05" y="1.67" class="l">local</text></symbol><symbol id="6"><text y="1.67" class="j">❯</text><text x="2.004" y="1.67" class="k">../phab</text><text x="10.02" y="1.67" class="m">reset</text><text x="16.032" y="1.67" class="l">--config</text><text x="25.05" y="1.67" class="l">local</text></symbol><symbol id="7"><text y="1.67" class="j">❯</text><text x="2.004" y="1.67" class="k">../phab</text><text x="10.02" y="1.67" class="m">reset</text><text x="16.032" y="1.67" class="m">--config</text><text x="25.05" y="1.67" class="l">local</text></symbol><symbol id="8"><text y="1.67" class="j">❯</text><text x="2.004" y="1.67" class="k">../phab</text><text x="10.02" y="1.67" class="m">reset</text><text x="16.032" y="1.67" class="m">--config</text><text x="25.05" y="1.67" class="m">local</text></symbol><symbol id="9"><text y="1.67" class="f">yarn</text><text x="5.01" y="1.67" class="f">run</text><text x="9.018" y="1.67" class="f">v1.22.17</text></symbol><symbol id="10"><text y="1.67" class="f">$</text><text x="2.004" y="1.67" class="f">vue-cli-service</text><text x="18.036" y="1.67" class="f">build</text><text x="24.048" y="1.67" class="f">--no-interaction</text><text x="41.082" y="1.67" class="f">--silent</text></symbol><symbol id="11"><text y="1.67" class="f">-</text><text x="3.006" y="1.67" class="f">Building</text><text x="12.024" y="1.67" class="f">for</text><text x="16.032" y="1.67" class="f">production...</text></symbol><symbol id="12"><text x="1.002" y="1.67" class="f">DONE</text><text x="7.014" y="1.67" class="f">Compiled</text><text x="16.032" y="1.67" class="f">successfully</text><text x="29.058" y="1.67" class="f">in</text><text x="32.064" y="1.67" class="f">1410ms10:07:30</text><text x="47.094" y="1.67" class="f">PM</text></symbol><symbol id="13"><text y="1.67" class="f">Done</text><text x="5.01" y="1.67" class="f">in</text><text x="8.016" y="1.67" class="f">3.88s.</text></symbol><symbol id="14"><path class="n" d="M0 0h80v2.171H0z"/><text y="1.67" class="o"></text></symbol><symbol id="15"><path class="n" d="M0 0h80v2.171H0z"/><text y="1.67" class="o">[OK] local resetted successfully!</text></symbol><symbol id="16"><text y="1.67" class="g">hello-world</text><text x="12.024" y="1.67" class="f">on</text><text x="15.03" y="1.67" class="h"></text><text x="17.034" y="1.67" class="h">main</text><text x="22.044" y="1.67" class="i">[?]</text><text x="26.052" y="1.67" class="f">via</text><text x="30.06" y="1.67" class="j"></text><text x="32.064" y="1.67" class="j">v14.18.1</text><text x="41.082" y="1.67" class="f">took</text><text x="46.092" y="1.67" style="white-space:pre" fill="#dbab79" font-weight="700">5s</text></symbol><symbol id="a"><path fill="transparent" d="M0 0h80v17H0z"/></symbol><symbol id="b"><path fill="#6f7683" d="M0 0h1.102v2.171H0z"/></symbol></defs><path class="a" d="M0 0h80v36.907H0z"/><g style="animation-duration:16.439501s;animation-iteration-count:infinite;animation-name:s;animation-timing-function:steps(1,end)"><svg width="5520"><svg><use xlink:href="#a"/><use xlink:href="#b" x="-.004"/></svg><svg x="80"><use xlink:href="#a"/><use xlink:href="#b" x="-.004"/></svg><svg x="160"><use xlink:href="#a"/><use xlink:href="#b" x="-.004" y="4.317"/><use xlink:href="#1"/><use xlink:href="#2" y="2.171"/></svg><svg x="240"><use xlink:href="#a"/><use xlink:href="#b" x="-.004" y="4.317"/><use xlink:href="#1"/><use xlink:href="#2" y="2.171"/></svg><svg x="320"><use xlink:href="#a"/><use xlink:href="#b" x="-.004" y="4.317"/><use xlink:href="#1"/><use xlink:href="#2" y="2.171"/></svg><svg x="400"><use xlink:href="#a"/><use xlink:href="#b" x="-.004" y="4.317"/><use xlink:href="#1"/><use xlink:href="#2" y="2.171"/></svg><svg x="480"><use xlink:href="#a"/><use xlink:href="#b" x="-.004" y="4.317"/><use xlink:href="#1"/><use xlink:href="#2" y="2.171"/></svg><svg x="560"><use xlink:href="#a"/><use xlink:href="#b" x="1.996" y="8.659"/><use xlink:href="#1"/><use xlink:href="#2" y="2.171"/><use xlink:href="#3" y="6.513"/><use xlink:href="#4" y="8.684"/></svg><svg x="640"><use xlink:href="#a"/><use xlink:href="#b" x="2.996" y="8.659"/><use xlink:href="#1"/><use xlink:href="#2" y="2.171"/><use xlink:href="#3" y="6.513"/><text y="10.354" class="j">❯</text><text x="2.004" y="10.354" class="f">.</text></svg><svg x="720"><use xlink:href="#a"/><use xlink:href="#b" x="2.996" y="8.659"/><use xlink:href="#1"/><use xlink:href="#2" y="2.171"/><use xlink:href="#3" y="6.513"/><text y="10.354" class="j">❯</text><text x="2.004" y="10.354" class="k">.</text></svg><svg x="800"><use xlink:href="#a"/><use xlink:href="#b" x="2.996" y="8.659"/><use xlink:href="#1"/><use xlink:href="#2" y="2.171"/><use xlink:href="#3" y="6.513"/><text y="10.354" class="j">❯</text><text x="2.004" y="10.354" class="k">.</text><text x="3.006" y="10.354" class="l">./phab</text><text x="10.02" y="10.354" class="l">reset</text><text x="16.032" y="10.354" class="l">--config</text><text x="25.05" y="10.354" class="l">local</text></svg><svg x="880"><use xlink:href="#a"/><use xlink:href="#b" x="3.996" y="8.659"/><use xlink:href="#1"/><use xlink:href="#2" y="2.171"/><use xlink:href="#3" y="6.513"/><text y="10.354" class="j">❯</text><text x="2.004" y="10.354" class="k">..</text><text x="4.008" y="10.354" class="l">/phab</text><text x="10.02" y="10.354" class="l">reset</text><text x="16.032" y="10.354" class="l">--config</text><text x="25.05" y="10.354" class="l">local</text></svg><svg x="960"><use xlink:href="#a"/><use xlink:href="#b" x="4.996" y="8.659"/><use xlink:href="#1"/><use xlink:href="#2" y="2.171"/><use xlink:href="#3" y="6.513"/><text y="10.354" class="j">❯</text><text x="2.004" y="10.354" class="k">../</text><text x="5.01" y="10.354" class="l">phab</text><text x="10.02" y="10.354" class="l">reset</text><text x="16.032" y="10.354" class="l">--config</text><text x="25.05" y="10.354" class="l">local</text></svg><svg x="1040"><use xlink:href="#a"/><use xlink:href="#b" x="5.996" y="8.659"/><use xlink:href="#1"/><use xlink:href="#2" y="2.171"/><use xlink:href="#3" y="6.513"/><text y="10.354" class="j">❯</text><text x="2.004" y="10.354" class="k">../p</text><text x="6.012" y="10.354" class="l">hab</text><text x="10.02" y="10.354" class="l">reset</text><text x="16.032" y="10.354" class="l">--config</text><text x="25.05" y="10.354" class="l">local</text></svg><svg x="1120"><use xlink:href="#a"/><use xlink:href="#b" x="5.996" y="8.659"/><use xlink:href="#1"/><use xlink:href="#2" y="2.171"/><use xlink:href="#3" y="6.513"/><text y="10.354" class="j">❯</text><text x="2.004" y="10.354" class="u">../p</text><text x="6.012" y="10.354" class="l">hab</text><text x="10.02" y="10.354" class="l">reset</text><text x="16.032" y="10.354" class="l">--config</text><text x="25.05" y="10.354" class="l">local</text></svg><svg x="1200"><use xlink:href="#a"/><use xlink:href="#b" x="6.996" y="8.659"/><use xlink:href="#1"/><use xlink:href="#2" y="2.171"/><use xlink:href="#3" y="6.513"/><text y="10.354" class="j">❯</text><text x="2.004" y="10.354" class="u">../ph</text><text x="7.014" y="10.354" class="l">ab</text><text x="10.02" y="10.354" class="l">reset</text><text x="16.032" y="10.354" class="l">--config</text><text x="25.05" y="10.354" class="l">local</text></svg><svg x="1280"><use xlink:href="#a"/><use xlink:href="#b" x="7.996" y="8.659"/><use xlink:href="#1"/><use xlink:href="#2" y="2.171"/><use xlink:href="#3" y="6.513"/><text y="10.354" class="j">❯</text><text x="2.004" y="10.354" class="u">../pha</text><text x="8.016" y="10.354" class="l">b</text><text x="10.02" y="10.354" class="l">reset</text><text x="16.032" y="10.354" class="l">--config</text><text x="25.05" y="10.354" class="l">local</text></svg><svg x="1360"><use xlink:href="#a"/><use xlink:href="#b" x="8.996" y="8.659"/><use xlink:href="#1"/><use xlink:href="#2" y="2.171"/><use xlink:href="#3" y="6.513"/><text y="10.354" class="j">❯</text><text x="2.004" y="10.354" class="u">../phab</text><text x="10.02" y="10.354" class="l">reset</text><text x="16.032" y="10.354" class="l">--config</text><text x="25.05" y="10.354" class="l">local</text></svg><svg x="1440"><use xlink:href="#a"/><use xlink:href="#b" x="8.996" y="8.659"/><use xlink:href="#1"/><use xlink:href="#2" y="2.171"/><use xlink:href="#3" y="6.513"/><use xlink:href="#5" y="8.684"/></svg><svg x="1520"><use xlink:href="#a"/><use xlink:href="#b" x="9.996" y="8.659"/><use xlink:href="#1"/><use xlink:href="#2" y="2.171"/><use xlink:href="#3" y="6.513"/><use xlink:href="#5" y="8.684"/></svg><svg x="1600"><use xlink:href="#a"/><use xlink:href="#b" x="9.996" y="8.659"/><use xlink:href="#1"/><use xlink:href="#2" y="2.171"/><use xlink:href="#3" y="6.513"/><use xlink:href="#5" y="8.684"/></svg><svg x="1680"><use xlink:href="#a"/><use xlink:href="#b" x="10.996" y="8.659"/><use xlink:href="#1"/><use xlink:href="#2" y="2.171"/><use xlink:href="#3" y="6.513"/><text y="10.354" class="j">❯</text><text x="2.004" y="10.354" class="k">../phab</text><text x="10.02" y="10.354" class="f">r</text><text x="11.022" y="10.354" class="l">eset</text><text x="16.032" y="10.354" class="l">--config</text><text x="25.05" y="10.354" class="l">local</text></svg><svg x="1760"><use xlink:href="#a"/><use xlink:href="#b" x="10.996" y="8.659"/><use xlink:href="#1"/><use xlink:href="#2" y="2.171"/><use xlink:href="#3" y="6.513"/><text y="10.354" class="j">❯</text><text x="2.004" y="10.354" class="k">../phab</text><text x="10.02" y="10.354" class="v">r</text><text x="11.022" y="10.354" class="l">eset</text><text x="16.032" y="10.354" class="l">--config</text><text x="25.05" y="10.354" class="l">local</text></svg><svg x="1840"><use xlink:href="#a"/><use xlink:href="#b" x="11.996" y="8.659"/><use xlink:href="#1"/><use xlink:href="#2" y="2.171"/><use xlink:href="#3" y="6.513"/><text y="10.354" class="j">❯</text><text x="2.004" y="10.354" class="k">../phab</text><text x="10.02" y="10.354" class="v">re</text><text x="12.024" y="10.354" class="l">set</text><text x="16.032" y="10.354" class="l">--config</text><text x="25.05" y="10.354" class="l">local</text></svg><svg x="1920"><use xlink:href="#a"/><use xlink:href="#b" x="12.996" y="8.659"/><use xlink:href="#1"/><use xlink:href="#2" y="2.171"/><use xlink:href="#3" y="6.513"/><text y="10.354" class="j">❯</text><text x="2.004" y="10.354" class="k">../phab</text><text x="10.02" y="10.354" class="v">res</text><text x="13.026" y="10.354" class="l">et</text><text x="16.032" y="10.354" class="l">--config</text><text x="25.05" y="10.354" class="l">local</text></svg><svg x="2000"><use xlink:href="#a"/><use xlink:href="#b" x="12.996" y="8.659"/><use xlink:href="#1"/><use xlink:href="#2" y="2.171"/><use xlink:href="#3" y="6.513"/><text y="10.354" class="j">❯</text><text x="2.004" y="10.354" class="k">../phab</text><text x="10.02" y="10.354" class="m">res</text><text x="13.026" y="10.354" class="l">et</text><text x="16.032" y="10.354" class="l">--config</text><text x="25.05" y="10.354" class="l">local</text></svg><svg x="2080"><use xlink:href="#a"/><use xlink:href="#b" x="13.996" y="8.659"/><use xlink:href="#1"/><use xlink:href="#2" y="2.171"/><use xlink:href="#3" y="6.513"/><text y="10.354" class="j">❯</text><text x="2.004" y="10.354" class="k">../phab</text><text x="10.02" y="10.354" class="m">rese</text><text x="14.028" y="10.354" class="l">t</text><text x="16.032" y="10.354" class="l">--config</text><text x="25.05" y="10.354" class="l">local</text></svg><svg x="2160"><use xlink:href="#a"/><use xlink:href="#b" x="14.996" y="8.659"/><use xlink:href="#1"/><use xlink:href="#2" y="2.171"/><use xlink:href="#3" y="6.513"/><use xlink:href="#6" y="8.684"/></svg><svg x="2240"><use xlink:href="#a"/><use xlink:href="#b" x="15.996" y="8.659"/><use xlink:href="#1"/><use xlink:href="#2" y="2.171"/><use xlink:href="#3" y="6.513"/><use xlink:href="#6" y="8.684"/></svg><svg x="2320"><use xlink:href="#a"/><use xlink:href="#b" x="15.996" y="8.659"/><use xlink:href="#1"/><use xlink:href="#2" y="2.171"/><use xlink:href="#3" y="6.513"/><use xlink:href="#6" y="8.684"/></svg><svg x="2400"><use xlink:href="#a"/><use xlink:href="#b" x="16.996" y="8.659"/><use xlink:href="#1"/><use xlink:href="#2" y="2.171"/><use xlink:href="#3" y="6.513"/><text y="10.354" class="j">❯</text><text x="2.004" y="10.354" class="k">../phab</text><text x="10.02" y="10.354" class="m">reset</text><text x="16.032" y="10.354" class="f">-</text><text x="17.034" y="10.354" class="l">-config</text><text x="25.05" y="10.354" class="l">local</text></svg><svg x="2480"><use xlink:href="#a"/><use xlink:href="#b" x="16.996" y="8.659"/><use xlink:href="#1"/><use xlink:href="#2" y="2.171"/><use xlink:href="#3" y="6.513"/><text y="10.354" class="j">❯</text><text x="2.004" y="10.354" class="k">../phab</text><text x="10.02" y="10.354" class="m">reset</text><text x="16.032" y="10.354" class="m">-</text><text x="17.034" y="10.354" class="l">-config</text><text x="25.05" y="10.354" class="l">local</text></svg><svg x="2560"><use xlink:href="#a"/><use xlink:href="#b" x="17.996" y="8.659"/><use xlink:href="#1"/><use xlink:href="#2" y="2.171"/><use xlink:href="#3" y="6.513"/><text y="10.354" class="j">❯</text><text x="2.004" y="10.354" class="k">../phab</text><text x="10.02" y="10.354" class="m">reset</text><text x="16.032" y="10.354" class="m">--</text><text x="18.036" y="10.354" class="l">config</text><text x="25.05" y="10.354" class="l">local</text></svg><svg x="2640"><use xlink:href="#a"/><use xlink:href="#b" x="18.996" y="8.659"/><use xlink:href="#1"/><use xlink:href="#2" y="2.171"/><use xlink:href="#3" y="6.513"/><text y="10.354" class="j">❯</text><text x="2.004" y="10.354" class="k">../phab</text><text x="10.02" y="10.354" class="m">reset</text><text x="16.032" y="10.354" class="m">--c</text><text x="19.038" y="10.354" class="l">onfig</text><text x="25.05" y="10.354" class="l">local</text></svg><svg x="2720"><use xlink:href="#a"/><use xlink:href="#b" x="19.996" y="8.659"/><use xlink:href="#1"/><use xlink:href="#2" y="2.171"/><use xlink:href="#3" y="6.513"/><text y="10.354" class="j">❯</text><text x="2.004" y="10.354" class="k">../phab</text><text x="10.02" y="10.354" class="m">reset</text><text x="16.032" y="10.354" class="m">--co</text><text x="20.04" y="10.354" class="l">nfig</text><text x="25.05" y="10.354" class="l">local</text></svg><svg x="2800"><use xlink:href="#a"/><use xlink:href="#b" x="20.996" y="8.659"/><use xlink:href="#1"/><use xlink:href="#2" y="2.171"/><use xlink:href="#3" y="6.513"/><text y="10.354" class="j">❯</text><text x="2.004" y="10.354" class="k">../phab</text><text x="10.02" y="10.354" class="m">reset</text><text x="16.032" y="10.354" class="m">--con</text><text x="21.042" y="10.354" class="l">fig</text><text x="25.05" y="10.354" class="l">local</text></svg><svg x="2880"><use xlink:href="#a"/><use xlink:href="#b" x="21.996" y="8.659"/><use xlink:href="#1"/><use xlink:href="#2" y="2.171"/><use xlink:href="#3" y="6.513"/><text y="10.354" class="j">❯</text><text x="2.004" y="10.354" class="k">../phab</text><text x="10.02" y="10.354" class="m">reset</text><text x="16.032" y="10.354" class="m">--conf</text><text x="22.044" y="10.354" class="l">ig</text><text x="25.05" y="10.354" class="l">local</text></svg><svg x="2960"><use xlink:href="#a"/><use xlink:href="#b" x="22.996" y="8.659"/><use xlink:href="#1"/><use xlink:href="#2" y="2.171"/><use xlink:href="#3" y="6.513"/><text y="10.354" class="j">❯</text><text x="2.004" y="10.354" class="k">../phab</text><text x="10.02" y="10.354" class="m">reset</text><text x="16.032" y="10.354" class="m">--confi</text><text x="23.046" y="10.354" class="l">g</text><text x="25.05" y="10.354" class="l">local</text></svg><svg x="3040"><use xlink:href="#a"/><use xlink:href="#b" x="23.996" y="8.659"/><use xlink:href="#1"/><use xlink:href="#2" y="2.171"/><use xlink:href="#3" y="6.513"/><use xlink:href="#7" y="8.684"/></svg><svg x="3120"><use xlink:href="#a"/><use xlink:href="#b" x="24.996" y="8.659"/><use xlink:href="#1"/><use xlink:href="#2" y="2.171"/><use xlink:href="#3" y="6.513"/><use xlink:href="#7" y="8.684"/></svg><svg x="3200"><use xlink:href="#a"/><use xlink:href="#b" x="24.996" y="8.659"/><use xlink:href="#1"/><use xlink:href="#2" y="2.171"/><use xlink:href="#3" y="6.513"/><use xlink:href="#7" y="8.684"/></svg><svg x="3280"><use xlink:href="#a"/><use xlink:href="#b" x="25.996" y="8.659"/><use xlink:href="#1"/><use xlink:href="#2" y="2.171"/><use xlink:href="#3" y="6.513"/><text y="10.354" class="j">❯</text><text x="2.004" y="10.354" class="k">../phab</text><text x="10.02" y="10.354" class="m">reset</text><text x="16.032" y="10.354" class="m">--config</text><text x="25.05" y="10.354" class="f">l</text><text x="26.052" y="10.354" class="l">ocal</text></svg><svg x="3360"><use xlink:href="#a"/><use xlink:href="#b" x="25.996" y="8.659"/><use xlink:href="#1"/><use xlink:href="#2" y="2.171"/><use xlink:href="#3" y="6.513"/><text y="10.354" class="j">❯</text><text x="2.004" y="10.354" class="k">../phab</text><text x="10.02" y="10.354" class="m">reset</text><text x="16.032" y="10.354" class="m">--config</text><text x="25.05" y="10.354" class="m">l</text><text x="26.052" y="10.354" class="l">ocal</text></svg><svg x="3440"><use xlink:href="#a"/><use xlink:href="#b" x="26.996" y="8.659"/><use xlink:href="#1"/><use xlink:href="#2" y="2.171"/><use xlink:href="#3" y="6.513"/><text y="10.354" class="j">❯</text><text x="2.004" y="10.354" class="k">../phab</text><text x="10.02" y="10.354" class="m">reset</text><text x="16.032" y="10.354" class="m">--config</text><text x="25.05" y="10.354" class="m">lo</text><text x="27.054" y="10.354" class="l">cal</text></svg><svg x="3520"><use xlink:href="#a"/><use xlink:href="#b" x="27.996" y="8.659"/><use xlink:href="#1"/><use xlink:href="#2" y="2.171"/><use xlink:href="#3" y="6.513"/><text y="10.354" class="j">❯</text><text x="2.004" y="10.354" class="k">../phab</text><text x="10.02" y="10.354" class="m">reset</text><text x="16.032" y="10.354" class="m">--config</text><text x="25.05" y="10.354" class="m">loc</text><text x="28.056" y="10.354" class="l">al</text></svg><svg x="3600"><use xlink:href="#a"/><use xlink:href="#b" x="28.996" y="8.659"/><use xlink:href="#1"/><use xlink:href="#2" y="2.171"/><use xlink:href="#3" y="6.513"/><text y="10.354" class="j">❯</text><text x="2.004" y="10.354" class="k">../phab</text><text x="10.02" y="10.354" class="m">reset</text><text x="16.032" y="10.354" class="m">--config</text><text x="25.05" y="10.354" class="m">loca</text><text x="29.058" y="10.354" class="l">l</text></svg><svg x="3680"><use xlink:href="#a"/><use xlink:href="#b" x="29.996" y="8.659"/><use xlink:href="#1"/><use xlink:href="#2" y="2.171"/><use xlink:href="#3" y="6.513"/><use xlink:href="#8" y="8.684"/></svg><svg x="3760"><use xlink:href="#a"/><use xlink:href="#b" x="-.004" y="10.83"/><use xlink:href="#1"/><use xlink:href="#2" y="2.171"/><use xlink:href="#3" y="6.513"/><use xlink:href="#8" y="8.684"/></svg><svg x="3840"><use xlink:href="#a"/><use xlink:href="#b" x="-.004" y="10.83"/><use xlink:href="#1"/><use xlink:href="#2" y="2.171"/><use xlink:href="#3" y="6.513"/><use xlink:href="#8" y="8.684"/></svg><svg x="3920"><use xlink:href="#a"/><use xlink:href="#b" x="-.004" y="10.83"/><use xlink:href="#1"/><use xlink:href="#2" y="2.171"/><use xlink:href="#3" y="6.513"/><use xlink:href="#8" y="8.684"/></svg><svg x="4000"><use xlink:href="#a"/><use xlink:href="#b" x="-.004" y="10.83"/><use xlink:href="#1"/><use xlink:href="#2" y="2.171"/><use xlink:href="#3" y="6.513"/><use xlink:href="#8" y="8.684"/></svg><svg x="4080"><use xlink:href="#a"/><use xlink:href="#b" x="-.004" y="13.001"/><use xlink:href="#1"/><use xlink:href="#2" y="2.171"/><use xlink:href="#3" y="6.513"/><use xlink:href="#8" y="8.684"/><use xlink:href="#9" y="10.855"/></svg><svg x="4160"><use xlink:href="#a"/><use xlink:href="#b" x="-.004" y="15.172"/><use xlink:href="#1"/><use xlink:href="#2" y="2.171"/><use xlink:href="#3" y="6.513"/><use xlink:href="#8" y="8.684"/><use xlink:href="#9" y="10.855"/><use xlink:href="#10" y="13.026"/></svg><svg x="4240"><use xlink:href="#a"/><use xlink:href="#b" x="-.004" y="17.343"/><use xlink:href="#1"/><use xlink:href="#2" y="2.171"/><use xlink:href="#3" y="6.513"/><use xlink:href="#8" y="8.684"/><use xlink:href="#9" y="10.855"/><use xlink:href="#10" y="13.026"/><use xlink:href="#11" y="15.197"/></svg><svg x="4320"><use xlink:href="#a"/><use xlink:href="#b" x="-.004" y="19.514"/><use xlink:href="#1"/><use xlink:href="#2" y="2.171"/><use xlink:href="#3" y="6.513"/><use xlink:href="#8" y="8.684"/><use xlink:href="#9" y="10.855"/><use xlink:href="#10" y="13.026"/><use xlink:href="#11" y="15.197"/><use xlink:href="#12" y="17.368"/></svg><svg x="4400"><use xlink:href="#a"/><use xlink:href="#b" x="-.004" y="21.685"/><use xlink:href="#1"/><use xlink:href="#2" y="2.171"/><use xlink:href="#3" y="6.513"/><use xlink:href="#8" y="8.684"/><use xlink:href="#9" y="10.855"/><use xlink:href="#10" y="13.026"/><use xlink:href="#11" y="15.197"/><use xlink:href="#12" y="17.368"/><use xlink:href="#13" y="19.539"/></svg><svg x="4480"><use xlink:href="#a"/><use xlink:href="#b" x="-.004" y="23.856"/><use xlink:href="#1"/><use xlink:href="#2" y="2.171"/><use xlink:href="#3" y="6.513"/><use xlink:href="#8" y="8.684"/><use xlink:href="#9" y="10.855"/><use xlink:href="#10" y="13.026"/><use xlink:href="#11" y="15.197"/><use xlink:href="#12" y="17.368"/><use xlink:href="#13" y="19.539"/></svg><svg x="4560"><use xlink:href="#a"/><use xlink:href="#b" x="-.004" y="26.027"/><use xlink:href="#1"/><use xlink:href="#2" y="2.171"/><use xlink:href="#3" y="6.513"/><use xlink:href="#8" y="8.684"/><use xlink:href="#9" y="10.855"/><use xlink:href="#10" y="13.026"/><use xlink:href="#11" y="15.197"/><use xlink:href="#12" y="17.368"/><use xlink:href="#13" y="19.539"/><use xlink:href="#14" y="23.881"/></svg><svg x="4640"><use xlink:href="#a"/><use xlink:href="#b" x="-.004" y="28.198"/><use xlink:href="#1"/><use xlink:href="#2" y="2.171"/><use xlink:href="#3" y="6.513"/><use xlink:href="#8" y="8.684"/><use xlink:href="#9" y="10.855"/><use xlink:href="#10" y="13.026"/><use xlink:href="#11" y="15.197"/><use xlink:href="#12" y="17.368"/><use xlink:href="#13" y="19.539"/><use xlink:href="#14" y="23.881"/><use xlink:href="#15" y="26.052"/></svg><svg x="4720"><use xlink:href="#a"/><use xlink:href="#b" x="-.004" y="32.54"/><use xlink:href="#1"/><use xlink:href="#2" y="2.171"/><use xlink:href="#3" y="6.513"/><use xlink:href="#8" y="8.684"/><use xlink:href="#9" y="10.855"/><use xlink:href="#10" y="13.026"/><use xlink:href="#11" y="15.197"/><use xlink:href="#12" y="17.368"/><use xlink:href="#13" y="19.539"/><use xlink:href="#14" y="23.881"/><use xlink:href="#15" y="26.052"/><use xlink:href="#14" y="28.223"/></svg><svg x="4800"><use xlink:href="#a"/><use xlink:href="#b" x="-.004" y="32.54"/><use xlink:href="#1"/><use xlink:href="#2" y="2.171"/><use xlink:href="#3" y="6.513"/><use xlink:href="#8" y="8.684"/><use xlink:href="#9" y="10.855"/><use xlink:href="#10" y="13.026"/><use xlink:href="#11" y="15.197"/><use xlink:href="#12" y="17.368"/><use xlink:href="#13" y="19.539"/><use xlink:href="#14" y="23.881"/><use xlink:href="#15" y="26.052"/><use xlink:href="#14" y="28.223"/></svg><svg x="4880"><use xlink:href="#a"/><use xlink:href="#b" x="-.004" y="32.54"/><use xlink:href="#1"/><use xlink:href="#2" y="2.171"/><use xlink:href="#3" y="6.513"/><use xlink:href="#8" y="8.684"/><use xlink:href="#9" y="10.855"/><use xlink:href="#10" y="13.026"/><use xlink:href="#11" y="15.197"/><use xlink:href="#12" y="17.368"/><use xlink:href="#13" y="19.539"/><use xlink:href="#14" y="23.881"/><use xlink:href="#15" y="26.052"/><use xlink:href="#14" y="28.223"/></svg><svg x="4960"><use xlink:href="#a"/><use xlink:href="#b" x="-.004" y="32.54"/><use xlink:href="#1"/><use xlink:href="#2" y="2.171"/><use xlink:href="#3" y="6.513"/><use xlink:href="#8" y="8.684"/><use xlink:href="#9" y="10.855"/><use xlink:href="#10" y="13.026"/><use xlink:href="#11" y="15.197"/><use xlink:href="#12" y="17.368"/><use xlink:href="#13" y="19.539"/><use xlink:href="#14" y="23.881"/><use xlink:href="#15" y="26.052"/><use xlink:href="#14" y="28.223"/></svg><svg x="5040"><use xlink:href="#a"/><use xlink:href="#b" x="-.004" y="32.54"/><use xlink:href="#1"/><use xlink:href="#2" y="2.171"/><use xlink:href="#3" y="6.513"/><use xlink:href="#8" y="8.684"/><use xlink:href="#9" y="10.855"/><use xlink:href="#10" y="13.026"/><use xlink:href="#11" y="15.197"/><use xlink:href="#12" y="17.368"/><use xlink:href="#13" y="19.539"/><use xlink:href="#14" y="23.881"/><use xlink:href="#15" y="26.052"/><use xlink:href="#14" y="28.223"/></svg><svg x="5120"><use xlink:href="#a"/><use xlink:href="#b" x="-.004" y="32.54"/><use xlink:href="#1"/><use xlink:href="#2" y="2.171"/><use xlink:href="#3" y="6.513"/><use xlink:href="#8" y="8.684"/><use xlink:href="#9" y="10.855"/><use xlink:href="#10" y="13.026"/><use xlink:href="#11" y="15.197"/><use xlink:href="#12" y="17.368"/><use xlink:href="#13" y="19.539"/><use xlink:href="#14" y="23.881"/><use xlink:href="#15" y="26.052"/><use xlink:href="#14" y="28.223"/></svg><svg x="5200"><use xlink:href="#a"/><use xlink:href="#b" x="1.996" y="34.711"/><use xlink:href="#2"/><use xlink:href="#3" y="4.342"/><use xlink:href="#8" y="6.513"/><use xlink:href="#9" y="8.684"/><use xlink:href="#10" y="10.855"/><use xlink:href="#11" y="13.026"/><use xlink:href="#12" y="15.197"/><use xlink:href="#13" y="17.368"/><use xlink:href="#14" y="21.71"/><use xlink:href="#15" y="23.881"/><use xlink:href="#14" y="26.052"/><use xlink:href="#16" y="32.565"/><use xlink:href="#4" y="34.736"/></svg><svg x="5280"><use xlink:href="#a"/><use xlink:href="#b" x="-.004" y="34.711"/><use xlink:href="#3" y="2.171"/><use xlink:href="#8" y="4.342"/><use xlink:href="#9" y="6.513"/><use xlink:href="#10" y="8.684"/><use xlink:href="#11" y="10.855"/><use xlink:href="#12" y="13.026"/><use xlink:href="#13" y="15.197"/><use xlink:href="#14" y="19.539"/><use xlink:href="#15" y="21.71"/><use xlink:href="#14" y="23.881"/><use xlink:href="#16" y="30.394"/><use xlink:href="#4" y="32.565"/></svg><svg x="5360"><use xlink:href="#a"/><use xlink:href="#b" x="-.004" y="34.711"/><use xlink:href="#3" y="2.171"/><use xlink:href="#8" y="4.342"/><use xlink:href="#9" y="6.513"/><use xlink:href="#10" y="8.684"/><use xlink:href="#11" y="10.855"/><use xlink:href="#12" y="13.026"/><use xlink:href="#13" y="15.197"/><use xlink:href="#14" y="19.539"/><use xlink:href="#15" y="21.71"/><use xlink:href="#14" y="23.881"/><use xlink:href="#16" y="30.394"/><use xlink:href="#4" y="32.565"/></svg><svg x="5440"><use xlink:href="#a"/><use xlink:href="#b" x="-.004" y="34.711"/><use xlink:href="#3" y="2.171"/><use xlink:href="#8" y="4.342"/><use xlink:href="#9" y="6.513"/><use xlink:href="#10" y="8.684"/><use xlink:href="#11" y="10.855"/><use xlink:href="#12" y="13.026"/><use xlink:href="#13" y="15.197"/><use xlink:href="#14" y="19.539"/><use xlink:href="#15" y="21.71"/><use xlink:href="#14" y="23.881"/><use xlink:href="#16" y="30.394"/><use xlink:href="#4" y="32.565"/></svg></svg></g></g></svg></svg>