<svg xmlns="http://www.w3.org/2000/svg" xmlns:xlink="http://www.w3.org/1999/xlink" width="990" height="667.88"><rect width="990" height="667.88" rx="5" ry="5" class="a"/><svg y="0%" x="0%"><circle cx="20" cy="20" r="6" fill="#ff5f58"/><circle cx="40" cy="20" r="6" fill="#ffbd2e"/><circle cx="60" cy="20" r="6" fill="#18c132"/></svg><svg height="607.88" viewBox="0 0 95 60.788" width="950" x="15" xmlns="http://www.w3.org/2000/svg" xmlns:xlink="http://www.w3.org/1999/xlink" y="50"><style>@keyframes t{0%{transform:translateX(0)}.33%{transform:translateX(-95px)}.89%{transform:translateX(-285px)}.91%{transform:translateX(-475px)}.93%{transform:translateX(-570px)}.94%{transform:translateX(-665px)}4.01%{transform:translateX(-760px)}4.02%{transform:translateX(-950px)}4.99%{transform:translateX(-1045px)}5.35%{transform:translateX(-1140px)}5.74%{transform:translateX(-1330px)}6.45%{transform:translateX(-1520px)}7.97%{transform:translateX(-1710px)}9.65%{transform:translateX(-1805px)}9.66%{transform:translateX(-2090px)}14.25%{transform:translateX(-2185px)}14.26%{transform:translateX(-2945px)}17.38%{transform:translateX(-3040px)}17.77%{transform:translateX(-3135px)}18.62%{transform:translateX(-3230px)}19.49%{transform:translateX(-3420px)}20.35%{transform:translateX(-3515px)}20.41%{transform:translateX(-3705px)}20.43%{transform:translateX(-3990px)}36.32%{transform:translateX(-4275px)}37.3%{transform:translateX(-4370px)}38%{transform:translateX(-4465px)}38.64%{transform:translateX(-4655px)}40.45%{transform:translateX(-4845px)}41.96%{transform:translateX(-5035px)}41.97%{transform:translateX(-5320px)}42.08%{transform:translateX(-5415px)}54.76%{transform:translateX(-5510px)}63.25%{transform:translateX(-5700px)}63.27%{transform:translateX(-5890px)}72.7%{transform:translateX(-6080px)}73.86%{transform:translateX(-6175px)}73.87%{transform:translateX(-6270px)}77.21%{transform:translateX(-6555px)}77.22%{transform:translateX(-6650px)}89.8%{transform:translateX(-6745px)}89.87%{transform:translateX(-7030px)}89.89%{transform:translateX(-7220px)}to{transform:translateX(-7410px)}}.a{fill:#282d35}.f,.g{fill:#b9c0cb;white-space:pre}.g{fill:#a8cc8c}.h{fill:#66c2cd;font-weight:700}.h,.i,.j,.k,.l{white-space:pre}.i{fill:#a8cc8c;font-weight:700}.j,.k,.l{fill:#005fd7}.k,.l{fill:#555}.l{fill:#00afff}.m{fill:#e88388}.n{fill:#b9bfca;white-space:pre}.o{fill:#66c2cd}.o,.p,.q,.v{white-space:pre}.p{fill:#dbab79;font-weight:700}.q,.v{fill:#00a6b2}.v{fill:red}</style><g font-family="Monaco,Consolas,Menlo,'Bitstream Vera Sans Mono','Powerline Symbols',monospace" font-size="1.67"><defs><symbol id="1"><text y="1.67" class="f">Welcome</text><text x="8.016" y="1.67" class="f">to</text><text x="11.022" y="1.67" class="f">fish,</text><text x="17.034" y="1.67" class="f">the</text><text x="21.042" y="1.67" class="f">friendly</text><text x="30.06" y="1.67" class="f">interactive</text><text x="42.084" y="1.67" class="f">shell</text></symbol><symbol id="2"><text y="1.67" class="f">Type</text><text x="5.01" y="1.67" class="f">`help`</text><text x="12.024" y="1.67" class="f">for</text><text x="16.032" y="1.67" class="f">instructions</text><text x="29.058" y="1.67" class="f">on</text><text x="32.064" y="1.67" class="f">how</text><text x="36.072" y="1.67" class="f">to</text><text x="39.078" y="1.67" class="f">use</text><text x="43.086" y="1.67" class="f">fish</text></symbol><symbol id="3"><text y="1.67" class="g">⛵</text><text x="2.004" y="1.67" class="g">factorial-dev</text><text x="16.032" y="1.67" class="f">in</text><text x="19.038" y="1.67" class="h">~/Desktop/secrets-in-phab</text></symbol><symbol id="4"><text y="1.67" class="i">❯</text></symbol><symbol id="5"><text y="1.67" class="i">❯</text><text x="2.004" y="1.67" class="j">phab</text><text x="7.014" y="1.67" class="k">-clocal</text><text x="15.03" y="1.67" class="k">script</text><text x="22.044" y="1.67" class="k">demo</text></symbol><symbol id="6"><text y="1.67" class="i">❯</text><text x="2.004" y="1.67" class="j">phab</text><text x="7.014" y="1.67" class="l">-clocal</text><text x="15.03" y="1.67" class="l">script</text><text x="22.044" y="1.67" class="l">demo</text></symbol><symbol id="7"><text y="1.67" class="f">[ERROR]</text><text x="8.016" y="1.67" class="f">2021/08/28</text><text x="19.038" y="1.67" class="f">12:53:21</text><text x="28.056" y="1.67" class="f">You</text><text x="32.064" y="1.67" class="f">are</text><text x="36.072" y="1.67" class="f">not</text><text x="40.08" y="1.67" class="f">currently</text><text x="50.1" y="1.67" class="f">signed</text><text x="57.114" y="1.67" class="f">in.</text><text x="61.122" y="1.67" class="f">Please</text><text x="68.136" y="1.67" class="f">run</text><text x="72.144" y="1.67" class="f">`op</text><text x="76.152" y="1.67" class="f">signin</text><text x="83.166" y="1.67" class="f">--help`</text><text x="91.182" y="1.67" class="f">for</text></symbol><symbol id="8"><text y="1.67" class="f">instructions</text></symbol><symbol id="9"><path class="m" d="M0 0h95v2.171H0z"/><text y="1.67" class="n"></text></symbol><symbol id="10"><path class="m" d="M0 0h95v2.171H0z"/><text y="1.67" class="n">[ERROR] 1Password returned an error, are you logged in?</text></symbol><symbol id="11"><text x="1.002" y="1.67" class="o">What</text><text x="6.012" y="1.67" class="o">is</text><text x="9.018" y="1.67" class="o">the</text><text x="13.026" y="1.67" class="o">secret</text><text x="20.04" y="1.67" class="o">for</text><text x="24.048" y="1.67" class="o">foo</text><text x="27.054" y="1.67" class="f">:</text></symbol><symbol id="12"><text x="1.002" y="1.67" class="f">&gt;</text><text x="3.006" y="1.67" class="f">baz</text></symbol><symbol id="13"><text y="1.67" class="f">host.fooSecret</text><text x="15.03" y="1.67" class="f">is</text><text x="18.036" y="1.67" class="f">baz</text></symbol><symbol id="14"><text y="1.67" class="g">⛵</text><text x="2.004" y="1.67" class="g">factorial-dev</text><text x="16.032" y="1.67" class="f">in</text><text x="19.038" y="1.67" class="h">~/Desktop/secrets-in-phab</text><text x="45.09" y="1.67" class="f">took</text><text x="50.1" y="1.67" class="p">2s</text></symbol><symbol id="15"><text y="1.67" class="i">❯</text><text x="2.004" y="1.67" class="j">eval</text><text x="7.014" y="1.67" class="q">(</text><text x="8.016" y="1.67" class="j">op</text><text x="11.022" y="1.67" class="l">signin</text><text x="18.036" y="1.67" class="l">factorial_io</text><text x="30.06" y="1.67" class="q">)</text></symbol><symbol id="16"><text y="1.67" class="f">Enter</text><text x="6.012" y="1.67" class="f">the</text><text x="10.02" y="1.67" class="f">password</text><text x="19.038" y="1.67" class="f">for</text><text x="23.046" y="1.67" class="f">stephan@factorial.io</text><text x="44.088" y="1.67" class="f">at</text><text x="47.094" y="1.67" class="f">factorial-io.1password.com:</text></symbol><symbol id="17"><text y="1.67" class="g">⛵</text><text x="2.004" y="1.67" class="g">factorial-dev</text><text x="16.032" y="1.67" class="f">in</text><text x="19.038" y="1.67" class="h">~/Desktop/secrets-in-phab</text><text x="45.09" y="1.67" class="f">took</text><text x="50.1" y="1.67" class="p">4s</text></symbol><symbol id="18"><text y="1.67" class="f">host.fooSecret</text><text x="15.03" y="1.67" class="f">is</text><text x="18.036" y="1.67" class="f">a-very-very-secret-password</text></symbol><symbol id="a"><path fill="transparent" d="M0 0h95v28H0z"/></symbol><symbol id="b"><path fill="#6f7683" d="M0 0h1.102v2.171H0z"/></symbol></defs><path class="a" d="M0 0h95v60.788H0z"/><g style="animation-duration:20.272757s;animation-iteration-count:infinite;animation-name:t;animation-timing-function:steps(1,end)"><svg width="7505"><svg><use xlink:href="#a"/><use xlink:href="#b" x="-.004"/></svg><svg x="95"><use xlink:href="#a"/><use xlink:href="#b" x="-.004"/></svg><svg x="190"><use xlink:href="#a"/><use xlink:href="#b" x="-.004" y="4.317"/><use xlink:href="#1"/><use xlink:href="#2" y="2.171"/></svg><svg x="285"><use xlink:href="#a"/><use xlink:href="#b" x="-.004" y="4.317"/><use xlink:href="#1"/><use xlink:href="#2" y="2.171"/></svg><svg x="380"><use xlink:href="#a"/><use xlink:href="#b" x="-.004" y="4.317"/><use xlink:href="#1"/><use xlink:href="#2" y="2.171"/></svg><svg x="475"><use xlink:href="#a"/><use xlink:href="#b" x="-.004" y="4.317"/><use xlink:href="#1"/><use xlink:href="#2" y="2.171"/></svg><svg x="570"><use xlink:href="#a"/><use xlink:href="#b" x="-.004" y="4.317"/><use xlink:href="#1"/><use xlink:href="#2" y="2.171"/></svg><svg x="665"><use xlink:href="#a"/><use xlink:href="#b" x="1.996" y="8.659"/><use xlink:href="#1"/><use xlink:href="#2" y="2.171"/><use xlink:href="#3" y="6.513"/><use xlink:href="#4" y="8.684"/></svg><svg x="760"><use xlink:href="#a"/><use xlink:href="#b" x="2.996" y="8.659"/><use xlink:href="#1"/><use xlink:href="#2" y="2.171"/><use xlink:href="#3" y="6.513"/><text y="10.354" class="i">❯</text><text x="2.004" y="10.354" class="f">p</text></svg><svg x="855"><use xlink:href="#a"/><use xlink:href="#b" x="2.996" y="8.659"/><use xlink:href="#1"/><use xlink:href="#2" y="2.171"/><use xlink:href="#3" y="6.513"/><text y="10.354" class="i">❯</text><text x="2.004" y="10.354" class="v">p</text></svg><svg x="950"><use xlink:href="#a"/><use xlink:href="#b" x="2.996" y="8.659"/><use xlink:href="#1"/><use xlink:href="#2" y="2.171"/><use xlink:href="#3" y="6.513"/><text y="10.354" class="i">❯</text><text x="2.004" y="10.354" class="v">p</text><text x="3.006" y="10.354" class="k">hab</text><text x="7.014" y="10.354" class="k">-clocal</text><text x="15.03" y="10.354" class="k">script</text><text x="22.044" y="10.354" class="k">demo</text></svg><svg x="1045"><use xlink:href="#a"/><use xlink:href="#b" x="3.996" y="8.659"/><use xlink:href="#1"/><use xlink:href="#2" y="2.171"/><use xlink:href="#3" y="6.513"/><text y="10.354" class="i">❯</text><text x="2.004" y="10.354" class="v">ph</text><text x="4.008" y="10.354" class="k">ab</text><text x="7.014" y="10.354" class="k">-clocal</text><text x="15.03" y="10.354" class="k">script</text><text x="22.044" y="10.354" class="k">demo</text></svg><svg x="1140"><use xlink:href="#a"/><use xlink:href="#b" x="4.996" y="8.659"/><use xlink:href="#1"/><use xlink:href="#2" y="2.171"/><use xlink:href="#3" y="6.513"/><text y="10.354" class="i">❯</text><text x="2.004" y="10.354" class="v">pha</text><text x="5.01" y="10.354" class="k">b</text><text x="7.014" y="10.354" class="k">-clocal</text><text x="15.03" y="10.354" class="k">script</text><text x="22.044" y="10.354" class="k">demo</text></svg><svg x="1235"><use xlink:href="#a"/><use xlink:href="#b" x="5.996" y="8.659"/><use xlink:href="#1"/><use xlink:href="#2" y="2.171"/><use xlink:href="#3" y="6.513"/><text y="10.354" class="i">❯</text><text x="2.004" y="10.354" class="v">phab</text><text x="7.014" y="10.354" class="k">-clocal</text><text x="15.03" y="10.354" class="k">script</text><text x="22.044" y="10.354" class="k">demo</text></svg><svg x="1330"><use xlink:href="#a"/><use xlink:href="#b" x="5.996" y="8.659"/><use xlink:href="#1"/><use xlink:href="#2" y="2.171"/><use xlink:href="#3" y="6.513"/><use xlink:href="#5" y="8.684"/></svg><svg x="1425"><use xlink:href="#a"/><use xlink:href="#b" x="6.996" y="8.659"/><use xlink:href="#1"/><use xlink:href="#2" y="2.171"/><use xlink:href="#3" y="6.513"/><use xlink:href="#5" y="8.684"/></svg><svg x="1520"><use xlink:href="#a"/><use xlink:href="#b" x="6.996" y="8.659"/><use xlink:href="#1"/><use xlink:href="#2" y="2.171"/><use xlink:href="#3" y="6.513"/><use xlink:href="#5" y="8.684"/></svg><svg x="1615"><use xlink:href="#a"/><use xlink:href="#b" x="25.996" y="8.659"/><use xlink:href="#1"/><use xlink:href="#2" y="2.171"/><use xlink:href="#3" y="6.513"/><text y="10.354" class="i">❯</text><text x="2.004" y="10.354" class="j">phab</text><text x="7.014" y="10.354" class="f">-clocal</text><text x="15.03" y="10.354" class="f">script</text><text x="22.044" y="10.354" class="f">demo</text></svg><svg x="1710"><use xlink:href="#a"/><use xlink:href="#b" x="25.996" y="8.659"/><use xlink:href="#1"/><use xlink:href="#2" y="2.171"/><use xlink:href="#3" y="6.513"/><use xlink:href="#6" y="8.684"/></svg><svg x="1805"><use xlink:href="#a"/><use xlink:href="#b" x="-.004" y="10.83"/><use xlink:href="#1"/><use xlink:href="#2" y="2.171"/><use xlink:href="#3" y="6.513"/><use xlink:href="#6" y="8.684"/></svg><svg x="1900"><use xlink:href="#a"/><use xlink:href="#b" x="-.004" y="10.83"/><use xlink:href="#1"/><use xlink:href="#2" y="2.171"/><use xlink:href="#3" y="6.513"/><use xlink:href="#6" y="8.684"/></svg><svg x="1995"><use xlink:href="#a"/><use xlink:href="#b" x="-.004" y="10.83"/><use xlink:href="#1"/><use xlink:href="#2" y="2.171"/><use xlink:href="#3" y="6.513"/><use xlink:href="#6" y="8.684"/></svg><svg x="2090"><use xlink:href="#a"/><use xlink:href="#b" x="-.004" y="10.83"/><use xlink:href="#1"/><use xlink:href="#2" y="2.171"/><use xlink:href="#3" y="6.513"/><use xlink:href="#6" y="8.684"/></svg><svg x="2185"><use xlink:href="#a"/><use xlink:href="#b" x="-.004" y="15.172"/><use xlink:href="#1"/><use xlink:href="#2" y="2.171"/><use xlink:href="#3" y="6.513"/><use xlink:href="#6" y="8.684"/><use xlink:href="#7" y="10.855"/><use xlink:href="#8" y="13.026"/></svg><svg x="2280"><use xlink:href="#a"/><use xlink:href="#b" x="-.004" y="17.343"/><use xlink:href="#1"/><use xlink:href="#2" y="2.171"/><use xlink:href="#3" y="6.513"/><use xlink:href="#6" y="8.684"/><use xlink:href="#7" y="10.855"/><use xlink:href="#8" y="13.026"/></svg><svg x="2375"><use xlink:href="#a"/><use xlink:href="#b" x="-.004" y="19.514"/><use xlink:href="#1"/><use xlink:href="#2" y="2.171"/><use xlink:href="#3" y="6.513"/><use xlink:href="#6" y="8.684"/><use xlink:href="#7" y="10.855"/><use xlink:href="#8" y="13.026"/><use xlink:href="#9" y="17.368"/></svg><svg x="2470"><use xlink:href="#a"/><use xlink:href="#b" x="-.004" y="21.685"/><use xlink:href="#1"/><use xlink:href="#2" y="2.171"/><use xlink:href="#3" y="6.513"/><use xlink:href="#6" y="8.684"/><use xlink:href="#7" y="10.855"/><use xlink:href="#8" y="13.026"/><use xlink:href="#9" y="17.368"/><use xlink:href="#10" y="19.539"/></svg><svg x="2565"><use xlink:href="#a"/><use xlink:href="#b" x="-.004" y="23.856"/><use xlink:href="#1"/><use xlink:href="#2" y="2.171"/><use xlink:href="#3" y="6.513"/><use xlink:href="#6" y="8.684"/><use xlink:href="#7" y="10.855"/><use xlink:href="#8" y="13.026"/><use xlink:href="#9" y="17.368"/><use xlink:href="#10" y="19.539"/><use xlink:href="#9" y="21.71"/></svg><svg x="2660"><use xlink:href="#a"/><use xlink:href="#b" x="-.004" y="26.027"/><use xlink:href="#1"/><use xlink:href="#2" y="2.171"/><use xlink:href="#3" y="6.513"/><use xlink:href="#6" y="8.684"/><use xlink:href="#7" y="10.855"/><use xlink:href="#8" y="13.026"/><use xlink:href="#9" y="17.368"/><use xlink:href="#10" y="19.539"/><use xlink:href="#9" y="21.71"/></svg><svg x="2755"><use xlink:href="#a"/><use xlink:href="#b" x="-.004" y="28.198"/><use xlink:href="#1"/><use xlink:href="#2" y="2.171"/><use xlink:href="#3" y="6.513"/><use xlink:href="#6" y="8.684"/><use xlink:href="#7" y="10.855"/><use xlink:href="#8" y="13.026"/><use xlink:href="#9" y="17.368"/><use xlink:href="#10" y="19.539"/><use xlink:href="#9" y="21.71"/></svg><svg x="2850"><use xlink:href="#a"/><use xlink:href="#b" x="-.004" y="30.369"/><use xlink:href="#1"/><use xlink:href="#2" y="2.171"/><use xlink:href="#3" y="6.513"/><use xlink:href="#6" y="8.684"/><use xlink:href="#7" y="10.855"/><use xlink:href="#8" y="13.026"/><use xlink:href="#9" y="17.368"/><use xlink:href="#10" y="19.539"/><use xlink:href="#9" y="21.71"/><use xlink:href="#11" y="28.223"/></svg><svg x="2945"><use xlink:href="#a"/><use xlink:href="#b" x="2.996" y="30.369"/><use xlink:href="#1"/><use xlink:href="#2" y="2.171"/><use xlink:href="#3" y="6.513"/><use xlink:href="#6" y="8.684"/><use xlink:href="#7" y="10.855"/><use xlink:href="#8" y="13.026"/><use xlink:href="#9" y="17.368"/><use xlink:href="#10" y="19.539"/><use xlink:href="#9" y="21.71"/><use xlink:href="#11" y="28.223"/><text x="1.002" y="32.064" class="f">&gt;</text></svg><svg x="3040"><use xlink:href="#a"/><use xlink:href="#b" x="3.996" y="30.369"/><use xlink:href="#1"/><use xlink:href="#2" y="2.171"/><use xlink:href="#3" y="6.513"/><use xlink:href="#6" y="8.684"/><use xlink:href="#7" y="10.855"/><use xlink:href="#8" y="13.026"/><use xlink:href="#9" y="17.368"/><use xlink:href="#10" y="19.539"/><use xlink:href="#9" y="21.71"/><use xlink:href="#11" y="28.223"/><text x="1.002" y="32.064" class="f">&gt;</text><text x="3.006" y="32.064" class="f">b</text></svg><svg x="3135"><use xlink:href="#a"/><use xlink:href="#b" x="4.996" y="30.369"/><use xlink:href="#1"/><use xlink:href="#2" y="2.171"/><use xlink:href="#3" y="6.513"/><use xlink:href="#6" y="8.684"/><use xlink:href="#7" y="10.855"/><use xlink:href="#8" y="13.026"/><use xlink:href="#9" y="17.368"/><use xlink:href="#10" y="19.539"/><use xlink:href="#9" y="21.71"/><use xlink:href="#11" y="28.223"/><text x="1.002" y="32.064" class="f">&gt;</text><text x="3.006" y="32.064" class="f">ba</text></svg><svg x="3230"><use xlink:href="#a"/><use xlink:href="#b" x="5.996" y="30.369"/><use xlink:href="#1"/><use xlink:href="#2" y="2.171"/><use xlink:href="#3" y="6.513"/><use xlink:href="#6" y="8.684"/><use xlink:href="#7" y="10.855"/><use xlink:href="#8" y="13.026"/><use xlink:href="#9" y="17.368"/><use xlink:href="#10" y="19.539"/><use xlink:href="#9" y="21.71"/><use xlink:href="#11" y="28.223"/><use xlink:href="#12" y="30.394"/></svg><svg x="3325"><use xlink:href="#a"/><use xlink:href="#b" x="-.004" y="32.54"/><use xlink:href="#1"/><use xlink:href="#2" y="2.171"/><use xlink:href="#3" y="6.513"/><use xlink:href="#6" y="8.684"/><use xlink:href="#7" y="10.855"/><use xlink:href="#8" y="13.026"/><use xlink:href="#9" y="17.368"/><use xlink:href="#10" y="19.539"/><use xlink:href="#9" y="21.71"/><use xlink:href="#11" y="28.223"/><use xlink:href="#12" y="30.394"/></svg><svg x="3420"><use xlink:href="#a"/><use xlink:href="#b" x="-.004" y="34.711"/><use xlink:href="#1"/><use xlink:href="#2" y="2.171"/><use xlink:href="#3" y="6.513"/><use xlink:href="#6" y="8.684"/><use xlink:href="#7" y="10.855"/><use xlink:href="#8" y="13.026"/><use xlink:href="#9" y="17.368"/><use xlink:href="#10" y="19.539"/><use xlink:href="#9" y="21.71"/><use xlink:href="#11" y="28.223"/><use xlink:href="#12" y="30.394"/></svg><svg x="3515"><use xlink:href="#a"/><use xlink:href="#b" x="-.004" y="36.882"/><use xlink:href="#1"/><use xlink:href="#2" y="2.171"/><use xlink:href="#3" y="6.513"/><use xlink:href="#6" y="8.684"/><use xlink:href="#7" y="10.855"/><use xlink:href="#8" y="13.026"/><use xlink:href="#9" y="17.368"/><use xlink:href="#10" y="19.539"/><use xlink:href="#9" y="21.71"/><use xlink:href="#11" y="28.223"/><use xlink:href="#12" y="30.394"/><use xlink:href="#13" y="34.736"/></svg><svg x="3610"><use xlink:href="#a"/><use xlink:href="#b" x="-.004" y="36.882"/><use xlink:href="#1"/><use xlink:href="#2" y="2.171"/><use xlink:href="#3" y="6.513"/><use xlink:href="#6" y="8.684"/><use xlink:href="#7" y="10.855"/><use xlink:href="#8" y="13.026"/><use xlink:href="#9" y="17.368"/><use xlink:href="#10" y="19.539"/><use xlink:href="#9" y="21.71"/><use xlink:href="#11" y="28.223"/><use xlink:href="#12" y="30.394"/><use xlink:href="#13" y="34.736"/></svg><svg x="3705"><use xlink:href="#a"/><use xlink:href="#b" x="-.004" y="36.882"/><use xlink:href="#1"/><use xlink:href="#2" y="2.171"/><use xlink:href="#3" y="6.513"/><use xlink:href="#6" y="8.684"/><use xlink:href="#7" y="10.855"/><use xlink:href="#8" y="13.026"/><use xlink:href="#9" y="17.368"/><use xlink:href="#10" y="19.539"/><use xlink:href="#9" y="21.71"/><use xlink:href="#11" y="28.223"/><use xlink:href="#12" y="30.394"/><use xlink:href="#13" y="34.736"/></svg><svg x="3800"><use xlink:href="#a"/><use xlink:href="#b" x="-.004" y="36.882"/><use xlink:href="#1"/><use xlink:href="#2" y="2.171"/><use xlink:href="#3" y="6.513"/><use xlink:href="#6" y="8.684"/><use xlink:href="#7" y="10.855"/><use xlink:href="#8" y="13.026"/><use xlink:href="#9" y="17.368"/><use xlink:href="#10" y="19.539"/><use xlink:href="#9" y="21.71"/><use xlink:href="#11" y="28.223"/><use xlink:href="#12" y="30.394"/><use xlink:href="#13" y="34.736"/></svg><svg x="3895"><use xlink:href="#a"/><use xlink:href="#b" x="-.004" y="36.882"/><use xlink:href="#1"/><use xlink:href="#2" y="2.171"/><use xlink:href="#3" y="6.513"/><use xlink:href="#6" y="8.684"/><use xlink:href="#7" y="10.855"/><use xlink:href="#8" y="13.026"/><use xlink:href="#9" y="17.368"/><use xlink:href="#10" y="19.539"/><use xlink:href="#9" y="21.71"/><use xlink:href="#11" y="28.223"/><use xlink:href="#12" y="30.394"/><use xlink:href="#13" y="34.736"/></svg><svg x="3990"><use xlink:href="#a"/><use xlink:href="#b" x="1.996" y="41.224"/><use xlink:href="#1"/><use xlink:href="#2" y="2.171"/><use xlink:href="#3" y="6.513"/><use xlink:href="#6" y="8.684"/><use xlink:href="#7" y="10.855"/><use xlink:href="#8" y="13.026"/><use xlink:href="#9" y="17.368"/><use xlink:href="#10" y="19.539"/><use xlink:href="#9" y="21.71"/><use xlink:href="#11" y="28.223"/><use xlink:href="#12" y="30.394"/><use xlink:href="#13" y="34.736"/><use xlink:href="#14" y="39.078"/><use xlink:href="#4" y="41.249"/></svg><svg x="4085"><use xlink:href="#a"/><use xlink:href="#b" x="2.996" y="41.224"/><use xlink:href="#1"/><use xlink:href="#2" y="2.171"/><use xlink:href="#3" y="6.513"/><use xlink:href="#6" y="8.684"/><use xlink:href="#7" y="10.855"/><use xlink:href="#8" y="13.026"/><use xlink:href="#9" y="17.368"/><use xlink:href="#10" y="19.539"/><use xlink:href="#9" y="21.71"/><use xlink:href="#11" y="28.223"/><use xlink:href="#12" y="30.394"/><use xlink:href="#13" y="34.736"/><use xlink:href="#14" y="39.078"/><text y="42.919" class="i">❯</text><text x="2.004" y="42.919" class="f">e</text></svg><svg x="4180"><use xlink:href="#a"/><use xlink:href="#b" x="2.996" y="41.224"/><use xlink:href="#1"/><use xlink:href="#2" y="2.171"/><use xlink:href="#3" y="6.513"/><use xlink:href="#6" y="8.684"/><use xlink:href="#7" y="10.855"/><use xlink:href="#8" y="13.026"/><use xlink:href="#9" y="17.368"/><use xlink:href="#10" y="19.539"/><use xlink:href="#9" y="21.71"/><use xlink:href="#11" y="28.223"/><use xlink:href="#12" y="30.394"/><use xlink:href="#13" y="34.736"/><use xlink:href="#14" y="39.078"/><text y="42.919" class="i">❯</text><text x="2.004" y="42.919" class="f">e</text><text x="3.006" y="42.919" class="k">val</text><text x="7.014" y="42.919" class="k">(op</text><text x="11.022" y="42.919" class="k">signin</text><text x="18.036" y="42.919" class="k">factorial_io)</text></svg><svg x="4275"><use xlink:href="#a"/><use xlink:href="#b" x="2.996" y="41.224"/><use xlink:href="#1"/><use xlink:href="#2" y="2.171"/><use xlink:href="#3" y="6.513"/><use xlink:href="#6" y="8.684"/><use xlink:href="#7" y="10.855"/><use xlink:href="#8" y="13.026"/><use xlink:href="#9" y="17.368"/><use xlink:href="#10" y="19.539"/><use xlink:href="#9" y="21.71"/><use xlink:href="#11" y="28.223"/><use xlink:href="#12" y="30.394"/><use xlink:href="#13" y="34.736"/><use xlink:href="#14" y="39.078"/><text y="42.919" class="i">❯</text><text x="2.004" y="42.919" class="v">e</text><text x="3.006" y="42.919" class="k">val</text><text x="7.014" y="42.919" class="k">(op</text><text x="11.022" y="42.919" class="k">signin</text><text x="18.036" y="42.919" class="k">factorial_io)</text></svg><svg x="4370"><use xlink:href="#a"/><use xlink:href="#b" x="3.996" y="41.224"/><use xlink:href="#1"/><use xlink:href="#2" y="2.171"/><use xlink:href="#3" y="6.513"/><use xlink:href="#6" y="8.684"/><use xlink:href="#7" y="10.855"/><use xlink:href="#8" y="13.026"/><use xlink:href="#9" y="17.368"/><use xlink:href="#10" y="19.539"/><use xlink:href="#9" y="21.71"/><use xlink:href="#11" y="28.223"/><use xlink:href="#12" y="30.394"/><use xlink:href="#13" y="34.736"/><use xlink:href="#14" y="39.078"/><text y="42.919" class="i">❯</text><text x="2.004" y="42.919" class="v">ev</text><text x="4.008" y="42.919" class="k">al</text><text x="7.014" y="42.919" class="k">(op</text><text x="11.022" y="42.919" class="k">signin</text><text x="18.036" y="42.919" class="k">factorial_io)</text></svg><svg x="4465"><use xlink:href="#a"/><use xlink:href="#b" x="4.996" y="41.224"/><use xlink:href="#1"/><use xlink:href="#2" y="2.171"/><use xlink:href="#3" y="6.513"/><use xlink:href="#6" y="8.684"/><use xlink:href="#7" y="10.855"/><use xlink:href="#8" y="13.026"/><use xlink:href="#9" y="17.368"/><use xlink:href="#10" y="19.539"/><use xlink:href="#9" y="21.71"/><use xlink:href="#11" y="28.223"/><use xlink:href="#12" y="30.394"/><use xlink:href="#13" y="34.736"/><use xlink:href="#14" y="39.078"/><text y="42.919" class="i">❯</text><text x="2.004" y="42.919" class="v">eva</text><text x="5.01" y="42.919" class="k">l</text><text x="7.014" y="42.919" class="k">(op</text><text x="11.022" y="42.919" class="k">signin</text><text x="18.036" y="42.919" class="k">factorial_io)</text></svg><svg x="4560"><use xlink:href="#a"/><use xlink:href="#b" x="5.996" y="41.224"/><use xlink:href="#1"/><use xlink:href="#2" y="2.171"/><use xlink:href="#3" y="6.513"/><use xlink:href="#6" y="8.684"/><use xlink:href="#7" y="10.855"/><use xlink:href="#8" y="13.026"/><use xlink:href="#9" y="17.368"/><use xlink:href="#10" y="19.539"/><use xlink:href="#9" y="21.71"/><use xlink:href="#11" y="28.223"/><use xlink:href="#12" y="30.394"/><use xlink:href="#13" y="34.736"/><use xlink:href="#14" y="39.078"/><text y="42.919" class="i">❯</text><text x="2.004" y="42.919" class="v">eval</text><text x="7.014" y="42.919" class="k">(op</text><text x="11.022" y="42.919" class="k">signin</text><text x="18.036" y="42.919" class="k">factorial_io)</text></svg><svg x="4655"><use xlink:href="#a"/><use xlink:href="#b" x="5.996" y="41.224"/><use xlink:href="#1"/><use xlink:href="#2" y="2.171"/><use xlink:href="#3" y="6.513"/><use xlink:href="#6" y="8.684"/><use xlink:href="#7" y="10.855"/><use xlink:href="#8" y="13.026"/><use xlink:href="#9" y="17.368"/><use xlink:href="#10" y="19.539"/><use xlink:href="#9" y="21.71"/><use xlink:href="#11" y="28.223"/><use xlink:href="#12" y="30.394"/><use xlink:href="#13" y="34.736"/><use xlink:href="#14" y="39.078"/><text y="42.919" class="i">❯</text><text x="2.004" y="42.919" class="j">eval</text><text x="7.014" y="42.919" class="k">(op</text><text x="11.022" y="42.919" class="k">signin</text><text x="18.036" y="42.919" class="k">factorial_io)</text></svg><svg x="4750"><use xlink:href="#a"/><use xlink:href="#b" x="30.996" y="41.224"/><use xlink:href="#1"/><use xlink:href="#2" y="2.171"/><use xlink:href="#3" y="6.513"/><use xlink:href="#6" y="8.684"/><use xlink:href="#7" y="10.855"/><use xlink:href="#8" y="13.026"/><use xlink:href="#9" y="17.368"/><use xlink:href="#10" y="19.539"/><use xlink:href="#9" y="21.71"/><use xlink:href="#11" y="28.223"/><use xlink:href="#12" y="30.394"/><use xlink:href="#13" y="34.736"/><use xlink:href="#14" y="39.078"/><text y="42.919" class="i">❯</text><text x="2.004" y="42.919" class="j">eval</text><text x="7.014" y="42.919" class="j">(op</text><text x="11.022" y="42.919" class="j">signin</text><text x="18.036" y="42.919" class="j">factorial_io)</text></svg><svg x="4845"><use xlink:href="#a"/><use xlink:href="#b" x="30.996" y="41.224"/><use xlink:href="#1"/><use xlink:href="#2" y="2.171"/><use xlink:href="#3" y="6.513"/><use xlink:href="#6" y="8.684"/><use xlink:href="#7" y="10.855"/><use xlink:href="#8" y="13.026"/><use xlink:href="#9" y="17.368"/><use xlink:href="#10" y="19.539"/><use xlink:href="#9" y="21.71"/><use xlink:href="#11" y="28.223"/><use xlink:href="#12" y="30.394"/><use xlink:href="#13" y="34.736"/><use xlink:href="#14" y="39.078"/><use xlink:href="#15" y="41.249"/></svg><svg x="4940"><use xlink:href="#a"/><use xlink:href="#b" x="-.004" y="43.395"/><use xlink:href="#1"/><use xlink:href="#2" y="2.171"/><use xlink:href="#3" y="6.513"/><use xlink:href="#6" y="8.684"/><use xlink:href="#7" y="10.855"/><use xlink:href="#8" y="13.026"/><use xlink:href="#9" y="17.368"/><use xlink:href="#10" y="19.539"/><use xlink:href="#9" y="21.71"/><use xlink:href="#11" y="28.223"/><use xlink:href="#12" y="30.394"/><use xlink:href="#13" y="34.736"/><use xlink:href="#14" y="39.078"/><use xlink:href="#15" y="41.249"/></svg><svg x="5035"><use xlink:href="#a"/><use xlink:href="#b" x="-.004" y="43.395"/><use xlink:href="#1"/><use xlink:href="#2" y="2.171"/><use xlink:href="#3" y="6.513"/><use xlink:href="#6" y="8.684"/><use xlink:href="#7" y="10.855"/><use xlink:href="#8" y="13.026"/><use xlink:href="#9" y="17.368"/><use xlink:href="#10" y="19.539"/><use xlink:href="#9" y="21.71"/><use xlink:href="#11" y="28.223"/><use xlink:href="#12" y="30.394"/><use xlink:href="#13" y="34.736"/><use xlink:href="#14" y="39.078"/><use xlink:href="#15" y="41.249"/></svg><svg x="5130"><use xlink:href="#a"/><use xlink:href="#b" x="-.004" y="43.395"/><use xlink:href="#1"/><use xlink:href="#2" y="2.171"/><use xlink:href="#3" y="6.513"/><use xlink:href="#6" y="8.684"/><use xlink:href="#7" y="10.855"/><use xlink:href="#8" y="13.026"/><use xlink:href="#9" y="17.368"/><use xlink:href="#10" y="19.539"/><use xlink:href="#9" y="21.71"/><use xlink:href="#11" y="28.223"/><use xlink:href="#12" y="30.394"/><use xlink:href="#13" y="34.736"/><use xlink:href="#14" y="39.078"/><use xlink:href="#15" y="41.249"/></svg><svg x="5225"><use xlink:href="#a"/><use xlink:href="#b" x="-.004" y="43.395"/><use xlink:href="#1"/><use xlink:href="#2" y="2.171"/><use xlink:href="#3" y="6.513"/><use xlink:href="#6" y="8.684"/><use xlink:href="#7" y="10.855"/><use xlink:href="#8" y="13.026"/><use xlink:href="#9" y="17.368"/><use xlink:href="#10" y="19.539"/><use xlink:href="#9" y="21.71"/><use xlink:href="#11" y="28.223"/><use xlink:href="#12" y="30.394"/><use xlink:href="#13" y="34.736"/><use xlink:href="#14" y="39.078"/><use xlink:href="#15" y="41.249"/></svg><svg x="5320"><use xlink:href="#a"/><use xlink:href="#b" x="-.004" y="43.395"/><use xlink:href="#1"/><use xlink:href="#2" y="2.171"/><use xlink:href="#3" y="6.513"/><use xlink:href="#6" y="8.684"/><use xlink:href="#7" y="10.855"/><use xlink:href="#8" y="13.026"/><use xlink:href="#9" y="17.368"/><use xlink:href="#10" y="19.539"/><use xlink:href="#9" y="21.71"/><use xlink:href="#11" y="28.223"/><use xlink:href="#12" y="30.394"/><use xlink:href="#13" y="34.736"/><use xlink:href="#14" y="39.078"/><use xlink:href="#15" y="41.249"/></svg><svg x="5415"><use xlink:href="#a"/><use xlink:href="#b" x="74.996" y="43.395"/><use xlink:href="#1"/><use xlink:href="#2" y="2.171"/><use xlink:href="#3" y="6.513"/><use xlink:href="#6" y="8.684"/><use xlink:href="#7" y="10.855"/><use xlink:href="#8" y="13.026"/><use xlink:href="#9" y="17.368"/><use xlink:href="#10" y="19.539"/><use xlink:href="#9" y="21.71"/><use xlink:href="#11" y="28.223"/><use xlink:href="#12" y="30.394"/><use xlink:href="#13" y="34.736"/><use xlink:href="#14" y="39.078"/><use xlink:href="#15" y="41.249"/><use xlink:href="#16" y="43.42"/></svg><svg x="5510"><use xlink:href="#a"/><use xlink:href="#b" x="-.004" y="45.566"/><use xlink:href="#1"/><use xlink:href="#2" y="2.171"/><use xlink:href="#3" y="6.513"/><use xlink:href="#6" y="8.684"/><use xlink:href="#7" y="10.855"/><use xlink:href="#8" y="13.026"/><use xlink:href="#9" y="17.368"/><use xlink:href="#10" y="19.539"/><use xlink:href="#9" y="21.71"/><use xlink:href="#11" y="28.223"/><use xlink:href="#12" y="30.394"/><use xlink:href="#13" y="34.736"/><use xlink:href="#14" y="39.078"/><use xlink:href="#15" y="41.249"/><use xlink:href="#16" y="43.42"/></svg><svg x="5605"><use xlink:href="#a"/><use xlink:href="#b" x="-.004" y="45.566"/><use xlink:href="#1"/><use xlink:href="#2" y="2.171"/><use xlink:href="#3" y="6.513"/><use xlink:href="#6" y="8.684"/><use xlink:href="#7" y="10.855"/><use xlink:href="#8" y="13.026"/><use xlink:href="#9" y="17.368"/><use xlink:href="#10" y="19.539"/><use xlink:href="#9" y="21.71"/><use xlink:href="#11" y="28.223"/><use xlink:href="#12" y="30.394"/><use xlink:href="#13" y="34.736"/><use xlink:href="#14" y="39.078"/><use xlink:href="#15" y="41.249"/><use xlink:href="#16" y="43.42"/></svg><svg x="5700"><use xlink:href="#a"/><use xlink:href="#b" x="-.004" y="45.566"/><use xlink:href="#1"/><use xlink:href="#2" y="2.171"/><use xlink:href="#3" y="6.513"/><use xlink:href="#6" y="8.684"/><use xlink:href="#7" y="10.855"/><use xlink:href="#8" y="13.026"/><use xlink:href="#9" y="17.368"/><use xlink:href="#10" y="19.539"/><use xlink:href="#9" y="21.71"/><use xlink:href="#11" y="28.223"/><use xlink:href="#12" y="30.394"/><use xlink:href="#13" y="34.736"/><use xlink:href="#14" y="39.078"/><use xlink:href="#15" y="41.249"/><use xlink:href="#16" y="43.42"/></svg><svg x="5795"><use xlink:href="#a"/><use xlink:href="#b" x="-.004" y="45.566"/><use xlink:href="#1"/><use xlink:href="#2" y="2.171"/><use xlink:href="#3" y="6.513"/><use xlink:href="#6" y="8.684"/><use xlink:href="#7" y="10.855"/><use xlink:href="#8" y="13.026"/><use xlink:href="#9" y="17.368"/><use xlink:href="#10" y="19.539"/><use xlink:href="#9" y="21.71"/><use xlink:href="#11" y="28.223"/><use xlink:href="#12" y="30.394"/><use xlink:href="#13" y="34.736"/><use xlink:href="#14" y="39.078"/><use xlink:href="#15" y="41.249"/><use xlink:href="#16" y="43.42"/></svg><svg x="5890"><use xlink:href="#a"/><use xlink:href="#b" x="1.996" y="49.908"/><use xlink:href="#1"/><use xlink:href="#2" y="2.171"/><use xlink:href="#3" y="6.513"/><use xlink:href="#6" y="8.684"/><use xlink:href="#7" y="10.855"/><use xlink:href="#8" y="13.026"/><use xlink:href="#9" y="17.368"/><use xlink:href="#10" y="19.539"/><use xlink:href="#9" y="21.71"/><use xlink:href="#11" y="28.223"/><use xlink:href="#12" y="30.394"/><use xlink:href="#13" y="34.736"/><use xlink:href="#14" y="39.078"/><use xlink:href="#15" y="41.249"/><use xlink:href="#16" y="43.42"/><use xlink:href="#17" y="47.762"/><use xlink:href="#4" y="49.933"/></svg><svg x="5985"><use xlink:href="#a"/><use xlink:href="#b" x="30.996" y="49.908"/><use xlink:href="#1"/><use xlink:href="#2" y="2.171"/><use xlink:href="#3" y="6.513"/><use xlink:href="#6" y="8.684"/><use xlink:href="#7" y="10.855"/><use xlink:href="#8" y="13.026"/><use xlink:href="#9" y="17.368"/><use xlink:href="#10" y="19.539"/><use xlink:href="#9" y="21.71"/><use xlink:href="#11" y="28.223"/><use xlink:href="#12" y="30.394"/><use xlink:href="#13" y="34.736"/><use xlink:href="#14" y="39.078"/><use xlink:href="#15" y="41.249"/><use xlink:href="#16" y="43.42"/><use xlink:href="#17" y="47.762"/><text y="51.603" class="i">❯</text><text x="2.004" y="51.603" class="f">eval</text><text x="7.014" y="51.603" class="f">(op</text><text x="11.022" y="51.603" class="f">signin</text><text x="18.036" y="51.603" class="f">factorial_io)</text></svg><svg x="6080"><use xlink:href="#a"/><use xlink:href="#b" x="30.996" y="49.908"/><use xlink:href="#1"/><use xlink:href="#2" y="2.171"/><use xlink:href="#3" y="6.513"/><use xlink:href="#6" y="8.684"/><use xlink:href="#7" y="10.855"/><use xlink:href="#8" y="13.026"/><use xlink:href="#9" y="17.368"/><use xlink:href="#10" y="19.539"/><use xlink:href="#9" y="21.71"/><use xlink:href="#11" y="28.223"/><use xlink:href="#12" y="30.394"/><use xlink:href="#13" y="34.736"/><use xlink:href="#14" y="39.078"/><use xlink:href="#15" y="41.249"/><use xlink:href="#16" y="43.42"/><use xlink:href="#17" y="47.762"/><use xlink:href="#15" y="49.933"/></svg><svg x="6175"><use xlink:href="#a"/><use xlink:href="#b" x="25.996" y="49.908"/><use xlink:href="#1"/><use xlink:href="#2" y="2.171"/><use xlink:href="#3" y="6.513"/><use xlink:href="#6" y="8.684"/><use xlink:href="#7" y="10.855"/><use xlink:href="#8" y="13.026"/><use xlink:href="#9" y="17.368"/><use xlink:href="#10" y="19.539"/><use xlink:href="#9" y="21.71"/><use xlink:href="#11" y="28.223"/><use xlink:href="#12" y="30.394"/><use xlink:href="#13" y="34.736"/><use xlink:href="#14" y="39.078"/><use xlink:href="#15" y="41.249"/><use xlink:href="#16" y="43.42"/><use xlink:href="#17" y="47.762"/><text y="51.603" class="i">❯</text><text x="2.004" y="51.603" class="j">phab</text><text x="7.014" y="51.603" class="q">-</text><text x="8.016" y="51.603" class="j">cl</text><text x="10.02" y="51.603" class="f">o</text><text x="11.022" y="51.603" class="l">cal</text><text x="15.03" y="51.603" class="l">sc</text><text x="17.034" y="51.603" class="f">r</text><text x="18.036" y="51.603" class="l">ipt</text><text x="22.044" y="51.603" class="l">demo</text></svg><svg x="6270"><use xlink:href="#a"/><use xlink:href="#b" x="25.996" y="49.908"/><use xlink:href="#1"/><use xlink:href="#2" y="2.171"/><use xlink:href="#3" y="6.513"/><use xlink:href="#6" y="8.684"/><use xlink:href="#7" y="10.855"/><use xlink:href="#8" y="13.026"/><use xlink:href="#9" y="17.368"/><use xlink:href="#10" y="19.539"/><use xlink:href="#9" y="21.71"/><use xlink:href="#11" y="28.223"/><use xlink:href="#12" y="30.394"/><use xlink:href="#13" y="34.736"/><use xlink:href="#14" y="39.078"/><use xlink:href="#15" y="41.249"/><use xlink:href="#16" y="43.42"/><use xlink:href="#17" y="47.762"/><use xlink:href="#6" y="49.933"/></svg><svg x="6365"><use xlink:href="#a"/><use xlink:href="#b" x="-.004" y="52.079"/><use xlink:href="#1"/><use xlink:href="#2" y="2.171"/><use xlink:href="#3" y="6.513"/><use xlink:href="#6" y="8.684"/><use xlink:href="#7" y="10.855"/><use xlink:href="#8" y="13.026"/><use xlink:href="#9" y="17.368"/><use xlink:href="#10" y="19.539"/><use xlink:href="#9" y="21.71"/><use xlink:href="#11" y="28.223"/><use xlink:href="#12" y="30.394"/><use xlink:href="#13" y="34.736"/><use xlink:href="#14" y="39.078"/><use xlink:href="#15" y="41.249"/><use xlink:href="#16" y="43.42"/><use xlink:href="#17" y="47.762"/><use xlink:href="#6" y="49.933"/></svg><svg x="6460"><use xlink:href="#a"/><use xlink:href="#b" x="-.004" y="52.079"/><use xlink:href="#1"/><use xlink:href="#2" y="2.171"/><use xlink:href="#3" y="6.513"/><use xlink:href="#6" y="8.684"/><use xlink:href="#7" y="10.855"/><use xlink:href="#8" y="13.026"/><use xlink:href="#9" y="17.368"/><use xlink:href="#10" y="19.539"/><use xlink:href="#9" y="21.71"/><use xlink:href="#11" y="28.223"/><use xlink:href="#12" y="30.394"/><use xlink:href="#13" y="34.736"/><use xlink:href="#14" y="39.078"/><use xlink:href="#15" y="41.249"/><use xlink:href="#16" y="43.42"/><use xlink:href="#17" y="47.762"/><use xlink:href="#6" y="49.933"/></svg><svg x="6555"><use xlink:href="#a"/><use xlink:href="#b" x="-.004" y="52.079"/><use xlink:href="#1"/><use xlink:href="#2" y="2.171"/><use xlink:href="#3" y="6.513"/><use xlink:href="#6" y="8.684"/><use xlink:href="#7" y="10.855"/><use xlink:href="#8" y="13.026"/><use xlink:href="#9" y="17.368"/><use xlink:href="#10" y="19.539"/><use xlink:href="#9" y="21.71"/><use xlink:href="#11" y="28.223"/><use xlink:href="#12" y="30.394"/><use xlink:href="#13" y="34.736"/><use xlink:href="#14" y="39.078"/><use xlink:href="#15" y="41.249"/><use xlink:href="#16" y="43.42"/><use xlink:href="#17" y="47.762"/><use xlink:href="#6" y="49.933"/></svg><svg x="6650"><use xlink:href="#a"/><use xlink:href="#b" x="-.004" y="52.079"/><use xlink:href="#1"/><use xlink:href="#2" y="2.171"/><use xlink:href="#3" y="6.513"/><use xlink:href="#6" y="8.684"/><use xlink:href="#7" y="10.855"/><use xlink:href="#8" y="13.026"/><use xlink:href="#9" y="17.368"/><use xlink:href="#10" y="19.539"/><use xlink:href="#9" y="21.71"/><use xlink:href="#11" y="28.223"/><use xlink:href="#12" y="30.394"/><use xlink:href="#13" y="34.736"/><use xlink:href="#14" y="39.078"/><use xlink:href="#15" y="41.249"/><use xlink:href="#16" y="43.42"/><use xlink:href="#17" y="47.762"/><use xlink:href="#6" y="49.933"/></svg><svg x="6745"><use xlink:href="#a"/><use xlink:href="#b" x="-.004" y="54.25"/><use xlink:href="#1"/><use xlink:href="#2" y="2.171"/><use xlink:href="#3" y="6.513"/><use xlink:href="#6" y="8.684"/><use xlink:href="#7" y="10.855"/><use xlink:href="#8" y="13.026"/><use xlink:href="#9" y="17.368"/><use xlink:href="#10" y="19.539"/><use xlink:href="#9" y="21.71"/><use xlink:href="#11" y="28.223"/><use xlink:href="#12" y="30.394"/><use xlink:href="#13" y="34.736"/><use xlink:href="#14" y="39.078"/><use xlink:href="#15" y="41.249"/><use xlink:href="#16" y="43.42"/><use xlink:href="#17" y="47.762"/><use xlink:href="#6" y="49.933"/><use xlink:href="#18" y="52.104"/></svg><svg x="6840"><use xlink:href="#a"/><use xlink:href="#b" x="-.004" y="54.25"/><use xlink:href="#1"/><use xlink:href="#2" y="2.171"/><use xlink:href="#3" y="6.513"/><use xlink:href="#6" y="8.684"/><use xlink:href="#7" y="10.855"/><use xlink:href="#8" y="13.026"/><use xlink:href="#9" y="17.368"/><use xlink:href="#10" y="19.539"/><use xlink:href="#9" y="21.71"/><use xlink:href="#11" y="28.223"/><use xlink:href="#12" y="30.394"/><use xlink:href="#13" y="34.736"/><use xlink:href="#14" y="39.078"/><use xlink:href="#15" y="41.249"/><use xlink:href="#16" y="43.42"/><use xlink:href="#17" y="47.762"/><use xlink:href="#6" y="49.933"/><use xlink:href="#18" y="52.104"/></svg><svg x="6935"><use xlink:href="#a"/><use xlink:href="#b" x="-.004" y="54.25"/><use xlink:href="#1"/><use xlink:href="#2" y="2.171"/><use xlink:href="#3" y="6.513"/><use xlink:href="#6" y="8.684"/><use xlink:href="#7" y="10.855"/><use xlink:href="#8" y="13.026"/><use xlink:href="#9" y="17.368"/><use xlink:href="#10" y="19.539"/><use xlink:href="#9" y="21.71"/><use xlink:href="#11" y="28.223"/><use xlink:href="#12" y="30.394"/><use xlink:href="#13" y="34.736"/><use xlink:href="#14" y="39.078"/><use xlink:href="#15" y="41.249"/><use xlink:href="#16" y="43.42"/><use xlink:href="#17" y="47.762"/><use xlink:href="#6" y="49.933"/><use xlink:href="#18" y="52.104"/></svg><svg x="7030"><use xlink:href="#a"/><use xlink:href="#b" x="-.004" y="54.25"/><use xlink:href="#1"/><use xlink:href="#2" y="2.171"/><use xlink:href="#3" y="6.513"/><use xlink:href="#6" y="8.684"/><use xlink:href="#7" y="10.855"/><use xlink:href="#8" y="13.026"/><use xlink:href="#9" y="17.368"/><use xlink:href="#10" y="19.539"/><use xlink:href="#9" y="21.71"/><use xlink:href="#11" y="28.223"/><use xlink:href="#12" y="30.394"/><use xlink:href="#13" y="34.736"/><use xlink:href="#14" y="39.078"/><use xlink:href="#15" y="41.249"/><use xlink:href="#16" y="43.42"/><use xlink:href="#17" y="47.762"/><use xlink:href="#6" y="49.933"/><use xlink:href="#18" y="52.104"/></svg><svg x="7125"><use xlink:href="#a"/><use xlink:href="#b" x="-.004" y="54.25"/><use xlink:href="#1"/><use xlink:href="#2" y="2.171"/><use xlink:href="#3" y="6.513"/><use xlink:href="#6" y="8.684"/><use xlink:href="#7" y="10.855"/><use xlink:href="#8" y="13.026"/><use xlink:href="#9" y="17.368"/><use xlink:href="#10" y="19.539"/><use xlink:href="#9" y="21.71"/><use xlink:href="#11" y="28.223"/><use xlink:href="#12" y="30.394"/><use xlink:href="#13" y="34.736"/><use xlink:href="#14" y="39.078"/><use xlink:href="#15" y="41.249"/><use xlink:href="#16" y="43.42"/><use xlink:href="#17" y="47.762"/><use xlink:href="#6" y="49.933"/><use xlink:href="#18" y="52.104"/></svg><svg x="7220"><use xlink:href="#a"/><use xlink:href="#b" x="1.996" y="58.592"/><use xlink:href="#1"/><use xlink:href="#2" y="2.171"/><use xlink:href="#3" y="6.513"/><use xlink:href="#6" y="8.684"/><use xlink:href="#7" y="10.855"/><use xlink:href="#8" y="13.026"/><use xlink:href="#9" y="17.368"/><use xlink:href="#10" y="19.539"/><use xlink:href="#9" y="21.71"/><use xlink:href="#11" y="28.223"/><use xlink:href="#12" y="30.394"/><use xlink:href="#13" y="34.736"/><use xlink:href="#14" y="39.078"/><use xlink:href="#15" y="41.249"/><use xlink:href="#16" y="43.42"/><use xlink:href="#17" y="47.762"/><use xlink:href="#6" y="49.933"/><use xlink:href="#18" y="52.104"/><use xlink:href="#14" y="56.446"/><use xlink:href="#4" y="58.617"/></svg><svg x="7315"><use xlink:href="#a"/><use xlink:href="#b" x="-.004" y="58.592"/><use xlink:href="#2"/><use xlink:href="#3" y="4.342"/><use xlink:href="#6" y="6.513"/><use xlink:href="#7" y="8.684"/><use xlink:href="#8" y="10.855"/><use xlink:href="#9" y="15.197"/><use xlink:href="#10" y="17.368"/><use xlink:href="#9" y="19.539"/><use xlink:href="#11" y="26.052"/><use xlink:href="#12" y="28.223"/><use xlink:href="#13" y="32.565"/><use xlink:href="#14" y="36.907"/><use xlink:href="#15" y="39.078"/><use xlink:href="#16" y="41.249"/><use xlink:href="#17" y="45.591"/><use xlink:href="#6" y="47.762"/><use xlink:href="#18" y="49.933"/><use xlink:href="#14" y="54.275"/><use xlink:href="#4" y="56.446"/></svg><svg x="7410"><use xlink:href="#a"/><use xlink:href="#b" x="-.004" y="58.592"/><use xlink:href="#2"/><use xlink:href="#3" y="4.342"/><use xlink:href="#6" y="6.513"/><use xlink:href="#7" y="8.684"/><use xlink:href="#8" y="10.855"/><use xlink:href="#9" y="15.197"/><use xlink:href="#10" y="17.368"/><use xlink:href="#9" y="19.539"/><use xlink:href="#11" y="26.052"/><use xlink:href="#12" y="28.223"/><use xlink:href="#13" y="32.565"/><use xlink:href="#14" y="36.907"/><use xlink:href="#15" y="39.078"/><use xlink:href="#16" y="41.249"/><use xlink:href="#17" y="45.591"/><use xlink:href="#6" y="47.762"/><use xlink:href="#18" y="49.933"/><use xlink:href="#14" y="54.275"/><use xlink:href="#4" y="56.446"/></svg></svg></g></g></svg></svg>