<svg fill="none" height="30" viewBox="0 0 27 30" width="27" xmlns="http://www.w3.org/2000/svg"><path clip-rule="evenodd" d="m17.4997 4.47243c.7086.32116 1.428.6472 2.1652 1.10767l.0287.01797c1.0073.62973 6.5633 4.10312 6.5564 11.68633 0 7.6586-6.0427 12.7156-13.0103 12.7156-6.96752 0-13.2397-5.4894-13.2397-12.9458 0-7.45643 5.81324-10.92307 6.8841-11.4741.31276-.1705.60432-.31975.88779-.46485.87622-.44852 1.67516-.85747 2.78371-1.73232.6954-.57893 1.3073-1.38805 1.509-3.38293 1.0361 1.24157 2.2808 2.68542 3.1778 3.29226.7458.49512 1.4953.83483 2.2573 1.18017zm-.7553 23.82567c1.5645-.1465 2.8927-1.0672 3.0387-1.2137.1983-.1989.1478-.3709.113-.4893l-.0017-.0059c-.0279-.1186-.1461-.293-.4033-.0907-.5772.4394-1.8845.9556-3.7342.9556-1.8496 0-2.7188-.3767-3.296-.837-.0115-.0077-.0209-.0144-.029-.0201-.0155-.011-.0263-.0186-.0381-.0239-.0267-.0118-.0586-.0118-.1623-.0118-.1739 0-.2851.0837-.4312.2022-.146.1186-.2016.4046 0 .6069 1.2725 1.1578 3.3795 1.0741 4.9441.9277zm-1.9679-3.648c.3198-.293.8414-.7533 1.3351-.9556.4382-.1796.6902-.1778 1.0622-.1751h.0006c.0469.0004.0958.0007.1471.0007.459 0 .9527.0279 1.3003.2651.3453.2285.5465.7459.6583 1.0332l.0023.0061c.1183.2929 0 .4603-.2294.5789-.2001.1107-.2291.0567-.4265-.3121l-.0047-.0088-.0156-.0293c-.1956-.3666-.3862-.724-1.3751-.724-.9193 0-1.2663.2899-1.6946.6477-.0414.0347-.0837.0699-.1272.1056l-.0157.0129c-.4817.3948-.6537.5357-.8257.308-.1669-.2302-.1113-.4604.2086-.7533zm9.45-1.9879c.6953-1.0114.9804-2.6296.9804-3.5225 0-.8928-.4033-2.3994-1.8496-2.3994-.6763 0-1.7.6971-2.7366 1.4031-1.0526.7168-2.1185 1.4426-2.8472 1.4567-.7097.0116-1.5304-.5675-2.4908-1.2451-1.3451-.949-2.964-2.0913-4.9357-2.0751-2.65628.0279-4.77018 2.1414-4.798 4.3944-.02781 1.2694.40331 2.1971 1.27252 2.804.57715.3766 1.09172.6347 2.83013.6347 1.60445 0 3.45305-1.1157 5.06355-2.0876 1.2653-.7636 2.3836-1.4385 3.1209-1.4139.7119.0299 1.6396.9737 2.5079 1.8571.7515.7645 1.4585 1.4838 1.9424 1.5258.8136.0558 1.2517-.3208 1.9401-1.3322z" fill="#cad5e0" fill-rule="evenodd"/></svg>