<svg fill="none" height="30" viewBox="0 0 30 30" width="30" xmlns="http://www.w3.org/2000/svg"><path d="m15 0c-8.2875 0-15 6.88228-15 15.3794 0 6.8054 4.29375 12.5534 10.2562 14.5912.75.1346 1.0313-.3268 1.0313-.7305 0-.3653-.0187-1.5764-.0187-2.8644-3.7688.7113-4.7438-.942-5.0438-1.8071-.16875-.4422-.9-1.8071-1.5375-2.1723-.525-.2884-1.275-.9997-.01875-1.0189 1.18125-.0192 2.025 1.115 2.30625 1.5764 1.35 2.3261 3.5063 1.6725 4.3688 1.2688.1312-.9997.5249-1.6725.9562-2.057-3.3375-.3845-6.825-1.711-6.825-7.5936 0-1.6725.58125-3.0567 1.5375-4.1332-.15-.3845-.675-1.9609.15-4.07557 0 0 1.25625-.40371 4.125 1.57639 1.2-.34604 2.475-.51906 3.75-.51906s2.55.17302 3.75.51906c2.8688-1.99932 4.125-1.57639 4.125-1.57639.825 2.11467.3 3.69107.15 4.07557.9563 1.0765 1.5375 2.4415 1.5375 4.1332 0 5.9018-3.5062 7.2091-6.8437 7.5936.5437.4806 1.0125 1.4033 1.0125 2.8452 0 2.057-.0188 3.7102-.0188 4.2293 0 .4037.2813.8843 1.0313.7305 2.9779-1.0304 5.5656-2.9925 7.3987-5.6101 1.8332-2.6175 2.8195-5.7586 2.82-8.9811 0-8.49712-6.7125-15.3794-15-15.3794z" fill="#cad5e0"/></svg>