<svg fill="none" height="30" viewBox="0 0 31 30" width="31" xmlns="http://www.w3.org/2000/svg"><path clip-rule="evenodd" d="m6.1 3h18.3c1.575 0 2.85 1.275 2.85 2.85v18.3c0 1.575-1.275 2.85-2.85 2.85h-18.3c-1.575 0-2.85-1.275-2.85-2.85v-18.3c0-1.575 1.275-2.85 2.85-2.85zm17.23 3.2h-2.16c-.432 0-.72.288-.72.72v2.16c0 .432.288.72.72.72h2.16c.432 0 .72-.288.72-.72v-2.16c0-.432-.288-.72-.72-.72zm-7.88 4.4c2.5226 0 4.6 2.0361 4.6 4.6s-2.0774 4.6-4.6 4.6-4.6-2.0361-4.6-4.6c.0742-2.5639 2.0774-4.6 4.6-4.6zm-10.2 13.25c0 .45.30252.75.75631.75h18.15139c.4538 0 .7563-.3.6807-.75v-11.25h-3.0252c.5294.525.605 1.575.605 2.25 0 3.975-3.2521 7.275-7.3362 7.275-4.0084 0-7.33618-3.225-7.33618-7.275 0-.675.15126-1.65.52942-2.25h-3.02524z" fill="#cad5e0" fill-rule="evenodd"/></svg>
