<svg fill="none" height="30" viewBox="0 0 31 30" width="31" xmlns="http://www.w3.org/2000/svg"><path d="m26.896 9.09231v.73846c0 7.93843-6.1491 17.16923-17.32923 17.16923-3.54037 0-6.70807-.9231-9.31677-2.7692h1.49068c2.79503 0 5.59007-.9231 7.63975-2.5846-2.60869 0-4.84472-1.8462-5.77639-4.2462.37267 0 .74534.1846 1.11801.1846.55901 0 1.11801 0 1.67702-.1846-2.79503-.5538-4.84472-2.9538-4.84472-5.9077.74534.3692 1.67702.7385 2.79503.7385-1.67702-1.1077-2.79503-2.95388-2.79503-4.98465 0-1.10769.37267-2.21538.74534-3.13846 2.98137 3.69231 7.45342 6.09231 12.67081 6.27691-.1863-.3692-.1863-.92306-.1863-1.29229 0-3.32308 2.795-6.09231 6.149-6.09231 1.677 0 3.3541.73846 4.4721 1.84615 1.3043-.18461 2.795-.73846 3.913-1.47692-.3726 1.47692-1.4907 2.58462-2.6087 3.32308 1.3044-.18462 2.4224-.55385 3.5404-.92308-1.118 1.47692-2.236 2.58462-3.354 3.32308z" fill="#cad5e0"/></svg>