<svg width="96" height="96" viewBox="0 0 96 96" fill="none" xmlns="http://www.w3.org/2000/svg">
<g clip-path="url(#clip0_5232_499958)">
<mask id="path-1-inside-1_5232_499958" fill="white">
<path fill-rule="evenodd" clip-rule="evenodd" d="M17.0586 18C13.7449 18 11.0586 20.6863 11.0586 24V34.44V36.56V70C11.0586 73.3137 13.7449 76 17.0586 76H70.0186C73.3323 76 76.0186 73.3137 76.0186 70V34.44C76.0186 31.1263 73.3323 28.44 70.0186 28.44H41.2186V24C41.2186 20.6863 38.5323 18 35.2186 18H17.0586Z"/>
</mask>
<path d="M41.2186 28.44H37.2186V32.44H41.2186V28.44ZM15.0586 24C15.0586 22.8954 15.954 22 17.0586 22V14C11.5357 14 7.05859 18.4772 7.05859 24H15.0586ZM15.0586 34.44V24H7.05859V34.44H15.0586ZM15.0586 36.56V34.44H7.05859V36.56H15.0586ZM15.0586 70V36.56H7.05859V70H15.0586ZM17.0586 72C15.954 72 15.0586 71.1045 15.0586 70H7.05859C7.05859 75.5228 11.5358 80 17.0586 80V72ZM70.0186 72H17.0586V80H70.0186V72ZM72.0186 70C72.0186 71.1046 71.1232 72 70.0186 72V80C75.5414 80 80.0186 75.5228 80.0186 70H72.0186ZM72.0186 34.44V70H80.0186V34.44H72.0186ZM70.0186 32.44C71.1232 32.44 72.0186 33.3354 72.0186 34.44H80.0186C80.0186 28.9171 75.5414 24.44 70.0186 24.44V32.44ZM41.2186 32.44H70.0186V24.44H41.2186V32.44ZM37.2186 24V28.44H45.2186V24H37.2186ZM35.2186 22C36.3232 22 37.2186 22.8954 37.2186 24H45.2186C45.2186 18.4771 40.7414 14 35.2186 14V22ZM17.0586 22H35.2186V14H17.0586V22Z" fill="#D0491E" mask="url(#path-1-inside-1_5232_499958)"/>
<path d="M32.6267 44.5386H85.9976C89.2677 44.5386 91.1561 48.2493 89.2314 50.8929L73.6059 72.3545C72.853 73.3885 71.6511 74.0001 70.3721 74.0001H17.0012C13.7311 74.0001 11.8427 70.2894 13.7674 67.6457L29.3929 46.1842C30.1458 45.1502 31.3477 44.5386 32.6267 44.5386Z" fill="white" stroke="#D0491E" stroke-width="4"/>
</g>
<defs>
<clipPath id="clip0_5232_499958">
<rect width="96" height="96" fill="white"/>
</clipPath>
</defs>
</svg>
