<svg width="96" height="96" viewBox="0 0 96 96" fill="none" xmlns="http://www.w3.org/2000/svg">
<path d="M30.0288 31C29.66 24 32.6845 10 47.7336 10C62.7826 10 66.177 24 65.993 31" stroke="#D0491E" stroke-width="4" stroke-linecap="round"/>
<path d="M72.5994 86H33.8208C31.1981 83.1845 27.3847 76.766 23.1443 71.3592C16.9615 63.4757 16.2937 58.9922 21.4566 54.466C25.9529 50.5243 34.7575 59.7217 39.4409 63.4757V40.9515C39.4409 35.3204 40.1142 28 47.3079 28C54.5016 28 55.7392 33.6311 55.7392 40.9515V50.5243C55.7392 50.5243 65.2922 52.559 74.2855 56.7184C81.5905 60.0971 76.5335 77.5534 72.5994 86Z" stroke="#D0491E" stroke-width="4"/>
</svg>
